M48
; DRILL file {KiCad 5.1.5-52549c5~84~ubuntu18.04.1} date Mo 24 Feb 2020 22:50:54 CET
; FORMAT={-:-/ absolute / metric / decimal}
; #@! TF.CreationDate,2020-02-24T22:50:54+01:00
; #@! TF.GenerationSoftware,Kicad,Pcbnew,5.1.5-52549c5~84~ubuntu18.04.1
; #@! TF.FileFunction,Plated,1,2,PTH
FMAT,2
METRIC
T1C0.200
T2C0.300
T3C0.600
%
G90
G05
T1
X132.82Y-110.656
X133.77Y-110.081
X133.77Y-111.231
X134.72Y-110.656
T2
X102.909Y-129.516
X102.909Y-130.341
X103.036Y-114.847
X103.417Y-117.895
X103.925Y-114.847
X104.687Y-115.101
X104.814Y-105.195
X104.814Y-120.498
X106.909Y-125.578
X106.973Y-121.451
X106.973Y-128.055
X106.973Y-142.025
X107.544Y-123.483
X107.989Y-133.135
X108.497Y-123.483
X108.497Y-129.769
X108.751Y-106.846
X109.005Y-105.449
X109.005Y-108.243
X109.005Y-135.421
X109.259Y-123.991
X109.259Y-131.103
X109.259Y-144.311
X109.767Y-101.893
X110.021Y-137.707
X111.545Y-119.927
X111.545Y-146.597
X111.799Y-118.403
X111.799Y-135.675
X111.799Y-137.707
X111.862Y-130.087
X112.243Y-125.578
X112.307Y-107.608
X112.307Y-120.689
X112.307Y-126.594
X112.555Y-117.889
X112.561Y-119.165
X112.815Y-104.433
X112.815Y-137.453
X113.069Y-117.133
X113.069Y-129.261
X114.085Y-148.121
X114.847Y-103.925
X115.228Y-125.134
X116.094Y-115.632
X116.879Y-104.179
X116.879Y-149.645
X117.133Y-133.135
X117.133Y-134.151
X117.323Y-132.309
X117.641Y-134.913
X118.149Y-123.229
X118.403Y-117.387
X118.53Y-119.292
X119.482Y-125.451
X119.927Y-150.915
X120.689Y-105.449
X120.943Y-106.719
X121.197Y-132.627
X121.705Y-119.927
X121.705Y-121.197
X121.705Y-136.945
X121.832Y-116.879
X122.721Y-137.453
X122.721Y-139.231
X122.975Y-130.087
X122.975Y-134.913
X123.229Y-151.423
X123.737Y-103.671
X123.737Y-107.735
X123.991Y-137.707
X124.753Y-107.735
X125.261Y-115.355
X125.261Y-117.641
X125.261Y-118.911
X125.261Y-134.913
X125.515Y-137.707
X126.023Y-130.341
X126.277Y-151.677
X126.531Y-118.911
X127.293Y-107.735
X127.293Y-133.897
X127.801Y-120.181
X128.309Y-138.215
X129.071Y-135.421
X129.325Y-120.181
X129.325Y-126.023
X129.325Y-126.023
X129.325Y-127.801
X129.325Y-151.677
X129.833Y-109.259
X131.103Y-125.261
X131.103Y-127.801
X131.357Y-112.053
X131.865Y-108.243
X131.865Y-138.469
X131.865Y-140.247
X131.865Y-141.263
X132.373Y-123.483
X132.627Y-139.485
X132.627Y-151.169
X132.881Y-118.276
X132.881Y-135.675
X132.881Y-137.961
X133.389Y-136.691
X133.511Y-117.255
X133.897Y-119.165
X133.897Y-125.515
X134.151Y-131.357
X134.913Y-116.879
X135.167Y-125.769
X135.167Y-128.817
X135.167Y-133.897
X135.211Y-132.329
X135.421Y-109.513
X135.421Y-119.165
X135.675Y-108.751
X135.675Y-112.053
X135.675Y-134.659
X135.675Y-150.153
X135.929Y-114.339
X135.929Y-131.357
X136.183Y-125.515
X136.183Y-127.547
X136.691Y-107.735
X136.691Y-128.309
X136.691Y-145.073
X136.945Y-123.483
X136.945Y-129.833
X136.945Y-132.881
X137.707Y-139.739
X138.088Y-125.261
X138.469Y-122.467
X138.469Y-134.151
X138.469Y-148.629
X138.723Y-116.879
X138.723Y-121.705
X138.977Y-120.181
X138.977Y-120.943
X139.231Y-124.88
X139.231Y-140.247
X139.231Y-144.057
X139.474Y-117.63
X139.485Y-119.419
X139.993Y-128.563
X139.993Y-129.325
X139.993Y-132.373
X140.247Y-116.879
X140.247Y-134.405
X140.501Y-118.911
X141.263Y-131.357
X141.517Y-142.279
X142.279Y-114.085
X142.787Y-137.199
X142.914Y-125.515
X143.041Y-139.993
X143.295Y-108.751
X143.295Y-112.561
X144.057Y-115.609
X144.565Y-137.961
X145.327Y-115.355
X145.835Y-121.705
X145.835Y-132.627
X145.835Y-135.421
X146.343Y-115.101
X146.343Y-124.245
X146.343Y-129.325
X146.851Y-116.625
X146.851Y-119.673
T3
G00X101.624Y-101.51
M15
G01X102.924Y-101.51
M16
G05
G00X101.624Y-110.15
M15
G01X102.924Y-110.15
M16
G05
G00X106.324Y-102.11
M15
G01X106.324Y-101.51
M16
G05
G00X106.324Y-110.15
M15
G01X106.324Y-109.55
M16
G05
G00X106.324Y-101.51
M15
G01X107.324Y-101.51
M16
G05
G00X106.324Y-110.15
M15
G01X107.324Y-110.15
M16
G05
T0
M30
