G04 #@! TF.GenerationSoftware,KiCad,Pcbnew,5.1.5-52549c5~84~ubuntu18.04.1*
G04 #@! TF.CreationDate,2020-02-13T00:00:33+01:00*
G04 #@! TF.ProjectId,chase,63686173-652e-46b6-9963-61645f706362,rev?*
G04 #@! TF.SameCoordinates,Original*
G04 #@! TF.FileFunction,Legend,Top*
G04 #@! TF.FilePolarity,Positive*
%FSLAX46Y46*%
G04 Gerber Fmt 4.6, Leading zero omitted, Abs format (unit mm)*
G04 Created by KiCad (PCBNEW 5.1.5-52549c5~84~ubuntu18.04.1) date 2020-02-13 00:00:33*
%MOMM*%
%LPD*%
G04 APERTURE LIST*
%ADD10C,0.100000*%
%ADD11C,0.130000*%
G04 APERTURE END LIST*
D10*
X150091630Y-136199321D02*
G75*
G03X150091630Y-136199321I-50000J0D01*
G01*
X135291000Y-126785000D02*
G75*
G03X135291000Y-126785000I-50000J0D01*
G01*
X140879000Y-126785000D02*
G75*
G03X140879000Y-126785000I-50000J0D01*
G01*
X142691513Y-138362978D02*
G75*
G03X142691513Y-138362978I-50000J0D01*
G01*
X138627513Y-135683978D02*
G75*
G03X138627513Y-135683978I-50000J0D01*
G01*
X134563513Y-133003978D02*
G75*
G03X134563513Y-133003978I-50000J0D01*
G01*
X130499513Y-130324978D02*
G75*
G03X130499513Y-130324978I-50000J0D01*
G01*
X127925000Y-126785000D02*
G75*
G03X127925000Y-126785000I-50000J0D01*
G01*
X130499513Y-123335022D02*
G75*
G03X130499513Y-123335022I-50000J0D01*
G01*
X134563513Y-120541022D02*
G75*
G03X134563513Y-120541022I-50000J0D01*
G01*
X138627513Y-117747022D02*
G75*
G03X138627513Y-117747022I-50000J0D01*
G01*
X142691513Y-114953022D02*
G75*
G03X142691513Y-114953022I-50000J0D01*
G01*
X151719875Y-129986838D02*
G75*
G03X151719875Y-129986838I-50000J0D01*
G01*
X151102859Y-133155113D02*
G75*
G03X151102859Y-133155113I-50000J0D01*
G01*
X148700335Y-139090442D02*
G75*
G03X148700335Y-139090442I-50000J0D01*
G01*
X146939513Y-141795978D02*
G75*
G03X146939513Y-141795978I-50000J0D01*
G01*
X144859080Y-144238178D02*
G75*
G03X144859080Y-144238178I-50000J0D01*
G01*
X142484959Y-146396089D02*
G75*
G03X142484959Y-146396089I-50000J0D01*
G01*
X139837392Y-148242312D02*
G75*
G03X139837392Y-148242312I-50000J0D01*
G01*
X136993344Y-149726765D02*
G75*
G03X136993344Y-149726765I-50001J0D01*
G01*
X133982685Y-150835372D02*
G75*
G03X133982685Y-150835372I-50000J0D01*
G01*
X130835514Y-151553580D02*
G75*
G03X130835514Y-151553580I-50000J0D01*
G01*
X127642040Y-151862336D02*
G75*
G03X127642040Y-151862336I-50000J0D01*
G01*
X124416064Y-151758029D02*
G75*
G03X124416064Y-151758029I-50000J0D01*
G01*
X121248803Y-151245063D02*
G75*
G03X121248803Y-151245063I-50000J0D01*
G01*
X118173198Y-150332265D02*
G75*
G03X118173198Y-150332265I-50000J0D01*
G01*
X115222277Y-149025413D02*
G75*
G03X115222277Y-149025413I-50001J0D01*
G01*
X112478802Y-147361876D02*
G75*
G03X112478802Y-147361876I-50000J0D01*
G01*
X109970647Y-145362028D02*
G75*
G03X109970647Y-145362028I-49999J0D01*
G01*
X107725012Y-143042638D02*
G75*
G03X107725012Y-143042638I-50000J0D01*
G01*
X105806849Y-140471657D02*
G75*
G03X105806849Y-140471657I-50000J0D01*
G01*
X104232314Y-137675825D02*
G75*
G03X104232314Y-137675825I-50000J0D01*
G01*
X103021348Y-134684829D02*
G75*
G03X103021348Y-134684829I-50000J0D01*
G01*
X102208027Y-131580982D02*
G75*
G03X102208027Y-131580982I-50001J0D01*
G01*
X101796655Y-128399035D02*
G75*
G03X101796655Y-128399035I-50000J0D01*
G01*
X101796655Y-125170965D02*
G75*
G03X101796655Y-125170965I-50000J0D01*
G01*
X102208027Y-121989018D02*
G75*
G03X102208027Y-121989018I-50001J0D01*
G01*
X103021348Y-118885171D02*
G75*
G03X103021348Y-118885171I-50000J0D01*
G01*
X104232314Y-115894175D02*
G75*
G03X104232314Y-115894175I-50000J0D01*
G01*
X105806849Y-113098343D02*
G75*
G03X105806849Y-113098343I-50000J0D01*
G01*
X107725012Y-110527362D02*
G75*
G03X107725012Y-110527362I-50000J0D01*
G01*
X109970647Y-108207972D02*
G75*
G03X109970647Y-108207972I-49999J0D01*
G01*
X112478802Y-106208124D02*
G75*
G03X112478802Y-106208124I-50000J0D01*
G01*
X115222277Y-104544587D02*
G75*
G03X115222277Y-104544587I-50001J0D01*
G01*
X118173198Y-103237735D02*
G75*
G03X118173198Y-103237735I-50000J0D01*
G01*
X121248803Y-102324937D02*
G75*
G03X121248803Y-102324937I-50000J0D01*
G01*
X124416064Y-101811971D02*
G75*
G03X124416064Y-101811971I-50000J0D01*
G01*
X127642040Y-101707664D02*
G75*
G03X127642040Y-101707664I-50000J0D01*
G01*
X130835514Y-102016420D02*
G75*
G03X130835514Y-102016420I-50000J0D01*
G01*
X133982685Y-102734628D02*
G75*
G03X133982685Y-102734628I-50000J0D01*
G01*
X136993344Y-103843235D02*
G75*
G03X136993344Y-103843235I-50001J0D01*
G01*
X139837392Y-105327688D02*
G75*
G03X139837392Y-105327688I-50000J0D01*
G01*
X142484959Y-107173911D02*
G75*
G03X142484959Y-107173911I-50000J0D01*
G01*
X144859080Y-109331822D02*
G75*
G03X144859080Y-109331822I-50000J0D01*
G01*
X146939513Y-111774022D02*
G75*
G03X146939513Y-111774022I-50000J0D01*
G01*
X148700335Y-114479558D02*
G75*
G03X148700335Y-114479558I-50000J0D01*
G01*
X150091630Y-117370679D02*
G75*
G03X150091630Y-117370679I-50000J0D01*
G01*
X151102859Y-120414887D02*
G75*
G03X151102859Y-120414887I-50000J0D01*
G01*
X151719875Y-123583162D02*
G75*
G03X151719875Y-123583162I-50000J0D01*
G01*
X151925000Y-126785000D02*
G75*
G03X151925000Y-126785000I-50000J0D01*
G01*
D11*
X102015285Y-104296428D02*
X101815285Y-104010714D01*
X101672428Y-104296428D02*
X101672428Y-103696428D01*
X101901000Y-103696428D01*
X101958142Y-103725000D01*
X101986714Y-103753571D01*
X102015285Y-103810714D01*
X102015285Y-103896428D01*
X101986714Y-103953571D01*
X101958142Y-103982142D01*
X101901000Y-104010714D01*
X101672428Y-104010714D01*
X102529571Y-103696428D02*
X102415285Y-103696428D01*
X102358142Y-103725000D01*
X102329571Y-103753571D01*
X102272428Y-103839285D01*
X102243857Y-103953571D01*
X102243857Y-104182142D01*
X102272428Y-104239285D01*
X102301000Y-104267857D01*
X102358142Y-104296428D01*
X102472428Y-104296428D01*
X102529571Y-104267857D01*
X102558142Y-104239285D01*
X102586714Y-104182142D01*
X102586714Y-104039285D01*
X102558142Y-103982142D01*
X102529571Y-103953571D01*
X102472428Y-103925000D01*
X102358142Y-103925000D01*
X102301000Y-103953571D01*
X102272428Y-103982142D01*
X102243857Y-104039285D01*
X103101000Y-103696428D02*
X102986714Y-103696428D01*
X102929571Y-103725000D01*
X102901000Y-103753571D01*
X102843857Y-103839285D01*
X102815285Y-103953571D01*
X102815285Y-104182142D01*
X102843857Y-104239285D01*
X102872428Y-104267857D01*
X102929571Y-104296428D01*
X103043857Y-104296428D01*
X103101000Y-104267857D01*
X103129571Y-104239285D01*
X103158142Y-104182142D01*
X103158142Y-104039285D01*
X103129571Y-103982142D01*
X103101000Y-103953571D01*
X103043857Y-103925000D01*
X102929571Y-103925000D01*
X102872428Y-103953571D01*
X102843857Y-103982142D01*
X102815285Y-104039285D01*
X147815511Y-136854541D02*
X148040275Y-136298231D01*
X148172730Y-136351746D01*
X148241500Y-136410346D01*
X148273075Y-136484734D01*
X148278160Y-136548419D01*
X148261839Y-136665086D01*
X148229730Y-136744559D01*
X148160427Y-136839820D01*
X148112530Y-136882099D01*
X148038142Y-136913674D01*
X147947966Y-136908056D01*
X147815511Y-136854541D01*
X148861495Y-136630025D02*
X148596585Y-136522995D01*
X148463064Y-136777201D01*
X148500258Y-136761413D01*
X148563943Y-136756329D01*
X148696398Y-136809844D01*
X148738676Y-136857741D01*
X148754464Y-136894935D01*
X148759549Y-136958620D01*
X148706034Y-137091075D01*
X148658137Y-137133354D01*
X148620943Y-137149141D01*
X148557258Y-137154226D01*
X148424803Y-137100711D01*
X148382524Y-137052814D01*
X148366736Y-137015620D01*
X149193041Y-137411099D02*
X148875150Y-137282663D01*
X149034095Y-137346881D02*
X149258859Y-136790571D01*
X149173768Y-136848638D01*
X149099380Y-136880213D01*
X149035695Y-136885298D01*
X132241285Y-126040428D02*
X132041285Y-125754714D01*
X131898428Y-126040428D02*
X131898428Y-125440428D01*
X132127000Y-125440428D01*
X132184142Y-125469000D01*
X132212714Y-125497571D01*
X132241285Y-125554714D01*
X132241285Y-125640428D01*
X132212714Y-125697571D01*
X132184142Y-125726142D01*
X132127000Y-125754714D01*
X131898428Y-125754714D01*
X132755571Y-125440428D02*
X132641285Y-125440428D01*
X132584142Y-125469000D01*
X132555571Y-125497571D01*
X132498428Y-125583285D01*
X132469857Y-125697571D01*
X132469857Y-125926142D01*
X132498428Y-125983285D01*
X132527000Y-126011857D01*
X132584142Y-126040428D01*
X132698428Y-126040428D01*
X132755571Y-126011857D01*
X132784142Y-125983285D01*
X132812714Y-125926142D01*
X132812714Y-125783285D01*
X132784142Y-125726142D01*
X132755571Y-125697571D01*
X132698428Y-125669000D01*
X132584142Y-125669000D01*
X132527000Y-125697571D01*
X132498428Y-125726142D01*
X132469857Y-125783285D01*
X133327000Y-125640428D02*
X133327000Y-126040428D01*
X133184142Y-125411857D02*
X133041285Y-125840428D01*
X133412714Y-125840428D01*
X137575285Y-125786428D02*
X137375285Y-125500714D01*
X137232428Y-125786428D02*
X137232428Y-125186428D01*
X137461000Y-125186428D01*
X137518142Y-125215000D01*
X137546714Y-125243571D01*
X137575285Y-125300714D01*
X137575285Y-125386428D01*
X137546714Y-125443571D01*
X137518142Y-125472142D01*
X137461000Y-125500714D01*
X137232428Y-125500714D01*
X138089571Y-125186428D02*
X137975285Y-125186428D01*
X137918142Y-125215000D01*
X137889571Y-125243571D01*
X137832428Y-125329285D01*
X137803857Y-125443571D01*
X137803857Y-125672142D01*
X137832428Y-125729285D01*
X137861000Y-125757857D01*
X137918142Y-125786428D01*
X138032428Y-125786428D01*
X138089571Y-125757857D01*
X138118142Y-125729285D01*
X138146714Y-125672142D01*
X138146714Y-125529285D01*
X138118142Y-125472142D01*
X138089571Y-125443571D01*
X138032428Y-125415000D01*
X137918142Y-125415000D01*
X137861000Y-125443571D01*
X137832428Y-125472142D01*
X137803857Y-125529285D01*
X138346714Y-125186428D02*
X138718142Y-125186428D01*
X138518142Y-125415000D01*
X138603857Y-125415000D01*
X138661000Y-125443571D01*
X138689571Y-125472142D01*
X138718142Y-125529285D01*
X138718142Y-125672142D01*
X138689571Y-125729285D01*
X138661000Y-125757857D01*
X138603857Y-125786428D01*
X138432428Y-125786428D01*
X138375285Y-125757857D01*
X138346714Y-125729285D01*
X139579481Y-139896047D02*
X139591701Y-139547503D01*
X139305663Y-139689711D02*
X139666752Y-139210529D01*
X139849297Y-139348087D01*
X139877739Y-139405295D01*
X139883362Y-139445308D01*
X139871791Y-139508139D01*
X139820207Y-139576593D01*
X139762999Y-139605035D01*
X139722986Y-139610658D01*
X139660155Y-139599087D01*
X139477610Y-139461529D01*
X140351296Y-139726371D02*
X140260024Y-139657592D01*
X140197193Y-139646021D01*
X140157180Y-139651644D01*
X140059959Y-139685709D01*
X139968362Y-139759787D01*
X139830805Y-139942332D01*
X139819233Y-140005163D01*
X139824857Y-140045176D01*
X139853298Y-140102384D01*
X139944571Y-140171163D01*
X140007402Y-140182734D01*
X140047415Y-140177111D01*
X140104623Y-140148669D01*
X140190596Y-140034578D01*
X140202167Y-139971747D01*
X140196544Y-139931734D01*
X140168102Y-139874527D01*
X140076830Y-139805748D01*
X140013999Y-139794177D01*
X139973986Y-139799800D01*
X139916778Y-139828242D01*
X140545089Y-139943954D02*
X140585101Y-139938331D01*
X140647932Y-139949902D01*
X140762023Y-140035876D01*
X140790465Y-140093083D01*
X140796088Y-140133096D01*
X140784517Y-140195927D01*
X140750128Y-140241564D01*
X140675725Y-140292823D01*
X140195571Y-140360305D01*
X140492207Y-140583836D01*
X135515481Y-137356047D02*
X135527701Y-137007503D01*
X135241663Y-137149711D02*
X135602752Y-136670529D01*
X135785297Y-136808087D01*
X135813739Y-136865295D01*
X135819362Y-136905308D01*
X135807791Y-136968139D01*
X135756207Y-137036593D01*
X135698999Y-137065035D01*
X135658986Y-137070658D01*
X135596155Y-137059087D01*
X135413610Y-136921529D01*
X136287296Y-137186371D02*
X136196024Y-137117592D01*
X136133193Y-137106021D01*
X136093180Y-137111644D01*
X135995959Y-137145709D01*
X135904362Y-137219787D01*
X135766805Y-137402332D01*
X135755233Y-137465163D01*
X135760857Y-137505176D01*
X135789298Y-137562384D01*
X135880571Y-137631163D01*
X135943402Y-137642734D01*
X135983415Y-137637111D01*
X136040623Y-137608669D01*
X136126596Y-137494578D01*
X136138167Y-137431747D01*
X136132544Y-137391734D01*
X136104102Y-137334527D01*
X136012830Y-137265748D01*
X135949999Y-137254177D01*
X135909986Y-137259800D01*
X135852778Y-137288242D01*
X136428207Y-138043836D02*
X136154389Y-137837499D01*
X136291298Y-137940668D02*
X136652387Y-137461486D01*
X136555166Y-137495551D01*
X136475141Y-137506798D01*
X136412310Y-137495227D01*
X131451481Y-134562047D02*
X131463701Y-134213503D01*
X131177663Y-134355711D02*
X131538752Y-133876529D01*
X131721297Y-134014087D01*
X131749739Y-134071295D01*
X131755362Y-134111308D01*
X131743791Y-134174139D01*
X131692207Y-134242593D01*
X131634999Y-134271035D01*
X131594986Y-134276658D01*
X131532155Y-134265087D01*
X131349610Y-134127529D01*
X132223296Y-134392371D02*
X132132024Y-134323592D01*
X132069193Y-134312021D01*
X132029180Y-134317644D01*
X131931959Y-134351709D01*
X131840362Y-134425787D01*
X131702805Y-134608332D01*
X131691233Y-134671163D01*
X131696857Y-134711176D01*
X131725298Y-134768384D01*
X131816571Y-134837163D01*
X131879402Y-134848734D01*
X131919415Y-134843111D01*
X131976623Y-134814669D01*
X132062596Y-134700578D01*
X132074167Y-134637747D01*
X132068544Y-134597734D01*
X132040102Y-134540527D01*
X131948830Y-134471748D01*
X131885999Y-134460177D01*
X131845986Y-134465800D01*
X131788778Y-134494242D01*
X132565569Y-134650292D02*
X132611205Y-134684681D01*
X132639647Y-134741889D01*
X132645270Y-134781902D01*
X132633699Y-134844733D01*
X132587738Y-134953200D01*
X132501765Y-135067291D01*
X132410168Y-135141369D01*
X132352960Y-135169810D01*
X132312947Y-135175434D01*
X132250116Y-135163862D01*
X132204480Y-135129473D01*
X132176038Y-135072265D01*
X132170415Y-135032252D01*
X132181986Y-134969421D01*
X132227947Y-134860954D01*
X132313920Y-134746863D01*
X132405517Y-134672785D01*
X132462725Y-134644344D01*
X132502738Y-134638720D01*
X132565569Y-134650292D01*
X127522481Y-131768047D02*
X127534701Y-131419503D01*
X127248663Y-131561711D02*
X127609752Y-131082529D01*
X127792297Y-131220087D01*
X127820739Y-131277295D01*
X127826362Y-131317308D01*
X127814791Y-131380139D01*
X127763207Y-131448593D01*
X127705999Y-131477035D01*
X127665986Y-131482658D01*
X127603155Y-131471087D01*
X127420610Y-131333529D01*
X128317115Y-131615566D02*
X128088933Y-131443618D01*
X127894168Y-131654605D01*
X127934181Y-131648982D01*
X127997012Y-131660553D01*
X128111102Y-131746527D01*
X128139544Y-131803734D01*
X128145167Y-131843747D01*
X128133596Y-131906578D01*
X128047623Y-132020669D01*
X127990415Y-132049111D01*
X127950402Y-132054734D01*
X127887571Y-132043163D01*
X127773480Y-131957189D01*
X127745039Y-131899982D01*
X127739415Y-131859969D01*
X128207025Y-132283889D02*
X128298298Y-132352668D01*
X128361129Y-132364239D01*
X128401142Y-132358615D01*
X128498362Y-132324550D01*
X128589959Y-132250473D01*
X128727517Y-132067927D01*
X128739088Y-132005096D01*
X128733465Y-131965083D01*
X128705023Y-131907876D01*
X128613751Y-131839097D01*
X128550920Y-131827526D01*
X128510907Y-131833149D01*
X128453699Y-131861591D01*
X128367726Y-131975681D01*
X128356154Y-132038513D01*
X128361778Y-132078525D01*
X128390219Y-132135733D01*
X128481492Y-132204512D01*
X128544323Y-132216083D01*
X128584336Y-132210460D01*
X128641543Y-132182018D01*
X123859285Y-125886428D02*
X123659285Y-125600714D01*
X123516428Y-125886428D02*
X123516428Y-125286428D01*
X123745000Y-125286428D01*
X123802142Y-125315000D01*
X123830714Y-125343571D01*
X123859285Y-125400714D01*
X123859285Y-125486428D01*
X123830714Y-125543571D01*
X123802142Y-125572142D01*
X123745000Y-125600714D01*
X123516428Y-125600714D01*
X124402142Y-125286428D02*
X124116428Y-125286428D01*
X124087857Y-125572142D01*
X124116428Y-125543571D01*
X124173571Y-125515000D01*
X124316428Y-125515000D01*
X124373571Y-125543571D01*
X124402142Y-125572142D01*
X124430714Y-125629285D01*
X124430714Y-125772142D01*
X124402142Y-125829285D01*
X124373571Y-125857857D01*
X124316428Y-125886428D01*
X124173571Y-125886428D01*
X124116428Y-125857857D01*
X124087857Y-125829285D01*
X124773571Y-125543571D02*
X124716428Y-125515000D01*
X124687857Y-125486428D01*
X124659285Y-125429285D01*
X124659285Y-125400714D01*
X124687857Y-125343571D01*
X124716428Y-125315000D01*
X124773571Y-125286428D01*
X124887857Y-125286428D01*
X124945000Y-125315000D01*
X124973571Y-125343571D01*
X125002142Y-125400714D01*
X125002142Y-125429285D01*
X124973571Y-125486428D01*
X124945000Y-125515000D01*
X124887857Y-125543571D01*
X124773571Y-125543571D01*
X124716428Y-125572142D01*
X124687857Y-125600714D01*
X124659285Y-125657857D01*
X124659285Y-125772142D01*
X124687857Y-125829285D01*
X124716428Y-125857857D01*
X124773571Y-125886428D01*
X124887857Y-125886428D01*
X124945000Y-125857857D01*
X124973571Y-125829285D01*
X125002142Y-125772142D01*
X125002142Y-125657857D01*
X124973571Y-125600714D01*
X124945000Y-125572142D01*
X124887857Y-125543571D01*
X127650995Y-122157905D02*
X127319321Y-122050086D01*
X127377177Y-122364241D02*
X127016088Y-121885060D01*
X127198634Y-121747502D01*
X127261465Y-121735931D01*
X127301477Y-121741554D01*
X127358685Y-121769996D01*
X127410269Y-121838450D01*
X127421840Y-121901281D01*
X127416217Y-121941294D01*
X127387775Y-121998502D01*
X127205230Y-122136060D01*
X127723451Y-121352024D02*
X127495270Y-121523971D01*
X127644399Y-121769347D01*
X127650022Y-121729334D01*
X127678464Y-121672127D01*
X127792554Y-121586153D01*
X127855385Y-121574582D01*
X127895398Y-121580205D01*
X127952606Y-121608647D01*
X128038579Y-121722738D01*
X128050151Y-121785569D01*
X128044527Y-121825582D01*
X128016086Y-121882789D01*
X127901995Y-121968763D01*
X127839164Y-121980334D01*
X127799151Y-121974711D01*
X127905996Y-121214466D02*
X128225451Y-120973740D01*
X128381176Y-121607674D01*
X131714995Y-119363905D02*
X131383321Y-119256086D01*
X131441177Y-119570241D02*
X131080088Y-119091060D01*
X131262634Y-118953502D01*
X131325465Y-118941931D01*
X131365477Y-118947554D01*
X131422685Y-118975996D01*
X131474269Y-119044450D01*
X131485840Y-119107281D01*
X131480217Y-119147294D01*
X131451775Y-119204502D01*
X131269230Y-119342060D01*
X131787451Y-118558024D02*
X131559270Y-118729971D01*
X131708399Y-118975347D01*
X131714022Y-118935334D01*
X131742464Y-118878127D01*
X131856554Y-118792153D01*
X131919385Y-118780582D01*
X131959398Y-118786205D01*
X132016606Y-118814647D01*
X132102579Y-118928738D01*
X132114151Y-118991569D01*
X132108527Y-119031582D01*
X132080086Y-119088789D01*
X131965995Y-119174763D01*
X131903164Y-119186334D01*
X131863151Y-119180711D01*
X132220996Y-118231324D02*
X132129724Y-118300103D01*
X132101282Y-118357311D01*
X132095658Y-118397323D01*
X132101606Y-118500167D01*
X132147567Y-118608635D01*
X132285125Y-118791180D01*
X132342332Y-118819622D01*
X132382345Y-118825245D01*
X132445176Y-118813674D01*
X132536449Y-118744895D01*
X132564890Y-118687687D01*
X132570514Y-118647674D01*
X132558943Y-118584843D01*
X132472969Y-118470753D01*
X132415761Y-118442311D01*
X132375749Y-118436688D01*
X132312918Y-118448259D01*
X132221645Y-118517038D01*
X132193203Y-118574245D01*
X132187580Y-118614258D01*
X132199151Y-118677089D01*
X135778995Y-116569905D02*
X135447321Y-116462086D01*
X135505177Y-116776241D02*
X135144088Y-116297060D01*
X135326634Y-116159502D01*
X135389465Y-116147931D01*
X135429477Y-116153554D01*
X135486685Y-116181996D01*
X135538269Y-116250450D01*
X135549840Y-116313281D01*
X135544217Y-116353294D01*
X135515775Y-116410502D01*
X135333230Y-116548060D01*
X135851451Y-115764024D02*
X135623270Y-115935971D01*
X135772399Y-116181347D01*
X135778022Y-116141334D01*
X135806464Y-116084127D01*
X135920554Y-115998153D01*
X135983385Y-115986582D01*
X136023398Y-115992205D01*
X136080606Y-116020647D01*
X136166579Y-116134738D01*
X136178151Y-116197569D01*
X136172527Y-116237582D01*
X136144086Y-116294789D01*
X136029995Y-116380763D01*
X135967164Y-116392334D01*
X135927151Y-116386711D01*
X136307814Y-115420129D02*
X136079633Y-115592077D01*
X136228762Y-115837453D01*
X136234385Y-115797440D01*
X136262827Y-115740232D01*
X136376918Y-115654259D01*
X136439749Y-115642688D01*
X136479761Y-115648311D01*
X136536969Y-115676753D01*
X136622943Y-115790843D01*
X136634514Y-115853674D01*
X136628890Y-115893687D01*
X136600449Y-115950895D01*
X136486358Y-116036868D01*
X136423527Y-116048440D01*
X136383514Y-116042816D01*
X139842995Y-113775905D02*
X139511321Y-113668086D01*
X139569177Y-113982241D02*
X139208088Y-113503060D01*
X139390634Y-113365502D01*
X139453465Y-113353931D01*
X139493477Y-113359554D01*
X139550685Y-113387996D01*
X139602269Y-113456450D01*
X139613840Y-113519281D01*
X139608217Y-113559294D01*
X139579775Y-113616502D01*
X139397230Y-113754060D01*
X139915451Y-112970024D02*
X139687270Y-113141971D01*
X139836399Y-113387347D01*
X139842022Y-113347334D01*
X139870464Y-113290127D01*
X139984554Y-113204153D01*
X140047385Y-113192582D01*
X140087398Y-113198205D01*
X140144606Y-113226647D01*
X140230579Y-113340738D01*
X140242151Y-113403569D01*
X140236527Y-113443582D01*
X140208086Y-113500789D01*
X140093995Y-113586763D01*
X140031164Y-113598334D01*
X139991151Y-113592711D01*
X140469359Y-112803051D02*
X140710085Y-113122505D01*
X140217711Y-112706480D02*
X140361541Y-113134726D01*
X140658177Y-112911194D01*
X147741664Y-128581053D02*
X147579843Y-128272109D01*
X147401622Y-128537209D02*
X147478348Y-127942135D01*
X147705043Y-127971364D01*
X147758063Y-128007008D01*
X147782747Y-128038999D01*
X147803776Y-128099326D01*
X147792815Y-128184337D01*
X147757171Y-128237357D01*
X147725181Y-128262040D01*
X147664853Y-128283069D01*
X147438158Y-128253840D01*
X148356791Y-128055398D02*
X148073422Y-128018861D01*
X148008549Y-128298576D01*
X148040540Y-128273893D01*
X148100867Y-128252863D01*
X148242551Y-128271132D01*
X148295571Y-128306776D01*
X148320255Y-128338766D01*
X148341284Y-128399094D01*
X148323016Y-128540778D01*
X148287372Y-128593798D01*
X148255381Y-128618481D01*
X148195054Y-128639511D01*
X148053370Y-128621243D01*
X148000350Y-128585598D01*
X147975667Y-128553608D01*
X148583486Y-128084627D02*
X148951865Y-128132124D01*
X148724278Y-128333243D01*
X148809289Y-128344204D01*
X148862309Y-128379848D01*
X148886992Y-128411839D01*
X148908021Y-128472166D01*
X148889753Y-128613850D01*
X148854109Y-128666871D01*
X148822119Y-128691554D01*
X148761791Y-128712583D01*
X148591770Y-128690662D01*
X148538750Y-128655017D01*
X148514067Y-128623027D01*
X147339937Y-131246186D02*
X147218951Y-130919085D01*
X147008293Y-131159218D02*
X147160486Y-130578842D01*
X147381582Y-130636820D01*
X147429608Y-130678951D01*
X147449998Y-130713836D01*
X147463141Y-130776357D01*
X147441399Y-130859268D01*
X147399267Y-130907295D01*
X147364383Y-130927684D01*
X147301862Y-130940827D01*
X147080766Y-130882849D01*
X148017233Y-130803507D02*
X147740863Y-130731034D01*
X147640753Y-131000157D01*
X147675637Y-130979767D01*
X147738158Y-130966625D01*
X147876343Y-131002861D01*
X147924370Y-131044993D01*
X147944760Y-131079877D01*
X147957902Y-131142398D01*
X147921666Y-131280583D01*
X147879534Y-131328610D01*
X147844650Y-131349000D01*
X147782129Y-131362142D01*
X147643944Y-131325906D01*
X147595917Y-131283774D01*
X147575527Y-131248890D01*
X148251471Y-130924007D02*
X148286355Y-130903617D01*
X148348877Y-130890474D01*
X148487062Y-130926711D01*
X148535088Y-130968842D01*
X148555478Y-131003727D01*
X148568620Y-131066248D01*
X148554126Y-131121522D01*
X148504747Y-131197185D01*
X148086136Y-131441862D01*
X148445417Y-131536077D01*
X146600696Y-133838065D02*
X146522532Y-133498179D01*
X146282896Y-133709402D02*
X146508056Y-133153252D01*
X146719923Y-133239028D01*
X146762168Y-133286955D01*
X146777929Y-133324160D01*
X146782969Y-133387849D01*
X146750803Y-133467299D01*
X146702876Y-133509543D01*
X146665671Y-133525305D01*
X146601982Y-133530344D01*
X146390115Y-133444569D01*
X147329040Y-133485632D02*
X147064207Y-133378413D01*
X146930504Y-133632524D01*
X146967709Y-133616763D01*
X147031398Y-133611723D01*
X147163815Y-133665333D01*
X147206059Y-133713260D01*
X147221821Y-133750465D01*
X147226860Y-133814154D01*
X147173251Y-133946570D01*
X147125323Y-133988815D01*
X147088118Y-134004576D01*
X147024430Y-134009616D01*
X146892013Y-133956006D01*
X146849768Y-133908079D01*
X146834007Y-133870874D01*
X147660030Y-134266942D02*
X147342230Y-134138279D01*
X147501130Y-134202610D02*
X147726290Y-133646460D01*
X147641157Y-133704467D01*
X147566747Y-133735989D01*
X147503058Y-133741029D01*
X145536085Y-136314136D02*
X145502026Y-135967044D01*
X145237347Y-136145890D02*
X145531777Y-135623098D01*
X145730936Y-135735262D01*
X145766705Y-135788198D01*
X145777579Y-135827113D01*
X145774433Y-135890924D01*
X145732372Y-135965608D01*
X145679436Y-136001377D01*
X145640521Y-136012251D01*
X145576710Y-136009105D01*
X145377552Y-135896941D01*
X146303517Y-136057734D02*
X146054569Y-135917529D01*
X145889469Y-136152457D01*
X145928384Y-136141582D01*
X145992194Y-136144728D01*
X146116668Y-136214831D01*
X146152437Y-136267767D01*
X146163312Y-136306682D01*
X146160166Y-136370492D01*
X146090063Y-136494966D01*
X146037127Y-136530735D01*
X145998212Y-136541610D01*
X145934402Y-136538464D01*
X145809928Y-136468361D01*
X145774159Y-136415425D01*
X145763284Y-136376510D01*
X146652044Y-136254021D02*
X146701834Y-136282062D01*
X146737603Y-136334998D01*
X146748477Y-136373913D01*
X146745331Y-136437723D01*
X146714144Y-136551323D01*
X146644041Y-136675797D01*
X146563065Y-136761356D01*
X146510129Y-136797125D01*
X146471214Y-136807999D01*
X146407403Y-136804853D01*
X146357614Y-136776812D01*
X146321845Y-136723876D01*
X146310970Y-136684961D01*
X146314116Y-136621151D01*
X146345304Y-136507551D01*
X146415406Y-136383077D01*
X146496383Y-136297518D01*
X146549319Y-136261749D01*
X146588234Y-136250875D01*
X146652044Y-136254021D01*
X144163579Y-138633737D02*
X144174185Y-138285140D01*
X143888808Y-138428671D02*
X144247674Y-137947823D01*
X144430855Y-138084534D01*
X144459561Y-138141609D01*
X144465370Y-138181595D01*
X144454089Y-138244479D01*
X144402823Y-138313172D01*
X144345747Y-138341878D01*
X144305761Y-138347687D01*
X144242877Y-138336406D01*
X144059697Y-138199695D01*
X144814978Y-138620772D02*
X144575734Y-138941337D01*
X144837202Y-138352147D02*
X144466381Y-138610166D01*
X144764049Y-138832321D01*
X144850504Y-139146403D02*
X144942095Y-139214759D01*
X145004979Y-139226039D01*
X145044965Y-139220230D01*
X145142027Y-139185716D01*
X145233280Y-139111214D01*
X145369991Y-138928034D01*
X145381271Y-138865150D01*
X145375462Y-138825164D01*
X145346756Y-138768089D01*
X145255166Y-138699733D01*
X145192282Y-138688453D01*
X145152296Y-138694261D01*
X145095220Y-138722968D01*
X145009776Y-138837455D01*
X144998496Y-138900339D01*
X145004304Y-138940326D01*
X145033011Y-138997401D01*
X145124601Y-139065756D01*
X145187485Y-139077037D01*
X145227471Y-139071228D01*
X145284546Y-139042522D01*
X142505719Y-140758782D02*
X142560815Y-140414403D01*
X142259428Y-140520263D02*
X142676837Y-140089253D01*
X142841031Y-140248266D01*
X142862203Y-140308544D01*
X142862851Y-140348945D01*
X142843622Y-140409870D01*
X142783992Y-140471443D01*
X142723714Y-140492614D01*
X142683313Y-140493262D01*
X142622388Y-140474033D01*
X142458194Y-140315020D01*
X143153429Y-140829222D02*
X142875156Y-141116562D01*
X143209820Y-140565645D02*
X142809049Y-140774126D01*
X143075865Y-141032522D01*
X143401015Y-141148544D02*
X143379843Y-141088266D01*
X143379196Y-141047865D01*
X143398425Y-140986940D01*
X143418301Y-140966416D01*
X143478579Y-140945244D01*
X143518980Y-140944596D01*
X143579905Y-140963825D01*
X143662002Y-141043332D01*
X143683174Y-141103609D01*
X143683821Y-141144010D01*
X143664592Y-141204936D01*
X143644716Y-141225460D01*
X143584438Y-141246632D01*
X143544037Y-141247279D01*
X143483112Y-141228050D01*
X143401015Y-141148544D01*
X143340090Y-141129315D01*
X143299689Y-141129962D01*
X143239411Y-141151134D01*
X143159905Y-141233231D01*
X143140676Y-141294156D01*
X143141323Y-141334557D01*
X143162495Y-141394835D01*
X143244592Y-141474342D01*
X143305518Y-141493571D01*
X143345918Y-141492923D01*
X143406196Y-141471751D01*
X143485703Y-141389654D01*
X143504932Y-141328729D01*
X143504284Y-141288328D01*
X143483112Y-141228050D01*
X140589723Y-142654379D02*
X140688406Y-142319873D01*
X140375955Y-142386322D02*
X140845054Y-142012228D01*
X140987566Y-142190933D01*
X141000856Y-142253423D01*
X140996332Y-142293575D01*
X140969470Y-142351541D01*
X140902456Y-142404983D01*
X140839966Y-142418273D01*
X140799814Y-142413749D01*
X140741848Y-142386887D01*
X140599336Y-142208182D01*
X141223108Y-142807068D02*
X140910375Y-143056464D01*
X141312742Y-142552866D02*
X140888601Y-142708385D01*
X141120183Y-142998780D01*
X141539800Y-142883412D02*
X141789196Y-143196145D01*
X141159771Y-143369196D01*
X138447055Y-144289401D02*
X138587703Y-143970261D01*
X138269320Y-143996209D02*
X138782406Y-143685174D01*
X138900896Y-143880635D01*
X138906085Y-143944312D01*
X138896464Y-143983556D01*
X138862410Y-144037611D01*
X138789112Y-144082044D01*
X138725435Y-144087234D01*
X138686192Y-144077613D01*
X138632137Y-144043559D01*
X138513647Y-143848097D01*
X139055714Y-144521832D02*
X138713657Y-144729189D01*
X139177119Y-144281179D02*
X138736573Y-144381184D01*
X138929119Y-144698808D01*
X139522967Y-144906806D02*
X139463722Y-144809076D01*
X139409667Y-144775022D01*
X139370423Y-144765400D01*
X139267503Y-144760969D01*
X139154961Y-144795781D01*
X138959500Y-144914271D01*
X138925445Y-144968326D01*
X138915824Y-145007570D01*
X138921014Y-145071246D01*
X138980259Y-145168977D01*
X139034314Y-145203031D01*
X139073558Y-145212652D01*
X139137234Y-145207462D01*
X139259397Y-145133406D01*
X139293451Y-145079351D01*
X139303073Y-145040107D01*
X139297883Y-144976431D01*
X139238638Y-144878700D01*
X139184583Y-144844646D01*
X139145339Y-144835025D01*
X139081663Y-144840215D01*
X136112897Y-145637000D02*
X136293201Y-145338465D01*
X135974114Y-145323487D02*
X136522762Y-145080617D01*
X136615284Y-145289626D01*
X136612288Y-145353443D01*
X136597727Y-145391135D01*
X136557040Y-145440391D01*
X136478662Y-145475087D01*
X136414845Y-145472091D01*
X136377153Y-145457530D01*
X136327897Y-145416844D01*
X136235375Y-145207835D01*
X136686836Y-145945356D02*
X136321071Y-146107270D01*
X136838019Y-145722204D02*
X136388302Y-145765052D01*
X136538650Y-146104691D01*
X137112589Y-146413047D02*
X136996937Y-146151786D01*
X136724111Y-146241313D01*
X136761802Y-146255874D01*
X136811058Y-146296560D01*
X136868885Y-146427191D01*
X136865889Y-146491008D01*
X136851328Y-146528700D01*
X136810641Y-146577956D01*
X136680011Y-146635782D01*
X136616194Y-146632787D01*
X136578502Y-146618226D01*
X136529246Y-146577539D01*
X136471419Y-146446909D01*
X136474415Y-146383091D01*
X136488976Y-146345400D01*
X133625574Y-146675052D02*
X133842574Y-146402024D01*
X133528022Y-146346365D02*
X134103223Y-146175649D01*
X134168258Y-146394773D01*
X134157126Y-146457683D01*
X134137865Y-146493203D01*
X134091213Y-146536852D01*
X134009041Y-146561240D01*
X133946131Y-146550109D01*
X133910611Y-146530848D01*
X133866962Y-146484196D01*
X133801927Y-146265072D01*
X134155370Y-147054270D02*
X133771903Y-147168081D01*
X134333847Y-146852282D02*
X133882343Y-146837270D01*
X133988024Y-147193347D01*
X134317957Y-147602080D02*
X133934490Y-147715891D01*
X134496434Y-147400092D02*
X134044930Y-147385080D01*
X134150612Y-147741157D01*
X131025930Y-147386507D02*
X131276062Y-147143471D01*
X130971210Y-147048045D02*
X131563519Y-146952285D01*
X131599999Y-147177927D01*
X131580914Y-147238897D01*
X131557269Y-147271662D01*
X131505418Y-147308987D01*
X131420803Y-147322667D01*
X131359833Y-147303582D01*
X131327067Y-147279937D01*
X131289742Y-147228087D01*
X131253262Y-147002445D01*
X131502883Y-147830361D02*
X131108010Y-147894201D01*
X131705724Y-147652855D02*
X131259847Y-147580229D01*
X131319126Y-147946896D01*
X131741359Y-148052288D02*
X131800639Y-148418955D01*
X131543078Y-148257999D01*
X131556758Y-148342614D01*
X131537672Y-148403585D01*
X131514027Y-148436350D01*
X131462177Y-148473675D01*
X131321151Y-148496475D01*
X131260180Y-148477390D01*
X131227415Y-148453745D01*
X131190090Y-148401894D01*
X131162730Y-148232663D01*
X131181815Y-148171693D01*
X131205461Y-148138928D01*
X128356650Y-147759688D02*
X128635807Y-147550633D01*
X128345661Y-147417007D02*
X128945352Y-147397776D01*
X128952678Y-147626230D01*
X128925953Y-147684259D01*
X128898312Y-147713732D01*
X128842114Y-147744120D01*
X128756444Y-147746867D01*
X128698415Y-147720142D01*
X128668942Y-147692501D01*
X128638554Y-147636304D01*
X128631228Y-147407850D01*
X128772928Y-148260889D02*
X128373133Y-148273710D01*
X128996803Y-148110779D02*
X128563873Y-147981732D01*
X128575778Y-148352970D01*
X128924869Y-148541878D02*
X128954342Y-148569519D01*
X128984730Y-148625716D01*
X128989309Y-148768500D01*
X128962583Y-148826529D01*
X128934942Y-148856002D01*
X128878745Y-148886390D01*
X128821631Y-148888222D01*
X128735045Y-148862412D01*
X128381375Y-148530720D01*
X128393280Y-148901958D01*
X126127837Y-148608455D02*
X125824239Y-148780096D01*
X126094915Y-148949728D02*
X125497688Y-148892114D01*
X125519636Y-148664599D01*
X125553562Y-148610463D01*
X125584745Y-148584767D01*
X125644368Y-148561815D01*
X125729686Y-148570046D01*
X125783821Y-148603972D01*
X125809517Y-148635155D01*
X125832469Y-148694777D01*
X125810521Y-148922293D01*
X125779069Y-148058136D02*
X126177221Y-148096546D01*
X125537836Y-148178385D02*
X125950710Y-148361735D01*
X125986375Y-147992023D01*
X126237578Y-147470879D02*
X126204656Y-147812152D01*
X126221117Y-147641515D02*
X125623889Y-147583901D01*
X125703721Y-147649011D01*
X125755112Y-147711376D01*
X125778065Y-147770999D01*
X123342511Y-148345248D02*
X123019456Y-148476656D01*
X123266218Y-148679509D02*
X122681262Y-148545996D01*
X122732124Y-148323155D01*
X122772694Y-148273803D01*
X122806907Y-148252306D01*
X122868975Y-148237166D01*
X122952540Y-148256239D01*
X123001893Y-148296810D01*
X123023390Y-148331023D01*
X123038529Y-148393091D01*
X122987668Y-148615931D01*
X123066979Y-147754848D02*
X123456951Y-147843856D01*
X122812350Y-147843261D02*
X123198388Y-148077903D01*
X123281038Y-147715787D01*
X122967360Y-147292517D02*
X122980075Y-147236807D01*
X123020646Y-147187455D01*
X123054859Y-147165957D01*
X123116927Y-147150818D01*
X123234705Y-147148394D01*
X123373980Y-147180182D01*
X123479043Y-147233468D01*
X123528395Y-147274039D01*
X123549893Y-147308252D01*
X123565032Y-147370320D01*
X123552317Y-147426030D01*
X123511746Y-147475382D01*
X123477533Y-147496880D01*
X123415465Y-147512019D01*
X123297687Y-147514443D01*
X123158412Y-147482655D01*
X123053349Y-147429369D01*
X123003997Y-147388798D01*
X122982500Y-147354585D01*
X122967360Y-147292517D01*
X120613709Y-147728023D02*
X120276503Y-147817041D01*
X120495299Y-148049784D02*
X119932217Y-147842565D01*
X120011158Y-147628058D01*
X120057707Y-147584298D01*
X120094388Y-147567353D01*
X120157882Y-147560274D01*
X120238322Y-147589877D01*
X120282081Y-147636426D01*
X120299027Y-147673107D01*
X120306105Y-147736601D01*
X120227165Y-147951108D01*
X120119701Y-147333110D02*
X120247980Y-146984536D01*
X120393414Y-147251171D01*
X120423017Y-147170731D01*
X120469565Y-147126971D01*
X120506246Y-147110026D01*
X120569740Y-147102947D01*
X120703807Y-147152285D01*
X120747567Y-147198834D01*
X120764512Y-147235515D01*
X120771591Y-147299009D01*
X120712385Y-147459889D01*
X120665837Y-147503648D01*
X120629156Y-147520594D01*
X120909737Y-146923622D02*
X120949207Y-146816368D01*
X120942129Y-146752874D01*
X120925183Y-146716193D01*
X120864478Y-146632963D01*
X120767092Y-146566680D01*
X120552585Y-146487739D01*
X120489090Y-146494817D01*
X120452410Y-146511763D01*
X120405861Y-146555522D01*
X120366391Y-146662776D01*
X120373469Y-146726270D01*
X120390415Y-146762951D01*
X120434174Y-146809500D01*
X120568241Y-146858838D01*
X120631735Y-146851759D01*
X120668416Y-146834813D01*
X120714965Y-146791054D01*
X120754435Y-146683801D01*
X120747357Y-146620306D01*
X120730411Y-146583625D01*
X120686652Y-146537077D01*
X117986241Y-146766915D02*
X117640420Y-146812081D01*
X117827657Y-147070892D02*
X117295697Y-146793369D01*
X117401420Y-146590717D01*
X117453182Y-146553270D01*
X117491729Y-146541154D01*
X117555607Y-146542253D01*
X117631602Y-146581899D01*
X117669049Y-146633661D01*
X117681165Y-146672208D01*
X117680066Y-146736086D01*
X117574343Y-146938738D01*
X117546789Y-146312072D02*
X117718589Y-145982763D01*
X117828733Y-146265806D01*
X117868379Y-146189812D01*
X117920141Y-146152365D01*
X117958688Y-146140249D01*
X118022566Y-146141348D01*
X118149223Y-146207425D01*
X118186671Y-146259187D01*
X118198787Y-146297734D01*
X118197687Y-146361612D01*
X118118395Y-146513601D01*
X118066633Y-146551048D01*
X118028086Y-146563164D01*
X118105157Y-145797725D02*
X118053394Y-145835172D01*
X118014848Y-145847288D01*
X117950969Y-145846189D01*
X117925638Y-145832974D01*
X117888191Y-145781212D01*
X117876074Y-145742665D01*
X117877174Y-145678787D01*
X117930035Y-145577461D01*
X117981798Y-145540013D01*
X118020344Y-145527897D01*
X118084222Y-145528997D01*
X118109554Y-145542212D01*
X118147001Y-145593974D01*
X118159117Y-145632521D01*
X118158018Y-145696399D01*
X118105157Y-145797725D01*
X118104057Y-145861603D01*
X118116173Y-145900150D01*
X118153621Y-145951912D01*
X118254946Y-146004774D01*
X118318824Y-146005873D01*
X118357371Y-145993757D01*
X118409133Y-145956310D01*
X118461995Y-145854984D01*
X118463094Y-145791106D01*
X118450978Y-145752559D01*
X118413531Y-145700797D01*
X118312205Y-145647935D01*
X118248327Y-145646836D01*
X118209780Y-145658952D01*
X118158018Y-145696399D01*
X115503249Y-145477702D02*
X115154491Y-145478275D01*
X115307095Y-145758904D02*
X114814991Y-145415634D01*
X114945761Y-145228166D01*
X115001887Y-145197646D01*
X115041667Y-145190558D01*
X115104880Y-145199817D01*
X115175180Y-145248856D01*
X115205701Y-145304982D01*
X115212788Y-145344761D01*
X115203529Y-145407975D01*
X115072760Y-145595442D01*
X115125569Y-144970398D02*
X115338070Y-144665763D01*
X115411114Y-144960567D01*
X115460153Y-144890266D01*
X115516279Y-144859745D01*
X115556058Y-144852658D01*
X115619271Y-144861917D01*
X115736439Y-144943648D01*
X115766960Y-144999774D01*
X115774047Y-145039553D01*
X115764788Y-145102767D01*
X115666711Y-145243368D01*
X115610585Y-145273888D01*
X115570805Y-145280976D01*
X115452493Y-144501728D02*
X115681340Y-144173659D01*
X116026327Y-144727831D01*
X113205501Y-143881558D02*
X112859533Y-143837528D01*
X112974998Y-144135368D02*
X112530831Y-143731987D01*
X112684500Y-143562781D01*
X112744068Y-143539688D01*
X112784427Y-143537745D01*
X112845937Y-143555012D01*
X112909390Y-143612638D01*
X112932483Y-143672206D01*
X112934425Y-143712565D01*
X112917159Y-143774075D01*
X112763490Y-143943282D01*
X112895794Y-143330122D02*
X113145506Y-143055161D01*
X113180252Y-143356886D01*
X113237878Y-143293433D01*
X113297446Y-143270340D01*
X113337806Y-143268398D01*
X113399316Y-143285665D01*
X113505070Y-143381708D01*
X113528163Y-143441276D01*
X113530105Y-143481635D01*
X113512839Y-143543145D01*
X113397587Y-143670050D01*
X113338019Y-143693143D01*
X113297660Y-143695085D01*
X113491261Y-142674447D02*
X113414427Y-142759050D01*
X113397160Y-142820560D01*
X113399102Y-142860920D01*
X113424138Y-142960847D01*
X113489532Y-143058832D01*
X113658739Y-143212501D01*
X113720249Y-143229768D01*
X113760608Y-143227825D01*
X113820176Y-143204732D01*
X113897011Y-143120129D01*
X113914277Y-143058619D01*
X113912335Y-143018260D01*
X113889242Y-142958692D01*
X113783488Y-142862649D01*
X113721978Y-142845382D01*
X113681618Y-142847324D01*
X113622050Y-142870417D01*
X113545216Y-142955021D01*
X113527949Y-143016531D01*
X113529892Y-143056890D01*
X113552985Y-143116458D01*
X111130730Y-142004688D02*
X110793232Y-141916777D01*
X110869662Y-142226937D02*
X110480725Y-141770070D01*
X110654770Y-141621903D01*
X110716802Y-141606617D01*
X110757079Y-141609852D01*
X110815876Y-141634842D01*
X110871438Y-141700109D01*
X110886724Y-141762141D01*
X110883490Y-141802418D01*
X110858499Y-141861215D01*
X110684454Y-142009381D01*
X110894082Y-141418174D02*
X111176905Y-141177404D01*
X111172782Y-141481094D01*
X111238049Y-141425532D01*
X111300081Y-141410246D01*
X111340357Y-141413481D01*
X111399154Y-141438471D01*
X111491758Y-141547249D01*
X111507044Y-141609281D01*
X111503810Y-141649557D01*
X111478819Y-141708355D01*
X111348286Y-141819480D01*
X111286254Y-141834766D01*
X111245977Y-141831531D01*
X111590261Y-140825508D02*
X111372705Y-141010717D01*
X111536157Y-141246793D01*
X111539392Y-141206517D01*
X111564383Y-141147720D01*
X111673161Y-141055116D01*
X111735193Y-141039830D01*
X111775469Y-141043064D01*
X111834266Y-141068055D01*
X111926870Y-141176833D01*
X111942156Y-141238865D01*
X111938922Y-141279141D01*
X111913931Y-141337938D01*
X111805153Y-141430542D01*
X111743121Y-141445829D01*
X111702845Y-141442594D01*
X109313001Y-139877910D02*
X108989516Y-139747563D01*
X109025656Y-140064951D02*
X108698335Y-139562098D01*
X108889898Y-139437404D01*
X108953376Y-139430176D01*
X108992908Y-139438535D01*
X109048027Y-139470839D01*
X109094787Y-139542675D01*
X109102015Y-139606152D01*
X109093656Y-139645684D01*
X109061352Y-139700803D01*
X108869789Y-139825497D01*
X109153297Y-139265950D02*
X109464587Y-139063323D01*
X109421663Y-139363993D01*
X109493499Y-139317233D01*
X109556977Y-139310005D01*
X109596509Y-139318364D01*
X109651628Y-139350668D01*
X109729561Y-139470394D01*
X109736789Y-139533872D01*
X109728431Y-139573404D01*
X109696127Y-139628523D01*
X109552454Y-139722043D01*
X109488977Y-139729271D01*
X109449445Y-139720912D01*
X110004711Y-138950380D02*
X110222925Y-139285615D01*
X109760290Y-138836750D02*
X109874364Y-139273865D01*
X110185654Y-139071237D01*
X107782161Y-137536149D02*
X107478001Y-137365506D01*
X107473258Y-137684909D02*
X107212928Y-137144328D01*
X107418863Y-137045155D01*
X107482744Y-137046103D01*
X107520883Y-137059449D01*
X107571418Y-137098536D01*
X107608608Y-137175762D01*
X107607659Y-137239642D01*
X107594314Y-137277781D01*
X107555227Y-137328316D01*
X107349291Y-137427490D01*
X107702025Y-136908791D02*
X108036670Y-136747634D01*
X107955650Y-137040347D01*
X108032876Y-137003157D01*
X108096757Y-137004106D01*
X108134895Y-137017451D01*
X108185431Y-137056538D01*
X108247414Y-137185248D01*
X108246465Y-137249129D01*
X108233120Y-137287267D01*
X108194033Y-137337802D01*
X108039581Y-137412183D01*
X107975700Y-137411234D01*
X107937562Y-137397889D01*
X108216864Y-136660858D02*
X108551510Y-136499701D01*
X108470489Y-136792413D01*
X108547715Y-136755223D01*
X108611596Y-136756172D01*
X108649735Y-136769517D01*
X108700270Y-136808605D01*
X108762253Y-136937314D01*
X108761305Y-137001195D01*
X108747959Y-137039334D01*
X108708872Y-137089869D01*
X108554420Y-137164249D01*
X108490540Y-137163300D01*
X108452401Y-137149955D01*
X106563349Y-135017852D02*
X106283506Y-134809715D01*
X106237958Y-135125889D02*
X106048893Y-134556456D01*
X106265820Y-134484431D01*
X106329055Y-134493541D01*
X106365174Y-134511653D01*
X106410296Y-134556882D01*
X106437305Y-134638230D01*
X106428196Y-134701465D01*
X106410083Y-134737584D01*
X106364854Y-134782706D01*
X106147927Y-134854730D01*
X106564095Y-134385397D02*
X106916601Y-134268357D01*
X106798815Y-134548305D01*
X106880162Y-134521296D01*
X106943397Y-134530406D01*
X106979516Y-134548519D01*
X107024638Y-134593747D01*
X107069654Y-134729327D01*
X107060544Y-134792562D01*
X107042431Y-134828681D01*
X106997203Y-134873803D01*
X106834507Y-134927821D01*
X106771272Y-134918711D01*
X106735153Y-134900599D01*
X107151534Y-134250564D02*
X107169647Y-134214445D01*
X107214876Y-134169323D01*
X107350455Y-134124307D01*
X107413690Y-134133417D01*
X107449809Y-134151530D01*
X107494931Y-134196758D01*
X107512937Y-134250990D01*
X107512831Y-134341341D01*
X107295477Y-134774769D01*
X107647984Y-134657728D01*
X105676574Y-132364373D02*
X105425645Y-132122160D01*
X105340039Y-132429913D02*
X105225344Y-131840978D01*
X105449701Y-131797285D01*
X105511251Y-131814406D01*
X105544758Y-131836989D01*
X105583726Y-131887616D01*
X105600111Y-131971750D01*
X105582989Y-132033300D01*
X105560407Y-132066807D01*
X105509779Y-132105775D01*
X105285423Y-132149468D01*
X105758191Y-131737206D02*
X106122770Y-131666204D01*
X105970151Y-131928792D01*
X106054285Y-131912407D01*
X106115836Y-131929529D01*
X106149342Y-131952111D01*
X106188310Y-132002739D01*
X106215618Y-132142962D01*
X106198497Y-132204512D01*
X106175914Y-132238019D01*
X106125287Y-132276987D01*
X105957019Y-132309757D01*
X105895469Y-132292635D01*
X105861963Y-132270052D01*
X106798356Y-132145906D02*
X106461821Y-132211446D01*
X106630089Y-132178676D02*
X106515393Y-131589741D01*
X106475689Y-131684798D01*
X106430524Y-131751810D01*
X106379896Y-131790778D01*
X105136398Y-129619281D02*
X104918503Y-129346968D01*
X104794245Y-129641248D02*
X104755803Y-129042481D01*
X104983905Y-129027836D01*
X105042761Y-129052688D01*
X105073104Y-129079370D01*
X105105278Y-129134565D01*
X105110770Y-129220103D01*
X105085919Y-129278959D01*
X105059236Y-129309302D01*
X105004042Y-129341476D01*
X104775940Y-129356121D01*
X105297545Y-129007700D02*
X105668211Y-128983902D01*
X105483266Y-129224818D01*
X105568804Y-129219327D01*
X105627660Y-129244178D01*
X105658004Y-129270860D01*
X105690178Y-129326055D01*
X105699330Y-129468619D01*
X105674479Y-129527475D01*
X105647797Y-129557818D01*
X105592602Y-129589992D01*
X105421525Y-129600975D01*
X105362669Y-129576124D01*
X105332326Y-129549442D01*
X106038876Y-128960105D02*
X106095901Y-128956444D01*
X106154757Y-128981295D01*
X106185101Y-129007977D01*
X106217275Y-129063172D01*
X106253110Y-129175393D01*
X106262263Y-129317956D01*
X106241072Y-129433838D01*
X106216221Y-129492694D01*
X106189538Y-129523037D01*
X106134344Y-129555211D01*
X106077318Y-129558872D01*
X106018462Y-129534021D01*
X105988119Y-129507338D01*
X105955945Y-129452144D01*
X105920110Y-129339923D01*
X105910957Y-129197360D01*
X105932147Y-129081478D01*
X105956999Y-129022622D01*
X105983681Y-128992279D01*
X106038876Y-128960105D01*
X104951693Y-126827651D02*
X104770410Y-126529709D01*
X104609541Y-126805684D02*
X104647983Y-126206916D01*
X104876084Y-126221561D01*
X104931279Y-126253735D01*
X104957961Y-126284078D01*
X104982813Y-126342934D01*
X104977321Y-126428472D01*
X104945147Y-126483667D01*
X104914804Y-126510349D01*
X104855948Y-126535201D01*
X104627846Y-126520556D01*
X105214576Y-126300553D02*
X105244919Y-126273871D01*
X105303775Y-126249020D01*
X105446339Y-126258173D01*
X105501534Y-126290346D01*
X105528216Y-126320690D01*
X105553068Y-126379546D01*
X105549406Y-126436571D01*
X105515402Y-126520279D01*
X105151282Y-126840465D01*
X105521948Y-126864262D01*
X105807075Y-126882568D02*
X105921126Y-126889890D01*
X105979982Y-126865039D01*
X106010325Y-126838357D01*
X106072842Y-126756479D01*
X106108677Y-126644259D01*
X106123322Y-126416157D01*
X106098470Y-126357301D01*
X106071788Y-126326958D01*
X106016593Y-126294784D01*
X105902543Y-126287462D01*
X105843687Y-126312313D01*
X105813343Y-126338996D01*
X105781169Y-126394190D01*
X105772016Y-126536754D01*
X105796868Y-126595610D01*
X105823550Y-126625953D01*
X105878745Y-126658127D01*
X105992796Y-126665450D01*
X106051652Y-126640598D01*
X106081995Y-126613916D01*
X106114169Y-126558721D01*
X105125490Y-124035319D02*
X104983795Y-123716642D01*
X104788956Y-123969779D02*
X104903651Y-123380843D01*
X105128007Y-123424537D01*
X105178635Y-123463505D01*
X105201217Y-123497011D01*
X105218339Y-123558562D01*
X105201954Y-123642695D01*
X105162986Y-123693323D01*
X105129480Y-123715906D01*
X105067929Y-123733027D01*
X104843572Y-123689334D01*
X105453618Y-123546166D02*
X105487125Y-123523583D01*
X105548675Y-123506462D01*
X105688898Y-123533770D01*
X105739526Y-123572738D01*
X105762108Y-123606245D01*
X105779230Y-123667795D01*
X105768306Y-123723884D01*
X105723877Y-123802556D01*
X105321802Y-124073551D01*
X105686381Y-124144553D01*
X106088456Y-123873558D02*
X106037828Y-123834590D01*
X106015246Y-123801084D01*
X105998124Y-123739533D01*
X106003586Y-123711489D01*
X106042554Y-123660861D01*
X106076060Y-123638278D01*
X106137611Y-123621157D01*
X106249789Y-123643004D01*
X106300416Y-123681972D01*
X106322999Y-123715478D01*
X106340121Y-123777029D01*
X106334659Y-123805073D01*
X106295691Y-123855701D01*
X106262185Y-123878284D01*
X106200634Y-123895405D01*
X106088456Y-123873558D01*
X106026905Y-123890679D01*
X105993399Y-123913262D01*
X105954431Y-123963890D01*
X105932584Y-124076068D01*
X105949705Y-124137619D01*
X105972288Y-124171125D01*
X106022916Y-124210093D01*
X106135094Y-124231939D01*
X106196645Y-124214818D01*
X106230151Y-124192235D01*
X106269119Y-124141608D01*
X106290965Y-124029430D01*
X106273844Y-123967879D01*
X106251261Y-123934373D01*
X106200634Y-123895405D01*
X105654936Y-121288138D02*
X105555156Y-120953957D01*
X105329545Y-121180101D02*
X105518610Y-120610667D01*
X105735537Y-120682692D01*
X105780766Y-120727814D01*
X105798879Y-120763933D01*
X105807988Y-120827168D01*
X105780979Y-120908515D01*
X105735857Y-120953744D01*
X105699738Y-120971857D01*
X105636503Y-120980966D01*
X105419576Y-120908942D01*
X106042922Y-120844961D02*
X106079041Y-120826848D01*
X106142275Y-120817738D01*
X106277855Y-120862754D01*
X106323083Y-120907876D01*
X106341196Y-120943995D01*
X106350306Y-121007230D01*
X106332300Y-121061461D01*
X106278175Y-121133806D01*
X105844747Y-121351159D01*
X106197253Y-121468199D01*
X106576129Y-120961788D02*
X106955752Y-121087831D01*
X106522644Y-121576237D01*
X106531336Y-118631214D02*
X106475110Y-118287018D01*
X106222433Y-118482454D02*
X106482763Y-117941873D01*
X106688699Y-118041046D01*
X106727786Y-118091581D01*
X106741131Y-118129720D01*
X106742080Y-118193601D01*
X106704890Y-118270826D01*
X106654355Y-118309914D01*
X106616216Y-118323259D01*
X106552335Y-118324208D01*
X106346400Y-118225034D01*
X106972809Y-118241290D02*
X107010948Y-118227945D01*
X107074828Y-118226996D01*
X107203538Y-118288980D01*
X107242625Y-118339515D01*
X107255971Y-118377654D01*
X107256919Y-118441534D01*
X107232126Y-118493018D01*
X107169194Y-118557847D01*
X106711530Y-118717991D01*
X107046176Y-118879148D01*
X107769862Y-118561706D02*
X107666894Y-118512120D01*
X107603013Y-118513068D01*
X107564874Y-118526414D01*
X107476200Y-118578846D01*
X107400872Y-118669417D01*
X107301698Y-118875353D01*
X107302647Y-118939234D01*
X107315992Y-118977372D01*
X107355079Y-119027908D01*
X107458047Y-119077494D01*
X107521928Y-119076546D01*
X107560067Y-119063201D01*
X107610602Y-119024113D01*
X107672585Y-118895403D01*
X107671637Y-118831523D01*
X107658291Y-118793384D01*
X107619204Y-118742849D01*
X107516236Y-118693262D01*
X107452356Y-118694211D01*
X107414217Y-118707556D01*
X107363682Y-118746643D01*
X107740301Y-116108176D02*
X107728551Y-115759615D01*
X107452957Y-115921135D02*
X107780278Y-115418283D01*
X107971841Y-115542976D01*
X108004145Y-115598095D01*
X108012503Y-115637627D01*
X108005275Y-115701105D01*
X107958515Y-115772941D01*
X107903396Y-115805245D01*
X107863864Y-115813603D01*
X107800387Y-115806375D01*
X107608824Y-115681682D01*
X108228012Y-115777908D02*
X108267544Y-115769549D01*
X108331021Y-115776777D01*
X108450748Y-115854710D01*
X108483052Y-115909829D01*
X108491411Y-115949361D01*
X108484183Y-116012839D01*
X108453009Y-116060730D01*
X108382304Y-116116979D01*
X107907919Y-116217283D01*
X108219209Y-116419910D01*
X109001492Y-116213205D02*
X108762038Y-116057338D01*
X108582225Y-116281205D01*
X108621758Y-116272846D01*
X108685235Y-116280074D01*
X108804962Y-116358008D01*
X108837266Y-116413126D01*
X108845625Y-116452659D01*
X108838397Y-116516136D01*
X108760463Y-116635863D01*
X108705344Y-116668167D01*
X108665812Y-116676526D01*
X108602335Y-116669298D01*
X108482608Y-116591364D01*
X108450304Y-116536245D01*
X108441945Y-116496713D01*
X109261980Y-113760451D02*
X109294899Y-113413249D01*
X109000913Y-113538201D02*
X109389850Y-113081333D01*
X109563895Y-113229500D01*
X109588885Y-113288297D01*
X109592120Y-113328574D01*
X109576834Y-113390606D01*
X109521272Y-113455872D01*
X109462474Y-113480863D01*
X109422198Y-113484098D01*
X109360166Y-113468812D01*
X109186121Y-113320645D01*
X109787920Y-113495261D02*
X109828197Y-113492026D01*
X109890229Y-113507312D01*
X109999007Y-113599916D01*
X110023997Y-113658713D01*
X110027232Y-113698990D01*
X110011946Y-113761022D01*
X109974904Y-113804533D01*
X109897586Y-113851279D01*
X109414269Y-113890096D01*
X109697092Y-114130867D01*
X110347984Y-114159663D02*
X110088693Y-114464242D01*
X110387373Y-113893014D02*
X110000783Y-114126744D01*
X110283605Y-114367515D01*
X111071386Y-111626587D02*
X111148434Y-111286446D01*
X110840883Y-111372778D02*
X111285049Y-110969397D01*
X111438718Y-111138604D01*
X111455985Y-111200114D01*
X111454042Y-111240473D01*
X111430949Y-111300041D01*
X111367497Y-111357667D01*
X111305987Y-111374933D01*
X111265627Y-111372991D01*
X111206059Y-111349898D01*
X111052391Y-111180692D01*
X111626920Y-111430830D02*
X111667279Y-111432773D01*
X111726847Y-111455866D01*
X111822890Y-111561620D01*
X111840157Y-111623130D01*
X111838214Y-111663489D01*
X111815121Y-111723057D01*
X111772820Y-111761474D01*
X111690159Y-111797949D01*
X111205846Y-111774643D01*
X111455558Y-112049603D01*
X112034185Y-111794278D02*
X112283897Y-112069239D01*
X111980230Y-112074852D01*
X112037856Y-112138304D01*
X112055122Y-112199815D01*
X112053180Y-112240174D01*
X112030087Y-112299742D01*
X111924333Y-112395785D01*
X111862823Y-112413051D01*
X111822463Y-112411109D01*
X111762895Y-112388016D01*
X111647644Y-112261111D01*
X111630377Y-112199601D01*
X111632320Y-112159242D01*
X113138809Y-109741625D02*
X113258720Y-109414129D01*
X112942654Y-109460423D02*
X113434758Y-109117153D01*
X113565527Y-109304621D01*
X113574786Y-109367834D01*
X113567699Y-109407614D01*
X113537178Y-109463740D01*
X113466878Y-109512778D01*
X113403664Y-109522037D01*
X113363885Y-109514950D01*
X113307759Y-109484429D01*
X113176989Y-109296961D01*
X113714815Y-109618515D02*
X113754594Y-109625603D01*
X113810720Y-109656124D01*
X113892451Y-109773291D01*
X113901710Y-109836504D01*
X113894623Y-109876284D01*
X113864102Y-109932410D01*
X113817235Y-109965102D01*
X113730588Y-109990707D01*
X113253232Y-109905660D01*
X113465733Y-110210295D01*
X114041738Y-110087185D02*
X114081518Y-110094273D01*
X114137644Y-110124793D01*
X114219375Y-110241961D01*
X114228634Y-110305174D01*
X114221547Y-110344954D01*
X114191026Y-110401080D01*
X114144159Y-110433772D01*
X114057512Y-110459377D01*
X113580156Y-110374329D01*
X113792656Y-110678965D01*
X115430302Y-108136516D02*
X115591109Y-107827042D01*
X115271718Y-107832539D02*
X115803678Y-107555016D01*
X115909401Y-107757667D01*
X115910500Y-107821545D01*
X115898384Y-107860092D01*
X115860936Y-107911854D01*
X115784942Y-107951500D01*
X115721064Y-107952600D01*
X115682517Y-107940484D01*
X115630755Y-107903036D01*
X115525032Y-107700385D01*
X116017322Y-108088075D02*
X116055869Y-108100191D01*
X116107631Y-108137638D01*
X116173708Y-108264295D01*
X116174808Y-108328173D01*
X116162691Y-108366720D01*
X116125244Y-108418482D01*
X116074581Y-108444913D01*
X115985372Y-108459228D01*
X115522810Y-108313835D01*
X115694610Y-108643144D01*
X115958918Y-109149772D02*
X115800333Y-108845795D01*
X115879625Y-108997783D02*
X116411585Y-108720261D01*
X116309160Y-108709244D01*
X116232066Y-108685012D01*
X116180304Y-108647564D01*
X117908239Y-106837613D02*
X118107300Y-106551243D01*
X117789828Y-106515852D02*
X118352909Y-106308633D01*
X118431850Y-106523140D01*
X118424772Y-106586635D01*
X118407826Y-106623315D01*
X118364067Y-106669864D01*
X118283626Y-106699467D01*
X118220132Y-106692389D01*
X118183451Y-106675443D01*
X118136903Y-106631684D01*
X118057962Y-106417176D01*
X118496634Y-106864636D02*
X118533315Y-106881582D01*
X118579863Y-106925341D01*
X118629201Y-107059408D01*
X118622123Y-107122902D01*
X118605177Y-107159583D01*
X118561418Y-107206132D01*
X118507791Y-107225867D01*
X118417484Y-107228656D01*
X117977312Y-107025306D01*
X118105591Y-107373880D01*
X118796950Y-107515235D02*
X118816685Y-107568862D01*
X118809607Y-107632356D01*
X118792661Y-107669037D01*
X118748902Y-107715586D01*
X118651516Y-107781870D01*
X118517449Y-107831208D01*
X118400328Y-107843864D01*
X118336834Y-107836786D01*
X118300153Y-107819840D01*
X118253604Y-107776081D01*
X118233869Y-107722454D01*
X118240947Y-107658960D01*
X118257893Y-107622279D01*
X118301652Y-107575731D01*
X118399038Y-107509447D01*
X118533105Y-107460109D01*
X118650226Y-107447452D01*
X118713721Y-107454530D01*
X118750402Y-107471476D01*
X118796950Y-107515235D01*
X120531933Y-105866245D02*
X120765979Y-105607682D01*
X120455640Y-105531984D02*
X121040597Y-105398472D01*
X121091458Y-105621313D01*
X121076319Y-105683380D01*
X121054822Y-105717593D01*
X121005469Y-105758164D01*
X120921904Y-105777237D01*
X120859836Y-105762097D01*
X120825623Y-105740600D01*
X120785053Y-105691248D01*
X120734191Y-105468407D01*
X120659088Y-106423347D02*
X120582795Y-106089086D01*
X120620941Y-106256217D02*
X121205898Y-106122704D01*
X121109617Y-106086067D01*
X121041191Y-106043072D01*
X121000621Y-105993720D01*
X120722665Y-106701898D02*
X120748096Y-106813318D01*
X120788666Y-106862671D01*
X120822879Y-106884168D01*
X120919160Y-106920805D01*
X121036938Y-106923229D01*
X121259779Y-106872367D01*
X121309131Y-106831797D01*
X121330629Y-106797584D01*
X121345768Y-106735516D01*
X121320337Y-106624096D01*
X121279767Y-106574743D01*
X121245554Y-106553246D01*
X121183486Y-106538106D01*
X121044210Y-106569895D01*
X120994858Y-106610465D01*
X120973361Y-106644678D01*
X120958221Y-106706746D01*
X120983652Y-106818166D01*
X121024223Y-106867519D01*
X121058435Y-106889016D01*
X121120503Y-106904156D01*
X123258301Y-105238364D02*
X123523490Y-105011853D01*
X123225379Y-104897091D02*
X123822606Y-104839477D01*
X123844554Y-105066993D01*
X123821602Y-105126615D01*
X123795906Y-105157798D01*
X123741771Y-105191724D01*
X123656452Y-105199955D01*
X123596830Y-105177002D01*
X123565647Y-105151306D01*
X123531721Y-105097171D01*
X123509773Y-104869656D01*
X123313171Y-105807152D02*
X123280249Y-105465879D01*
X123296710Y-105636516D02*
X123893937Y-105578902D01*
X123803132Y-105530254D01*
X123740766Y-105478862D01*
X123706840Y-105424726D01*
X123687366Y-106115503D02*
X123710318Y-106055880D01*
X123736014Y-106024697D01*
X123790150Y-105990771D01*
X123818589Y-105988027D01*
X123878211Y-106010980D01*
X123909394Y-106036676D01*
X123943321Y-106090811D01*
X123954295Y-106204569D01*
X123931342Y-106264191D01*
X123905646Y-106295374D01*
X123851511Y-106329300D01*
X123823072Y-106332044D01*
X123763449Y-106309091D01*
X123732267Y-106283396D01*
X123698340Y-106229260D01*
X123687366Y-106115503D01*
X123653440Y-106061367D01*
X123622257Y-106035671D01*
X123562634Y-106012719D01*
X123448877Y-106023693D01*
X123394741Y-106057620D01*
X123369046Y-106088803D01*
X123346093Y-106148425D01*
X123357067Y-106262182D01*
X123390994Y-106316318D01*
X123422177Y-106342014D01*
X123481799Y-106364966D01*
X123595557Y-106353992D01*
X123649692Y-106320066D01*
X123675388Y-106288883D01*
X123698340Y-106229260D01*
X126560430Y-105752709D02*
X126268452Y-105943449D01*
X126549441Y-106095390D02*
X125949749Y-106076159D01*
X125957075Y-105847705D01*
X125987463Y-105791508D01*
X126016936Y-105763867D01*
X126074965Y-105737141D01*
X126160635Y-105739889D01*
X126216833Y-105770277D01*
X126244474Y-105799749D01*
X126271199Y-105857779D01*
X126263873Y-106086233D01*
X126578745Y-105181574D02*
X126567756Y-105524255D01*
X126573250Y-105352915D02*
X125973559Y-105333684D01*
X126057397Y-105393545D01*
X126112679Y-105452490D01*
X126139405Y-105510519D01*
X125985464Y-104962446D02*
X125998284Y-104562652D01*
X126589734Y-104838893D01*
X129251823Y-105896667D02*
X128937851Y-106048503D01*
X129197103Y-106235129D02*
X128604794Y-106139369D01*
X128641274Y-105913727D01*
X128678599Y-105861877D01*
X128711364Y-105838232D01*
X128772335Y-105819147D01*
X128856950Y-105832827D01*
X128908801Y-105870152D01*
X128932446Y-105902917D01*
X128951531Y-105963887D01*
X128915051Y-106189529D01*
X129343023Y-105332563D02*
X129288303Y-105671025D01*
X129315663Y-105501794D02*
X128723354Y-105406034D01*
X128798849Y-105476124D01*
X128846140Y-105541655D01*
X128865225Y-105602625D01*
X128832794Y-104729109D02*
X128814554Y-104841930D01*
X128833639Y-104902900D01*
X128857284Y-104935666D01*
X128932780Y-105005756D01*
X129041040Y-105052201D01*
X129266682Y-105088681D01*
X129327652Y-105069596D01*
X129360418Y-105045951D01*
X129397743Y-104994100D01*
X129415983Y-104881280D01*
X129396898Y-104820309D01*
X129373252Y-104787544D01*
X129321402Y-104750219D01*
X129180376Y-104727419D01*
X129119406Y-104746504D01*
X129086640Y-104770149D01*
X129049315Y-104822000D01*
X129031075Y-104934820D01*
X129050160Y-104995791D01*
X129073806Y-105028556D01*
X129125656Y-105065881D01*
X131902712Y-106383610D02*
X131571901Y-106494050D01*
X131805160Y-106712296D02*
X131229959Y-106541580D01*
X131294994Y-106322456D01*
X131338643Y-106275804D01*
X131374163Y-106256543D01*
X131437073Y-106245411D01*
X131519245Y-106269799D01*
X131565897Y-106313448D01*
X131585158Y-106348968D01*
X131596289Y-106411879D01*
X131531255Y-106631003D01*
X132065299Y-105835800D02*
X131967747Y-106164486D01*
X132016523Y-106000143D02*
X131441322Y-105829427D01*
X131507235Y-105908596D01*
X131545757Y-105979635D01*
X131556889Y-106042546D01*
X131644556Y-105144664D02*
X131563263Y-105418569D01*
X131829038Y-105527253D01*
X131809777Y-105491733D01*
X131798646Y-105428823D01*
X131839292Y-105291870D01*
X131882942Y-105245219D01*
X131918461Y-105225957D01*
X131981372Y-105214826D01*
X132118324Y-105255472D01*
X132164976Y-105299122D01*
X132184237Y-105334642D01*
X132195369Y-105397552D01*
X132154722Y-105534504D01*
X132111073Y-105581156D01*
X132075553Y-105600417D01*
X134469566Y-107205543D02*
X134127349Y-107272773D01*
X134330784Y-107519056D02*
X133782136Y-107276186D01*
X133874658Y-107067178D01*
X133923915Y-107026491D01*
X133961606Y-107011930D01*
X134025423Y-107008934D01*
X134103801Y-107043630D01*
X134144488Y-107092886D01*
X134159049Y-107130578D01*
X134162045Y-107194395D01*
X134069523Y-107403404D01*
X134700871Y-106683022D02*
X134562088Y-106996535D01*
X134631480Y-106839778D02*
X134082832Y-106596908D01*
X134138080Y-106683856D01*
X134167202Y-106759239D01*
X134170197Y-106823056D01*
X134543281Y-106050839D02*
X134909046Y-106212752D01*
X134276446Y-106088948D02*
X134610511Y-106393057D01*
X134760859Y-106053418D01*
X136910241Y-108348972D02*
X136562236Y-108371888D01*
X136732507Y-108642164D02*
X136219421Y-108331128D01*
X136337911Y-108135667D01*
X136391966Y-108101613D01*
X136431210Y-108091991D01*
X136494886Y-108097181D01*
X136568184Y-108141615D01*
X136602238Y-108195670D01*
X136611860Y-108234914D01*
X136606670Y-108298590D01*
X136488180Y-108494051D01*
X137206466Y-107860319D02*
X137028731Y-108153511D01*
X137117598Y-108006915D02*
X136604513Y-107695879D01*
X136648188Y-107789178D01*
X136667431Y-107867666D01*
X136662241Y-107931342D01*
X136797058Y-107378255D02*
X136989604Y-107060630D01*
X137081387Y-107350149D01*
X137125821Y-107276851D01*
X137179876Y-107242797D01*
X137219120Y-107233175D01*
X137282796Y-107238365D01*
X137404959Y-107312421D01*
X137439013Y-107366476D01*
X137448635Y-107405720D01*
X137443445Y-107469396D01*
X137354578Y-107615992D01*
X137300523Y-107650046D01*
X137261279Y-107659668D01*
X139184660Y-109795119D02*
X138836582Y-109773345D01*
X138970892Y-110063176D02*
X138501793Y-109689082D01*
X138644305Y-109510377D01*
X138702271Y-109483515D01*
X138742423Y-109478991D01*
X138804913Y-109492281D01*
X138871927Y-109545723D01*
X138898789Y-109603689D01*
X138903314Y-109643841D01*
X138890024Y-109706331D01*
X138747512Y-109885036D01*
X139540940Y-109348358D02*
X139327172Y-109616415D01*
X139434056Y-109482386D02*
X138964957Y-109108293D01*
X138996343Y-109206411D01*
X139005391Y-109286715D01*
X138992101Y-109349205D01*
X139259029Y-108831188D02*
X139254505Y-108791036D01*
X139267795Y-108728546D01*
X139356865Y-108616856D01*
X139414831Y-108589994D01*
X139454983Y-108585469D01*
X139517473Y-108598759D01*
X139562149Y-108634387D01*
X139611349Y-108710167D01*
X139665638Y-109191992D01*
X139897220Y-108901597D01*
X141255477Y-111520239D02*
X140913041Y-111454133D01*
X141009186Y-111758758D02*
X140591776Y-111327749D01*
X140755970Y-111168736D01*
X140816896Y-111149507D01*
X140857297Y-111150154D01*
X140917574Y-111171326D01*
X140977204Y-111232899D01*
X140996433Y-111293824D01*
X140995785Y-111334225D01*
X140974614Y-111394503D01*
X140810419Y-111553516D01*
X141665962Y-111122706D02*
X141419671Y-111361226D01*
X141542817Y-111241966D02*
X141125407Y-110810956D01*
X141143989Y-110912282D01*
X141142693Y-110993084D01*
X141121521Y-111053362D01*
X142076448Y-110725173D02*
X141830156Y-110963693D01*
X141953302Y-110844433D02*
X141535893Y-110413423D01*
X141554474Y-110514749D01*
X141553179Y-110595551D01*
X141532007Y-110655829D01*
X143088689Y-113496006D02*
X142757518Y-113386653D01*
X142813919Y-113701072D02*
X142455052Y-113220224D01*
X142638233Y-113083513D01*
X142701117Y-113072233D01*
X142741103Y-113078042D01*
X142798178Y-113106748D01*
X142849445Y-113175440D01*
X142860725Y-113238324D01*
X142854916Y-113278311D01*
X142826210Y-113335386D01*
X142643030Y-113472097D01*
X143546640Y-113154228D02*
X143271869Y-113359295D01*
X143409255Y-113256762D02*
X143050388Y-112775913D01*
X143055860Y-112878784D01*
X143044242Y-112958757D01*
X143015536Y-113015832D01*
X143485441Y-112451225D02*
X143531236Y-112417047D01*
X143594120Y-112405767D01*
X143634107Y-112411576D01*
X143691182Y-112440282D01*
X143782435Y-112514783D01*
X143867879Y-112629271D01*
X143913337Y-112737950D01*
X143924618Y-112800834D01*
X143918809Y-112840820D01*
X143890103Y-112897895D01*
X143844308Y-112932073D01*
X143781424Y-112943353D01*
X143741437Y-112937545D01*
X143684362Y-112908838D01*
X143593109Y-112834337D01*
X143507665Y-112719849D01*
X143462207Y-112611170D01*
X143450926Y-112548287D01*
X143456735Y-112508300D01*
X143485441Y-112451225D01*
X144903142Y-115549773D02*
X144588674Y-115398968D01*
X144604405Y-115718019D02*
X144309974Y-115195228D01*
X144509133Y-115083064D01*
X144572943Y-115079918D01*
X144611858Y-115090792D01*
X144664794Y-115126561D01*
X144706855Y-115201246D01*
X144710002Y-115265056D01*
X144699127Y-115303971D01*
X144663358Y-115356907D01*
X144464200Y-115469071D01*
X145152091Y-115409568D02*
X145251670Y-115353486D01*
X145287439Y-115300550D01*
X145298313Y-115261635D01*
X145306041Y-115158909D01*
X145274854Y-115045310D01*
X145162690Y-114846151D01*
X145109754Y-114810382D01*
X145070839Y-114799508D01*
X145007029Y-114802654D01*
X144907450Y-114858736D01*
X144871681Y-114911672D01*
X144860806Y-114950587D01*
X144863952Y-115014397D01*
X144934055Y-115138871D01*
X144986991Y-115174640D01*
X145025906Y-115185515D01*
X145089716Y-115182368D01*
X145189296Y-115126286D01*
X145225065Y-115073351D01*
X145235939Y-115034435D01*
X145232793Y-114970625D01*
X146191122Y-117958911D02*
X145898520Y-117769131D01*
X145873322Y-118087574D02*
X145648162Y-117531424D01*
X145860028Y-117445648D01*
X145923717Y-117450688D01*
X145960922Y-117466449D01*
X146008849Y-117508694D01*
X146041015Y-117588144D01*
X146035976Y-117651833D01*
X146020214Y-117689038D01*
X145977970Y-117736965D01*
X145766103Y-117822741D01*
X146380259Y-117512448D02*
X146316570Y-117507408D01*
X146279365Y-117491647D01*
X146231438Y-117449402D01*
X146220716Y-117422919D01*
X146225756Y-117359230D01*
X146241517Y-117322025D01*
X146283762Y-117274098D01*
X146389695Y-117231210D01*
X146453384Y-117236250D01*
X146490589Y-117252011D01*
X146538516Y-117294256D01*
X146549238Y-117320739D01*
X146544199Y-117384428D01*
X146528437Y-117421633D01*
X146486192Y-117469560D01*
X146380259Y-117512448D01*
X146338014Y-117560375D01*
X146322253Y-117597580D01*
X146317213Y-117661269D01*
X146360101Y-117767202D01*
X146408028Y-117809447D01*
X146445233Y-117825208D01*
X146508922Y-117830248D01*
X146614855Y-117787360D01*
X146657100Y-117739433D01*
X146672862Y-117702228D01*
X146677901Y-117638539D01*
X146635013Y-117532606D01*
X146587086Y-117490361D01*
X146549881Y-117474600D01*
X146486192Y-117469560D01*
X147160453Y-120512972D02*
X146894521Y-120287333D01*
X146828809Y-120599940D02*
X146676616Y-120019563D01*
X146897712Y-119961585D01*
X146960234Y-119974727D01*
X146995118Y-119995117D01*
X147037249Y-120043143D01*
X147058991Y-120126054D01*
X147045849Y-120188576D01*
X147025459Y-120223460D01*
X146977432Y-120265592D01*
X146756336Y-120323570D01*
X147201719Y-119881865D02*
X147588637Y-119780403D01*
X147492097Y-120426005D01*
X147795220Y-123170021D02*
X147560326Y-122912228D01*
X147455178Y-123213865D02*
X147378451Y-122618791D01*
X147605146Y-122589562D01*
X147665474Y-122610591D01*
X147697464Y-122635275D01*
X147733108Y-122688295D01*
X147744069Y-122773305D01*
X147723040Y-122833633D01*
X147698356Y-122865623D01*
X147645336Y-122901267D01*
X147418641Y-122930496D01*
X148228557Y-122509182D02*
X148115210Y-122523796D01*
X148062190Y-122559441D01*
X148037506Y-122591431D01*
X147991794Y-122683749D01*
X147978071Y-122800750D01*
X148007300Y-123027445D01*
X148042944Y-123080465D01*
X148074935Y-123105148D01*
X148135262Y-123126178D01*
X148248610Y-123111563D01*
X148301630Y-123075919D01*
X148326313Y-123043929D01*
X148347343Y-122983601D01*
X148329074Y-122841917D01*
X148293430Y-122788897D01*
X148261440Y-122764214D01*
X148201113Y-122743184D01*
X148087765Y-122757799D01*
X148034745Y-122793443D01*
X148010062Y-122825433D01*
X147989032Y-122885761D01*
X148085000Y-125886428D02*
X147885000Y-125600714D01*
X147742142Y-125886428D02*
X147742142Y-125286428D01*
X147970714Y-125286428D01*
X148027857Y-125315000D01*
X148056428Y-125343571D01*
X148085000Y-125400714D01*
X148085000Y-125486428D01*
X148056428Y-125543571D01*
X148027857Y-125572142D01*
X147970714Y-125600714D01*
X147742142Y-125600714D01*
X148627857Y-125286428D02*
X148342142Y-125286428D01*
X148313571Y-125572142D01*
X148342142Y-125543571D01*
X148399285Y-125515000D01*
X148542142Y-125515000D01*
X148599285Y-125543571D01*
X148627857Y-125572142D01*
X148656428Y-125629285D01*
X148656428Y-125772142D01*
X148627857Y-125829285D01*
X148599285Y-125857857D01*
X148542142Y-125886428D01*
X148399285Y-125886428D01*
X148342142Y-125857857D01*
X148313571Y-125829285D01*
X133422428Y-128226428D02*
X133422428Y-127626428D01*
X133565285Y-127626428D01*
X133651000Y-127655000D01*
X133708142Y-127712142D01*
X133736714Y-127769285D01*
X133765285Y-127883571D01*
X133765285Y-127969285D01*
X133736714Y-128083571D01*
X133708142Y-128140714D01*
X133651000Y-128197857D01*
X133565285Y-128226428D01*
X133422428Y-128226428D01*
X134279571Y-127626428D02*
X134165285Y-127626428D01*
X134108142Y-127655000D01*
X134079571Y-127683571D01*
X134022428Y-127769285D01*
X133993857Y-127883571D01*
X133993857Y-128112142D01*
X134022428Y-128169285D01*
X134051000Y-128197857D01*
X134108142Y-128226428D01*
X134222428Y-128226428D01*
X134279571Y-128197857D01*
X134308142Y-128169285D01*
X134336714Y-128112142D01*
X134336714Y-127969285D01*
X134308142Y-127912142D01*
X134279571Y-127883571D01*
X134222428Y-127855000D01*
X134108142Y-127855000D01*
X134051000Y-127883571D01*
X134022428Y-127912142D01*
X133993857Y-127969285D01*
X134851000Y-127826428D02*
X134851000Y-128226428D01*
X134708142Y-127597857D02*
X134565285Y-128026428D01*
X134936714Y-128026428D01*
X139010428Y-128226428D02*
X139010428Y-127626428D01*
X139153285Y-127626428D01*
X139239000Y-127655000D01*
X139296142Y-127712142D01*
X139324714Y-127769285D01*
X139353285Y-127883571D01*
X139353285Y-127969285D01*
X139324714Y-128083571D01*
X139296142Y-128140714D01*
X139239000Y-128197857D01*
X139153285Y-128226428D01*
X139010428Y-128226428D01*
X139867571Y-127626428D02*
X139753285Y-127626428D01*
X139696142Y-127655000D01*
X139667571Y-127683571D01*
X139610428Y-127769285D01*
X139581857Y-127883571D01*
X139581857Y-128112142D01*
X139610428Y-128169285D01*
X139639000Y-128197857D01*
X139696142Y-128226428D01*
X139810428Y-128226428D01*
X139867571Y-128197857D01*
X139896142Y-128169285D01*
X139924714Y-128112142D01*
X139924714Y-127969285D01*
X139896142Y-127912142D01*
X139867571Y-127883571D01*
X139810428Y-127855000D01*
X139696142Y-127855000D01*
X139639000Y-127883571D01*
X139610428Y-127912142D01*
X139581857Y-127969285D01*
X140124714Y-127626428D02*
X140496142Y-127626428D01*
X140296142Y-127855000D01*
X140381857Y-127855000D01*
X140439000Y-127883571D01*
X140467571Y-127912142D01*
X140496142Y-127969285D01*
X140496142Y-128112142D01*
X140467571Y-128169285D01*
X140439000Y-128197857D01*
X140381857Y-128226428D01*
X140210428Y-128226428D01*
X140153285Y-128197857D01*
X140124714Y-128169285D01*
X141791766Y-136727308D02*
X142152855Y-136248126D01*
X142266945Y-136334100D01*
X142318205Y-136408502D01*
X142329452Y-136488528D01*
X142317881Y-136551359D01*
X142271920Y-136659826D01*
X142220336Y-136728281D01*
X142128739Y-136802359D01*
X142071531Y-136830800D01*
X141991506Y-136842047D01*
X141905856Y-136813281D01*
X141791766Y-136727308D01*
X142837399Y-136763968D02*
X142746127Y-136695189D01*
X142683296Y-136683618D01*
X142643283Y-136689241D01*
X142546062Y-136723306D01*
X142454465Y-136797384D01*
X142316908Y-136979929D01*
X142305336Y-137042760D01*
X142310960Y-137082773D01*
X142339401Y-137139981D01*
X142430674Y-137208760D01*
X142493505Y-137220331D01*
X142533518Y-137214708D01*
X142590726Y-137186266D01*
X142676699Y-137072175D01*
X142688270Y-137009344D01*
X142682647Y-136969331D01*
X142654205Y-136912124D01*
X142562933Y-136843345D01*
X142500102Y-136831774D01*
X142460089Y-136837397D01*
X142402881Y-136865839D01*
X143031192Y-136981551D02*
X143071204Y-136975928D01*
X143134035Y-136987499D01*
X143248126Y-137073473D01*
X143276568Y-137130680D01*
X143282191Y-137170693D01*
X143270620Y-137233524D01*
X143236231Y-137279161D01*
X143161828Y-137330420D01*
X142681674Y-137397902D01*
X142978310Y-137621433D01*
X137728367Y-133933642D02*
X138089456Y-133454460D01*
X138203546Y-133540434D01*
X138254806Y-133614836D01*
X138266053Y-133694862D01*
X138254482Y-133757693D01*
X138208521Y-133866160D01*
X138156937Y-133934615D01*
X138065340Y-134008693D01*
X138008132Y-134037134D01*
X137928107Y-134048381D01*
X137842457Y-134019615D01*
X137728367Y-133933642D01*
X138774000Y-133970302D02*
X138682728Y-133901523D01*
X138619897Y-133889952D01*
X138579884Y-133895575D01*
X138482663Y-133929640D01*
X138391066Y-134003718D01*
X138253509Y-134186263D01*
X138241937Y-134249094D01*
X138247561Y-134289107D01*
X138276002Y-134346315D01*
X138367275Y-134415094D01*
X138430106Y-134426665D01*
X138470119Y-134421042D01*
X138527327Y-134392600D01*
X138613300Y-134278509D01*
X138624871Y-134215678D01*
X138619248Y-134175665D01*
X138590806Y-134118458D01*
X138499534Y-134049679D01*
X138436703Y-134038108D01*
X138396690Y-134043731D01*
X138339482Y-134072173D01*
X138914911Y-134827767D02*
X138641093Y-134621430D01*
X138778002Y-134724599D02*
X139139091Y-134245417D01*
X139041870Y-134279482D01*
X138961845Y-134290729D01*
X138899014Y-134279158D01*
X133664968Y-131138978D02*
X134026057Y-130659796D01*
X134140147Y-130745770D01*
X134191407Y-130820172D01*
X134202654Y-130900198D01*
X134191083Y-130963029D01*
X134145122Y-131071496D01*
X134093538Y-131139951D01*
X134001941Y-131214029D01*
X133944733Y-131242470D01*
X133864708Y-131253717D01*
X133779058Y-131224951D01*
X133664968Y-131138978D01*
X134710601Y-131175638D02*
X134619329Y-131106859D01*
X134556498Y-131095288D01*
X134516485Y-131100911D01*
X134419264Y-131134976D01*
X134327667Y-131209054D01*
X134190110Y-131391599D01*
X134178538Y-131454430D01*
X134184162Y-131494443D01*
X134212603Y-131551651D01*
X134303876Y-131620430D01*
X134366707Y-131632001D01*
X134406720Y-131626378D01*
X134463928Y-131597936D01*
X134549901Y-131483845D01*
X134561472Y-131421014D01*
X134555849Y-131381001D01*
X134527407Y-131323794D01*
X134436135Y-131255015D01*
X134373304Y-131243444D01*
X134333291Y-131249067D01*
X134276083Y-131277509D01*
X135052874Y-131433559D02*
X135098510Y-131467948D01*
X135126952Y-131525156D01*
X135132575Y-131565169D01*
X135121004Y-131628000D01*
X135075043Y-131736467D01*
X134989070Y-131850558D01*
X134897473Y-131924636D01*
X134840265Y-131953077D01*
X134800252Y-131958701D01*
X134737421Y-131947129D01*
X134691785Y-131912740D01*
X134663343Y-131855532D01*
X134657720Y-131815519D01*
X134669291Y-131752688D01*
X134715252Y-131644221D01*
X134801225Y-131530130D01*
X134892822Y-131456052D01*
X134950030Y-131427611D01*
X134990043Y-131421987D01*
X135052874Y-131433559D01*
X129600237Y-128599308D02*
X129961326Y-128120126D01*
X130075416Y-128206100D01*
X130126676Y-128280502D01*
X130137923Y-128360528D01*
X130126352Y-128423359D01*
X130080391Y-128531826D01*
X130028807Y-128600281D01*
X129937210Y-128674359D01*
X129880002Y-128702800D01*
X129799977Y-128714047D01*
X129714327Y-128685281D01*
X129600237Y-128599308D01*
X130668689Y-128653163D02*
X130440507Y-128481215D01*
X130245742Y-128692202D01*
X130285755Y-128686579D01*
X130348586Y-128698150D01*
X130462676Y-128784124D01*
X130491118Y-128841331D01*
X130496741Y-128881344D01*
X130485170Y-128944175D01*
X130399197Y-129058266D01*
X130341989Y-129086708D01*
X130301976Y-129092331D01*
X130239145Y-129080760D01*
X130125054Y-128994786D01*
X130096613Y-128937579D01*
X130090989Y-128897566D01*
X130558599Y-129321486D02*
X130649872Y-129390265D01*
X130712703Y-129401836D01*
X130752716Y-129396212D01*
X130849936Y-129362147D01*
X130941533Y-129288070D01*
X131079091Y-129105524D01*
X131090662Y-129042693D01*
X131085039Y-129002680D01*
X131056597Y-128945473D01*
X130965325Y-128876694D01*
X130902494Y-128865123D01*
X130862481Y-128870746D01*
X130805273Y-128899188D01*
X130719300Y-129013278D01*
X130707728Y-129076110D01*
X130713352Y-129116122D01*
X130741793Y-129173330D01*
X130833066Y-129242109D01*
X130895897Y-129253680D01*
X130935910Y-129248057D01*
X130993117Y-129219615D01*
X126056428Y-128226428D02*
X126056428Y-127626428D01*
X126199285Y-127626428D01*
X126285000Y-127655000D01*
X126342142Y-127712142D01*
X126370714Y-127769285D01*
X126399285Y-127883571D01*
X126399285Y-127969285D01*
X126370714Y-128083571D01*
X126342142Y-128140714D01*
X126285000Y-128197857D01*
X126199285Y-128226428D01*
X126056428Y-128226428D01*
X126942142Y-127626428D02*
X126656428Y-127626428D01*
X126627857Y-127912142D01*
X126656428Y-127883571D01*
X126713571Y-127855000D01*
X126856428Y-127855000D01*
X126913571Y-127883571D01*
X126942142Y-127912142D01*
X126970714Y-127969285D01*
X126970714Y-128112142D01*
X126942142Y-128169285D01*
X126913571Y-128197857D01*
X126856428Y-128226428D01*
X126713571Y-128226428D01*
X126656428Y-128197857D01*
X126627857Y-128169285D01*
X127313571Y-127883571D02*
X127256428Y-127855000D01*
X127227857Y-127826428D01*
X127199285Y-127769285D01*
X127199285Y-127740714D01*
X127227857Y-127683571D01*
X127256428Y-127655000D01*
X127313571Y-127626428D01*
X127427857Y-127626428D01*
X127485000Y-127655000D01*
X127513571Y-127683571D01*
X127542142Y-127740714D01*
X127542142Y-127769285D01*
X127513571Y-127826428D01*
X127485000Y-127855000D01*
X127427857Y-127883571D01*
X127313571Y-127883571D01*
X127256428Y-127912142D01*
X127227857Y-127940714D01*
X127199285Y-127997857D01*
X127199285Y-128112142D01*
X127227857Y-128169285D01*
X127256428Y-128197857D01*
X127313571Y-128226428D01*
X127427857Y-128226428D01*
X127485000Y-128197857D01*
X127513571Y-128169285D01*
X127542142Y-128112142D01*
X127542142Y-127997857D01*
X127513571Y-127940714D01*
X127485000Y-127912142D01*
X127427857Y-127883571D01*
X129864610Y-125580641D02*
X129503521Y-125101460D01*
X129617612Y-125015486D01*
X129703261Y-124986720D01*
X129783287Y-124997967D01*
X129840495Y-125026409D01*
X129932092Y-125100487D01*
X129983676Y-125168941D01*
X130029636Y-125277409D01*
X130041208Y-125340240D01*
X130029961Y-125420265D01*
X129978701Y-125494668D01*
X129864610Y-125580641D01*
X130210884Y-124568424D02*
X129982703Y-124740371D01*
X130131832Y-124985747D01*
X130137455Y-124945734D01*
X130165897Y-124888527D01*
X130279987Y-124802553D01*
X130342818Y-124790982D01*
X130382831Y-124796605D01*
X130440039Y-124825047D01*
X130526012Y-124939138D01*
X130537584Y-125001969D01*
X130531960Y-125041982D01*
X130503519Y-125099189D01*
X130389428Y-125185163D01*
X130326597Y-125196734D01*
X130286584Y-125191111D01*
X130393429Y-124430866D02*
X130712884Y-124190140D01*
X130868609Y-124824074D01*
X133928610Y-122786641D02*
X133567521Y-122307460D01*
X133681612Y-122221486D01*
X133767261Y-122192720D01*
X133847287Y-122203967D01*
X133904495Y-122232409D01*
X133996092Y-122306487D01*
X134047676Y-122374941D01*
X134093636Y-122483409D01*
X134105208Y-122546240D01*
X134093961Y-122626265D01*
X134042701Y-122700668D01*
X133928610Y-122786641D01*
X134274884Y-121774424D02*
X134046703Y-121946371D01*
X134195832Y-122191747D01*
X134201455Y-122151734D01*
X134229897Y-122094527D01*
X134343987Y-122008553D01*
X134406818Y-121996982D01*
X134446831Y-122002605D01*
X134504039Y-122031047D01*
X134590012Y-122145138D01*
X134601584Y-122207969D01*
X134595960Y-122247982D01*
X134567519Y-122305189D01*
X134453428Y-122391163D01*
X134390597Y-122402734D01*
X134350584Y-122397111D01*
X134708429Y-121447724D02*
X134617157Y-121516503D01*
X134588715Y-121573711D01*
X134583091Y-121613723D01*
X134589039Y-121716567D01*
X134635000Y-121825035D01*
X134772558Y-122007580D01*
X134829765Y-122036022D01*
X134869778Y-122041645D01*
X134932609Y-122030074D01*
X135023882Y-121961295D01*
X135052323Y-121904087D01*
X135057947Y-121864074D01*
X135046376Y-121801243D01*
X134960402Y-121687153D01*
X134903194Y-121658711D01*
X134863182Y-121653088D01*
X134800351Y-121664659D01*
X134709078Y-121733438D01*
X134680636Y-121790645D01*
X134675013Y-121830658D01*
X134686584Y-121893489D01*
X137992610Y-119992641D02*
X137631521Y-119513460D01*
X137745612Y-119427486D01*
X137831261Y-119398720D01*
X137911287Y-119409967D01*
X137968495Y-119438409D01*
X138060092Y-119512487D01*
X138111676Y-119580941D01*
X138157636Y-119689409D01*
X138169208Y-119752240D01*
X138157961Y-119832265D01*
X138106701Y-119906668D01*
X137992610Y-119992641D01*
X138338884Y-118980424D02*
X138110703Y-119152371D01*
X138259832Y-119397747D01*
X138265455Y-119357734D01*
X138293897Y-119300527D01*
X138407987Y-119214553D01*
X138470818Y-119202982D01*
X138510831Y-119208605D01*
X138568039Y-119237047D01*
X138654012Y-119351138D01*
X138665584Y-119413969D01*
X138659960Y-119453982D01*
X138631519Y-119511189D01*
X138517428Y-119597163D01*
X138454597Y-119608734D01*
X138414584Y-119603111D01*
X138795247Y-118636529D02*
X138567066Y-118808477D01*
X138716195Y-119053853D01*
X138721818Y-119013840D01*
X138750260Y-118956632D01*
X138864351Y-118870659D01*
X138927182Y-118859088D01*
X138967194Y-118864711D01*
X139024402Y-118893153D01*
X139110376Y-119007243D01*
X139121947Y-119070074D01*
X139116323Y-119110087D01*
X139087882Y-119167295D01*
X138973791Y-119253268D01*
X138910960Y-119264840D01*
X138870947Y-119259216D01*
X142056610Y-117198641D02*
X141695521Y-116719460D01*
X141809612Y-116633486D01*
X141895261Y-116604720D01*
X141975287Y-116615967D01*
X142032495Y-116644409D01*
X142124092Y-116718487D01*
X142175676Y-116786941D01*
X142221636Y-116895409D01*
X142233208Y-116958240D01*
X142221961Y-117038265D01*
X142170701Y-117112668D01*
X142056610Y-117198641D01*
X142402884Y-116186424D02*
X142174703Y-116358371D01*
X142323832Y-116603747D01*
X142329455Y-116563734D01*
X142357897Y-116506527D01*
X142471987Y-116420553D01*
X142534818Y-116408982D01*
X142574831Y-116414605D01*
X142632039Y-116443047D01*
X142718012Y-116557138D01*
X142729584Y-116619969D01*
X142723960Y-116659982D01*
X142695519Y-116717189D01*
X142581428Y-116803163D01*
X142518597Y-116814734D01*
X142478584Y-116809111D01*
X142956792Y-116019451D02*
X143197518Y-116338905D01*
X142705144Y-115922880D02*
X142848974Y-116351126D01*
X143145610Y-116127594D01*
X149689193Y-131195893D02*
X149762315Y-130600366D01*
X149904107Y-130617776D01*
X149985700Y-130656580D01*
X150035453Y-130720261D01*
X150056848Y-130780460D01*
X150071278Y-130897376D01*
X150060832Y-130982451D01*
X150018546Y-131092403D01*
X149983223Y-131145638D01*
X149919543Y-131195391D01*
X149830985Y-131213303D01*
X149689193Y-131195893D01*
X150641427Y-130708307D02*
X150357842Y-130673487D01*
X150294664Y-130953590D01*
X150326504Y-130928713D01*
X150386703Y-130907319D01*
X150528496Y-130924729D01*
X150581731Y-130960051D01*
X150606607Y-130991892D01*
X150628002Y-131052091D01*
X150610592Y-131193883D01*
X150575269Y-131247118D01*
X150543429Y-131271994D01*
X150483230Y-131293389D01*
X150341438Y-131275979D01*
X150288203Y-131240657D01*
X150263326Y-131208816D01*
X150868295Y-130736163D02*
X151236955Y-130781429D01*
X151010589Y-130983923D01*
X151095665Y-130994368D01*
X151148900Y-131029691D01*
X151173776Y-131061531D01*
X151195171Y-131121730D01*
X151177761Y-131263523D01*
X151142438Y-131316757D01*
X151110598Y-131341634D01*
X151050399Y-131363028D01*
X150880248Y-131342137D01*
X150827013Y-131306814D01*
X150802137Y-131274974D01*
X148923185Y-134076744D02*
X149078476Y-133497189D01*
X149216465Y-133534163D01*
X149291864Y-133583945D01*
X149332270Y-133653931D01*
X149345079Y-133716521D01*
X149343097Y-133834308D01*
X149320913Y-133917101D01*
X149263735Y-134020098D01*
X149221348Y-134067899D01*
X149151363Y-134108305D01*
X149061174Y-134113718D01*
X148923185Y-134076744D01*
X149934010Y-133726428D02*
X149658032Y-133652480D01*
X149556485Y-133921064D01*
X149591478Y-133900861D01*
X149654069Y-133888053D01*
X149792058Y-133925027D01*
X149839859Y-133967415D01*
X149860062Y-134002407D01*
X149872870Y-134064998D01*
X149835896Y-134202987D01*
X149793509Y-134250788D01*
X149758516Y-134270991D01*
X149695925Y-134283799D01*
X149557936Y-134246825D01*
X149510135Y-134204438D01*
X149489932Y-134169445D01*
X150167602Y-133848178D02*
X150202594Y-133827975D01*
X150265185Y-133815166D01*
X150403174Y-133852141D01*
X150450975Y-133894528D01*
X150471178Y-133929521D01*
X150483987Y-133992111D01*
X150469197Y-134047307D01*
X150419415Y-134122706D01*
X149999502Y-134365143D01*
X150358274Y-134461275D01*
X146360958Y-139469483D02*
X146651844Y-138944711D01*
X146776790Y-139013970D01*
X146837906Y-139080514D01*
X146860180Y-139158195D01*
X146857466Y-139222025D01*
X146827048Y-139335834D01*
X146785493Y-139410801D01*
X146705097Y-139496906D01*
X146652405Y-139533032D01*
X146574723Y-139555307D01*
X146485904Y-139538741D01*
X146360958Y-139469483D01*
X147426507Y-139374114D02*
X147176616Y-139235597D01*
X147013110Y-139471636D01*
X147051951Y-139460499D01*
X147115781Y-139463213D01*
X147240726Y-139532472D01*
X147276853Y-139585164D01*
X147287990Y-139624005D01*
X147285276Y-139687835D01*
X147216018Y-139812781D01*
X147163325Y-139848907D01*
X147124484Y-139860045D01*
X147060654Y-139857331D01*
X146935708Y-139788072D01*
X146899582Y-139735379D01*
X146888444Y-139696539D01*
X147776355Y-139568038D02*
X147826333Y-139595741D01*
X147862460Y-139648434D01*
X147873597Y-139687274D01*
X147870883Y-139751104D01*
X147840466Y-139864913D01*
X147771207Y-139989858D01*
X147690811Y-140075963D01*
X147638119Y-140112090D01*
X147599278Y-140123227D01*
X147535448Y-140120513D01*
X147485469Y-140092809D01*
X147449343Y-140040117D01*
X147438205Y-140001276D01*
X147440920Y-139937446D01*
X147471337Y-139823638D01*
X147540596Y-139698692D01*
X147620992Y-139612587D01*
X147673684Y-139576461D01*
X147712525Y-139565323D01*
X147776355Y-139568038D01*
X144569663Y-141852711D02*
X144930752Y-141373529D01*
X145044842Y-141459503D01*
X145096102Y-141533905D01*
X145107349Y-141613931D01*
X145095778Y-141676762D01*
X145049817Y-141785229D01*
X144998233Y-141853684D01*
X144906636Y-141927762D01*
X144849428Y-141956203D01*
X144769403Y-141967450D01*
X144683753Y-141938684D01*
X144569663Y-141852711D01*
X145494933Y-142049098D02*
X145254207Y-142368552D01*
X145518400Y-141780579D02*
X145146389Y-142036878D01*
X145443025Y-142260409D01*
X145528025Y-142574889D02*
X145619298Y-142643668D01*
X145682129Y-142655239D01*
X145722142Y-142649615D01*
X145819362Y-142615550D01*
X145910959Y-142541473D01*
X146048517Y-142358927D01*
X146060088Y-142296096D01*
X146054465Y-142256083D01*
X146026023Y-142198876D01*
X145934751Y-142130097D01*
X145871920Y-142118526D01*
X145831907Y-142124149D01*
X145774699Y-142152591D01*
X145688726Y-142266681D01*
X145677154Y-142329513D01*
X145682778Y-142369525D01*
X145711219Y-142426733D01*
X145802492Y-142495512D01*
X145865323Y-142507083D01*
X145905336Y-142501460D01*
X145962543Y-142473018D01*
X142499609Y-144011769D02*
X142916404Y-143580165D01*
X143019167Y-143679402D01*
X143060977Y-143759496D01*
X143062387Y-143840296D01*
X143043245Y-143901249D01*
X142984408Y-144003306D01*
X142924866Y-144064964D01*
X142824924Y-144127327D01*
X142764677Y-144148585D01*
X142683877Y-144149995D01*
X142602372Y-144111006D01*
X142499609Y-144011769D01*
X143394049Y-144319454D02*
X143116186Y-144607190D01*
X143450065Y-144055797D02*
X143049592Y-144264848D01*
X143316775Y-144522864D01*
X143642090Y-144638423D02*
X143620833Y-144578175D01*
X143620127Y-144537775D01*
X143639270Y-144476823D01*
X143659117Y-144456270D01*
X143719364Y-144435013D01*
X143759764Y-144434307D01*
X143820717Y-144453450D01*
X143902927Y-144532839D01*
X143924185Y-144593086D01*
X143924890Y-144633486D01*
X143905748Y-144694439D01*
X143885900Y-144714991D01*
X143825653Y-144736249D01*
X143785253Y-144736954D01*
X143724301Y-144717812D01*
X143642090Y-144638423D01*
X143581138Y-144619280D01*
X143540738Y-144619986D01*
X143480491Y-144641243D01*
X143401101Y-144723454D01*
X143381959Y-144784406D01*
X143382664Y-144824806D01*
X143403922Y-144885053D01*
X143486132Y-144964443D01*
X143547085Y-144983585D01*
X143587485Y-144982880D01*
X143647732Y-144961622D01*
X143727121Y-144879412D01*
X143746264Y-144818459D01*
X143745558Y-144778060D01*
X143724301Y-144717812D01*
X140170294Y-145889914D02*
X140636582Y-145512321D01*
X140726485Y-145623342D01*
X140758222Y-145707935D01*
X140749775Y-145788305D01*
X140723347Y-145846470D01*
X140652511Y-145940597D01*
X140585899Y-145994538D01*
X140479101Y-146044257D01*
X140416712Y-146058014D01*
X140336343Y-146049566D01*
X140260197Y-146000935D01*
X140170294Y-145889914D01*
X141020570Y-146304311D02*
X140709712Y-146556039D01*
X141108300Y-146049445D02*
X140685335Y-146208133D01*
X140919082Y-146496787D01*
X141337824Y-146378284D02*
X141589552Y-146689142D01*
X140961440Y-146866897D01*
X137615212Y-147425883D02*
X138129512Y-147116860D01*
X138203089Y-147239313D01*
X138222745Y-147327499D01*
X138203194Y-147405911D01*
X138168929Y-147459832D01*
X138085682Y-147543184D01*
X138012211Y-147587331D01*
X137899533Y-147621702D01*
X137835837Y-147626642D01*
X137757425Y-147607092D01*
X137688789Y-147548335D01*
X137615212Y-147425883D01*
X138399540Y-147954583D02*
X138056673Y-148160598D01*
X138521887Y-147714407D02*
X138080953Y-147812685D01*
X138272253Y-148131062D01*
X138865281Y-148341385D02*
X138806419Y-148243423D01*
X138752498Y-148209157D01*
X138713292Y-148199382D01*
X138610390Y-148194547D01*
X138497713Y-148228918D01*
X138301789Y-148346641D01*
X138267523Y-148400562D01*
X138257748Y-148439768D01*
X138262688Y-148503465D01*
X138321550Y-148601427D01*
X138375471Y-148635692D01*
X138414677Y-148645467D01*
X138478373Y-148640527D01*
X138600826Y-148566950D01*
X138635091Y-148513029D01*
X138644866Y-148473823D01*
X138639926Y-148410127D01*
X138581065Y-148312165D01*
X138527143Y-148277899D01*
X138487938Y-148268124D01*
X138424241Y-148273064D01*
X134886852Y-148651698D02*
X135434980Y-148407656D01*
X135493085Y-148538163D01*
X135501847Y-148628088D01*
X135472886Y-148703532D01*
X135432305Y-148752876D01*
X135339521Y-148825461D01*
X135261217Y-148860324D01*
X135145190Y-148880707D01*
X135081367Y-148877848D01*
X135005922Y-148848888D01*
X134944958Y-148782205D01*
X134886852Y-148651698D01*
X135600902Y-149272043D02*
X135235484Y-149434737D01*
X135751607Y-149048568D02*
X135301982Y-149092377D01*
X135453056Y-149431694D01*
X136027653Y-149738823D02*
X135911443Y-149477810D01*
X135638809Y-149567919D01*
X135676531Y-149582399D01*
X135725874Y-149622981D01*
X135783980Y-149753487D01*
X135781120Y-149817311D01*
X135766640Y-149855033D01*
X135726059Y-149904376D01*
X135595552Y-149962482D01*
X135531728Y-149959622D01*
X135494006Y-149945142D01*
X135444663Y-149904561D01*
X135386557Y-149774054D01*
X135389417Y-149710231D01*
X135403897Y-149672508D01*
X132022540Y-149517696D02*
X132596323Y-149342273D01*
X132638091Y-149478888D01*
X132635828Y-149569211D01*
X132597889Y-149640564D01*
X132551597Y-149684593D01*
X132450658Y-149745330D01*
X132368689Y-149770391D01*
X132251044Y-149776482D01*
X132188044Y-149765866D01*
X132116691Y-149727927D01*
X132064308Y-149654311D01*
X132022540Y-149517696D01*
X132655667Y-150220437D02*
X132273145Y-150337386D01*
X132832483Y-150016995D02*
X132380871Y-150005682D01*
X132489466Y-150360881D01*
X132822736Y-150766897D02*
X132440214Y-150883846D01*
X132999553Y-150563454D02*
X132547940Y-150552142D01*
X132656536Y-150907341D01*
X129077344Y-149982887D02*
X129669957Y-149889026D01*
X129692305Y-150030124D01*
X129677494Y-150119253D01*
X129629994Y-150184631D01*
X129578024Y-150221790D01*
X129469615Y-150267888D01*
X129384956Y-150281297D01*
X129267607Y-150270955D01*
X129206699Y-150251675D01*
X129141320Y-150204175D01*
X129099692Y-150123985D01*
X129077344Y-149982887D01*
X129606506Y-150766903D02*
X129211431Y-150829477D01*
X129809916Y-150590048D02*
X129364273Y-150515993D01*
X129422377Y-150882849D01*
X129844270Y-150989593D02*
X129902374Y-151356449D01*
X129645330Y-151194668D01*
X129658738Y-151279327D01*
X129639458Y-151340235D01*
X129615708Y-151372925D01*
X129563738Y-151410083D01*
X129422640Y-151432431D01*
X129361731Y-151413151D01*
X129329041Y-151389401D01*
X129291883Y-151337431D01*
X129265065Y-151168113D01*
X129284346Y-151107204D01*
X129308096Y-151074515D01*
X126088022Y-150095177D02*
X126687657Y-150074237D01*
X126692643Y-150217007D01*
X126667080Y-150303666D01*
X126611966Y-150362769D01*
X126555855Y-150393317D01*
X126442636Y-150425859D01*
X126356974Y-150428851D01*
X126241761Y-150404285D01*
X126183656Y-150377725D01*
X126124554Y-150322612D01*
X126093008Y-150237947D01*
X126088022Y-150095177D01*
X126517693Y-150937838D02*
X126117936Y-150951797D01*
X126741139Y-150787090D02*
X126307843Y-150659277D01*
X126320806Y-151030479D01*
X126670434Y-151218392D02*
X126699985Y-151245949D01*
X126730534Y-151302060D01*
X126735519Y-151444830D01*
X126708959Y-151502935D01*
X126681403Y-151532486D01*
X126625292Y-151563035D01*
X126568184Y-151565029D01*
X126481524Y-151539466D01*
X126126911Y-151208784D01*
X126139873Y-151579986D01*
X123510194Y-151304654D02*
X122913481Y-151241937D01*
X122928413Y-151099862D01*
X122965788Y-151017604D01*
X123028591Y-150966747D01*
X123088407Y-150944305D01*
X123205053Y-150927836D01*
X123290298Y-150936796D01*
X123400971Y-150977157D01*
X123454814Y-151011545D01*
X123505671Y-151074348D01*
X123525126Y-151162579D01*
X123510194Y-151304654D01*
X123201981Y-150410395D02*
X123599790Y-150452206D01*
X122959729Y-150528577D02*
X123371020Y-150715450D01*
X123409845Y-150346056D01*
X123665493Y-149827078D02*
X123629655Y-150168057D01*
X123647574Y-149997568D02*
X123050861Y-149934851D01*
X123130133Y-150000640D01*
X123180989Y-150063443D01*
X123203431Y-150123259D01*
X120404565Y-150690763D02*
X119819943Y-150555792D01*
X119852079Y-150416596D01*
X119899200Y-150339506D01*
X119967733Y-150296682D01*
X120029838Y-150281697D01*
X120147622Y-150279567D01*
X120231139Y-150298849D01*
X120336069Y-150352396D01*
X120385320Y-150393090D01*
X120428144Y-150461623D01*
X120436701Y-150551567D01*
X120404565Y-150690763D01*
X120207633Y-149765608D02*
X120597381Y-149855588D01*
X119952784Y-149853386D02*
X120338235Y-150088990D01*
X120421788Y-149727081D01*
X120109166Y-149303031D02*
X120122021Y-149247352D01*
X120162714Y-149198101D01*
X120196980Y-149176689D01*
X120259086Y-149161705D01*
X120376870Y-149159574D01*
X120516065Y-149191710D01*
X120620995Y-149245258D01*
X120670246Y-149285951D01*
X120691658Y-149320218D01*
X120706643Y-149382323D01*
X120693788Y-149438001D01*
X120653095Y-149487252D01*
X120618828Y-149508664D01*
X120556723Y-149523649D01*
X120438939Y-149525780D01*
X120299744Y-149493644D01*
X120194814Y-149440096D01*
X120145563Y-149399402D01*
X120124151Y-149365136D01*
X120109166Y-149303031D01*
X117402433Y-149685303D02*
X116838617Y-149480091D01*
X116887477Y-149345849D01*
X116943642Y-149275076D01*
X117016882Y-149240923D01*
X117080351Y-149233619D01*
X117197517Y-149245858D01*
X117278062Y-149275174D01*
X117375683Y-149341111D01*
X117419608Y-149387503D01*
X117453760Y-149460744D01*
X117451293Y-149551061D01*
X117402433Y-149685303D01*
X117024285Y-148969972D02*
X117151321Y-148620943D01*
X117297704Y-148887058D01*
X117327020Y-148806513D01*
X117373413Y-148762588D01*
X117410033Y-148745512D01*
X117473502Y-148738207D01*
X117607744Y-148787067D01*
X117651668Y-148833460D01*
X117668745Y-148870080D01*
X117676049Y-148933549D01*
X117617417Y-149094639D01*
X117571025Y-149138564D01*
X117534404Y-149155640D01*
X117812857Y-148557672D02*
X117851945Y-148450278D01*
X117844641Y-148386809D01*
X117827564Y-148350189D01*
X117766563Y-148267176D01*
X117668942Y-148201240D01*
X117454155Y-148123064D01*
X117390686Y-148130368D01*
X117354066Y-148147445D01*
X117307673Y-148191369D01*
X117268585Y-148298763D01*
X117275890Y-148362232D01*
X117292966Y-148398852D01*
X117336891Y-148445244D01*
X117471133Y-148494104D01*
X117534601Y-148486800D01*
X117571222Y-148469724D01*
X117617614Y-148425799D01*
X117656702Y-148318405D01*
X117649398Y-148254937D01*
X117632321Y-148218316D01*
X117588397Y-148171924D01*
X114548564Y-148284436D02*
X114018796Y-148002753D01*
X114085863Y-147876618D01*
X114151330Y-147814350D01*
X114228612Y-147790723D01*
X114292479Y-147792322D01*
X114406801Y-147820749D01*
X114482482Y-147860990D01*
X114569977Y-147939871D01*
X114607018Y-147991925D01*
X114630645Y-148069206D01*
X114615632Y-148158301D01*
X114548564Y-148284436D01*
X114273652Y-147523439D02*
X114448027Y-147195487D01*
X114555949Y-147479384D01*
X114596189Y-147403703D01*
X114648243Y-147366662D01*
X114686884Y-147354848D01*
X114750752Y-147356448D01*
X114876887Y-147423516D01*
X114913928Y-147475570D01*
X114925741Y-147514210D01*
X114924141Y-147578078D01*
X114843661Y-147729440D01*
X114791607Y-147766481D01*
X114752966Y-147778295D01*
X114836032Y-147013483D02*
X114783978Y-147050524D01*
X114745338Y-147062337D01*
X114681470Y-147060737D01*
X114656243Y-147047324D01*
X114619202Y-146995270D01*
X114607389Y-146956629D01*
X114608988Y-146892762D01*
X114662642Y-146791853D01*
X114714696Y-146754813D01*
X114753337Y-146742999D01*
X114817204Y-146744599D01*
X114842432Y-146758012D01*
X114879472Y-146810066D01*
X114891286Y-146848707D01*
X114889686Y-146912575D01*
X114836032Y-147013483D01*
X114834432Y-147077351D01*
X114846246Y-147115991D01*
X114883286Y-147168045D01*
X114984195Y-147221699D01*
X115048062Y-147223299D01*
X115086703Y-147211485D01*
X115138757Y-147174445D01*
X115192411Y-147073536D01*
X115194011Y-147009669D01*
X115182197Y-146971028D01*
X115145156Y-146918974D01*
X115044248Y-146865320D01*
X114980381Y-146863720D01*
X114941740Y-146875534D01*
X114889686Y-146912575D01*
X111900041Y-146550411D02*
X111408550Y-146206265D01*
X111490490Y-146089244D01*
X111563058Y-146035419D01*
X111642642Y-146021386D01*
X111705839Y-146030757D01*
X111815844Y-146072904D01*
X111886057Y-146122068D01*
X111963287Y-146211024D01*
X111993707Y-146267204D01*
X112007740Y-146346789D01*
X111981981Y-146433390D01*
X111900041Y-146550411D01*
X111719920Y-145761583D02*
X111932963Y-145457326D01*
X112005482Y-145752260D01*
X112054646Y-145682047D01*
X112110826Y-145651626D01*
X112150618Y-145644610D01*
X112213815Y-145653981D01*
X112330837Y-145735921D01*
X112361258Y-145792101D01*
X112368274Y-145831893D01*
X112358903Y-145895090D01*
X112260575Y-146035516D01*
X112204395Y-146065937D01*
X112164603Y-146072953D01*
X112047678Y-145293496D02*
X112277109Y-144965835D01*
X112621109Y-145520620D01*
X109494722Y-144492172D02*
X109048835Y-144090693D01*
X109144425Y-143984530D01*
X109223012Y-143939950D01*
X109303713Y-143935720D01*
X109365297Y-143952724D01*
X109469345Y-144007963D01*
X109533044Y-144065317D01*
X109598856Y-144163022D01*
X109622204Y-144222491D01*
X109626433Y-144303192D01*
X109590312Y-144386008D01*
X109494722Y-144492172D01*
X109412077Y-143687272D02*
X109660611Y-143411247D01*
X109696647Y-143712820D01*
X109754001Y-143649122D01*
X109813470Y-143625774D01*
X109853821Y-143623660D01*
X109915404Y-143640663D01*
X110021568Y-143736253D01*
X110044915Y-143795722D01*
X110047030Y-143836072D01*
X110030026Y-143897656D01*
X109915318Y-144025052D01*
X109855849Y-144048400D01*
X109815499Y-144050514D01*
X110004736Y-143029058D02*
X109928264Y-143113989D01*
X109911260Y-143175572D01*
X109913375Y-143215923D01*
X109938837Y-143315742D01*
X110004650Y-143413447D01*
X110174512Y-143566391D01*
X110236095Y-143583395D01*
X110276446Y-143581280D01*
X110335915Y-143557933D01*
X110412387Y-143473002D01*
X110429390Y-143411418D01*
X110427275Y-143371068D01*
X110403928Y-143311599D01*
X110297764Y-143216009D01*
X110236181Y-143199005D01*
X110195830Y-143201120D01*
X110136361Y-143224467D01*
X110059889Y-143309398D01*
X110042886Y-143370982D01*
X110045001Y-143411332D01*
X110068348Y-143470801D01*
X107374290Y-142121971D02*
X106988618Y-141662344D01*
X107098053Y-141570517D01*
X107182079Y-141537308D01*
X107262584Y-141544351D01*
X107321201Y-141569760D01*
X107416550Y-141638942D01*
X107471646Y-141704603D01*
X107523220Y-141810517D01*
X107538064Y-141872656D01*
X107531021Y-141953161D01*
X107483725Y-142030144D01*
X107374290Y-142121971D01*
X107404470Y-141313402D02*
X107689001Y-141074652D01*
X107682715Y-141378306D01*
X107748376Y-141323210D01*
X107810516Y-141308366D01*
X107850768Y-141311888D01*
X107909386Y-141337296D01*
X108001212Y-141446731D01*
X108016056Y-141508870D01*
X108012534Y-141549123D01*
X107987126Y-141607740D01*
X107855804Y-141717933D01*
X107793665Y-141732776D01*
X107753412Y-141729255D01*
X108104854Y-140725710D02*
X107885984Y-140909364D01*
X108047751Y-141146599D01*
X108051272Y-141106347D01*
X108076681Y-141047729D01*
X108186116Y-140955902D01*
X108248255Y-140941059D01*
X108288508Y-140944580D01*
X108347125Y-140969989D01*
X108438952Y-141079424D01*
X108453796Y-141141563D01*
X108450274Y-141181816D01*
X108424866Y-141240433D01*
X108315431Y-141332260D01*
X108253291Y-141347104D01*
X108213039Y-141343582D01*
X105570571Y-139521202D02*
X105243787Y-139018000D01*
X105363597Y-138940194D01*
X105451045Y-138917473D01*
X105530091Y-138934275D01*
X105585175Y-138966638D01*
X105671381Y-139046925D01*
X105718065Y-139118811D01*
X105756347Y-139230220D01*
X105763507Y-139293705D01*
X105746706Y-139372751D01*
X105690381Y-139443397D01*
X105570571Y-139521202D01*
X105699066Y-138722339D02*
X106010572Y-138520044D01*
X105967327Y-138820668D01*
X106039213Y-138773985D01*
X106102698Y-138766824D01*
X106142221Y-138775225D01*
X106197305Y-138807588D01*
X106275111Y-138927398D01*
X106282271Y-138990883D01*
X106273870Y-139030407D01*
X106241507Y-139085491D01*
X106097735Y-139178858D01*
X106034250Y-139186018D01*
X105994727Y-139177617D01*
X106550816Y-138407678D02*
X106768671Y-138743146D01*
X106306517Y-138293788D02*
X106420124Y-138731023D01*
X106731630Y-138528729D01*
X104113256Y-136709754D02*
X103850234Y-136170477D01*
X103978633Y-136107853D01*
X104068197Y-136095958D01*
X104144607Y-136122268D01*
X104195336Y-136161103D01*
X104271116Y-136251297D01*
X104308690Y-136328336D01*
X104333110Y-136443581D01*
X104332480Y-136507465D01*
X104306170Y-136583875D01*
X104241655Y-136647129D01*
X104113256Y-136709754D01*
X104338150Y-135932504D02*
X104671988Y-135769681D01*
X104592428Y-136062794D01*
X104669468Y-136025219D01*
X104733353Y-136025849D01*
X104771557Y-136039004D01*
X104822287Y-136077839D01*
X104884911Y-136206238D01*
X104884281Y-136270122D01*
X104871126Y-136308327D01*
X104832292Y-136359057D01*
X104678213Y-136434206D01*
X104614328Y-136433576D01*
X104576123Y-136420421D01*
X104851747Y-135682006D02*
X105185585Y-135519183D01*
X105106025Y-135812296D01*
X105183065Y-135774721D01*
X105246949Y-135775351D01*
X105285154Y-135788506D01*
X105335883Y-135827341D01*
X105398508Y-135955740D01*
X105397878Y-136019625D01*
X105384723Y-136057829D01*
X105345888Y-136108559D01*
X105191809Y-136183708D01*
X105127925Y-136183078D01*
X105089720Y-136169923D01*
X103037413Y-133718548D02*
X102852003Y-133147914D01*
X102987868Y-133103769D01*
X103078216Y-133104455D01*
X103150220Y-133141143D01*
X103195052Y-133186660D01*
X103257541Y-133286523D01*
X103284028Y-133368042D01*
X103292171Y-133485564D01*
X103282656Y-133548739D01*
X103245968Y-133620743D01*
X103173278Y-133674403D01*
X103037413Y-133718548D01*
X103368291Y-132980162D02*
X103721540Y-132865385D01*
X103601961Y-133144572D01*
X103683480Y-133118085D01*
X103746656Y-133127600D01*
X103782658Y-133145944D01*
X103827489Y-133191461D01*
X103871634Y-133327326D01*
X103862119Y-133390502D01*
X103843775Y-133426504D01*
X103798258Y-133471335D01*
X103635220Y-133524309D01*
X103572045Y-133514794D01*
X103536043Y-133496450D01*
X103956583Y-132849098D02*
X103974927Y-132813096D01*
X104020444Y-132768265D01*
X104156309Y-132724120D01*
X104219484Y-132733635D01*
X104255486Y-132751979D01*
X104300317Y-132797496D01*
X104317975Y-132851842D01*
X104317289Y-132942190D01*
X104097162Y-133374215D01*
X104450411Y-133259437D01*
X102341358Y-130629955D02*
X102226873Y-130040979D01*
X102367105Y-130013720D01*
X102456696Y-130025412D01*
X102523693Y-130070601D01*
X102562642Y-130121243D01*
X102612496Y-130227977D01*
X102628851Y-130312117D01*
X102622611Y-130429754D01*
X102605468Y-130491299D01*
X102560278Y-130558295D01*
X102481590Y-130602697D01*
X102341358Y-130629955D01*
X102759756Y-129937397D02*
X103124360Y-129866525D01*
X102971648Y-130129059D01*
X103055788Y-130112704D01*
X103117332Y-130129847D01*
X103150831Y-130152441D01*
X103189781Y-130203083D01*
X103217039Y-130343315D01*
X103199896Y-130404860D01*
X103177301Y-130438358D01*
X103126660Y-130477308D01*
X102958381Y-130510018D01*
X102896836Y-130492875D01*
X102863338Y-130470280D01*
X103799776Y-130346467D02*
X103463218Y-130411888D01*
X103631497Y-130379178D02*
X103517011Y-129790201D01*
X103477273Y-129885244D01*
X103432084Y-129952240D01*
X103381442Y-129991190D01*
X102044522Y-127477439D02*
X102002668Y-126878901D01*
X102145177Y-126868936D01*
X102232676Y-126891459D01*
X102293665Y-126944476D01*
X102326153Y-126999487D01*
X102362627Y-127111501D01*
X102368606Y-127197006D01*
X102348077Y-127313007D01*
X102323561Y-127372004D01*
X102270543Y-127432993D01*
X102187031Y-127467474D01*
X102044522Y-127477439D01*
X102544203Y-126841033D02*
X102914726Y-126815124D01*
X102731158Y-127057090D01*
X102816663Y-127051110D01*
X102875660Y-127075626D01*
X102906155Y-127102135D01*
X102938643Y-127157146D01*
X102948608Y-127299655D01*
X102924092Y-127358651D01*
X102897584Y-127389146D01*
X102842573Y-127421634D01*
X102671562Y-127433593D01*
X102612565Y-127409077D01*
X102582070Y-127382568D01*
X103285250Y-126789214D02*
X103342254Y-126785228D01*
X103401251Y-126809744D01*
X103431745Y-126836253D01*
X103464233Y-126891263D01*
X103500707Y-127003277D01*
X103510673Y-127145787D01*
X103490143Y-127261787D01*
X103465627Y-127320784D01*
X103439118Y-127351279D01*
X103384108Y-127383766D01*
X103327104Y-127387753D01*
X103268107Y-127363237D01*
X103237613Y-127336728D01*
X103205125Y-127281717D01*
X103168651Y-127169703D01*
X103158685Y-127027194D01*
X103179215Y-126911194D01*
X103203731Y-126852197D01*
X103230240Y-126821702D01*
X103285250Y-126789214D01*
X102169884Y-124299794D02*
X102211738Y-123701256D01*
X102354247Y-123711221D01*
X102437759Y-123745702D01*
X102490777Y-123806692D01*
X102515293Y-123865688D01*
X102535822Y-123981689D01*
X102529843Y-124067194D01*
X102493369Y-124179209D01*
X102460881Y-124234219D01*
X102399892Y-124287237D01*
X102312393Y-124309760D01*
X102169884Y-124299794D01*
X102777788Y-123798120D02*
X102808283Y-123771612D01*
X102867280Y-123747096D01*
X103009789Y-123757061D01*
X103064800Y-123789549D01*
X103091308Y-123820044D01*
X103115824Y-123879041D01*
X103111838Y-123936044D01*
X103077357Y-124019557D01*
X102711419Y-124337662D01*
X103081942Y-124363572D01*
X103366961Y-124383502D02*
X103480968Y-124391474D01*
X103539965Y-124366959D01*
X103570460Y-124340450D01*
X103633442Y-124258930D01*
X103669916Y-124146916D01*
X103685861Y-123918901D01*
X103661345Y-123859905D01*
X103634836Y-123829410D01*
X103579826Y-123796922D01*
X103465818Y-123788950D01*
X103406822Y-123813465D01*
X103376327Y-123839974D01*
X103343839Y-123894985D01*
X103333874Y-124037494D01*
X103358389Y-124096491D01*
X103384898Y-124126986D01*
X103439909Y-124159474D01*
X103553916Y-124167446D01*
X103612913Y-124142930D01*
X103643408Y-124116421D01*
X103675896Y-124061411D01*
X102684270Y-121175919D02*
X102798755Y-120586943D01*
X102938988Y-120614201D01*
X103017676Y-120658603D01*
X103062865Y-120725599D01*
X103080008Y-120787144D01*
X103086248Y-120904782D01*
X103069893Y-120988921D01*
X103020040Y-121095655D01*
X102981090Y-121146297D01*
X102914094Y-121191486D01*
X102824502Y-121203178D01*
X102684270Y-121175919D01*
X103348782Y-120752070D02*
X103382280Y-120729475D01*
X103443825Y-120712332D01*
X103584057Y-120739590D01*
X103634698Y-120778540D01*
X103657293Y-120812038D01*
X103674436Y-120873583D01*
X103663533Y-120929676D01*
X103619131Y-121008364D01*
X103217153Y-121279501D01*
X103581758Y-121350373D01*
X103983736Y-121079235D02*
X103933095Y-121040286D01*
X103910500Y-121006787D01*
X103893357Y-120945243D01*
X103898808Y-120917196D01*
X103937758Y-120866555D01*
X103971256Y-120843960D01*
X104032801Y-120826817D01*
X104144987Y-120848624D01*
X104195628Y-120887574D01*
X104218223Y-120921072D01*
X104235366Y-120982616D01*
X104229914Y-121010663D01*
X104190965Y-121061304D01*
X104157466Y-121083899D01*
X104095922Y-121101042D01*
X103983736Y-121079235D01*
X103922191Y-121096379D01*
X103888693Y-121118973D01*
X103849743Y-121169615D01*
X103827936Y-121281801D01*
X103845079Y-121343345D01*
X103867674Y-121376843D01*
X103918316Y-121415793D01*
X104030502Y-121437600D01*
X104092046Y-121420457D01*
X104125544Y-121397862D01*
X104164494Y-121347221D01*
X104186301Y-121235035D01*
X104169158Y-121173490D01*
X104146563Y-121139992D01*
X104095922Y-121101042D01*
X103592761Y-118142266D02*
X103778171Y-117571633D01*
X103914036Y-117615778D01*
X103986726Y-117669438D01*
X104023414Y-117741442D01*
X104032929Y-117804617D01*
X104024786Y-117922139D01*
X103998299Y-118003658D01*
X103935810Y-118103521D01*
X103890978Y-118149038D01*
X103818974Y-118185726D01*
X103728626Y-118186412D01*
X103592761Y-118142266D01*
X104303974Y-117802560D02*
X104339976Y-117784216D01*
X104403151Y-117774701D01*
X104539016Y-117818846D01*
X104584533Y-117863677D01*
X104602877Y-117899679D01*
X104612392Y-117962855D01*
X104594734Y-118017201D01*
X104541074Y-118089891D01*
X104109049Y-118310019D01*
X104462298Y-118424796D01*
X104837920Y-117915966D02*
X105218342Y-118039573D01*
X104788375Y-118530745D01*
X104901071Y-115244984D02*
X105164094Y-114705708D01*
X105292493Y-114768332D01*
X105357008Y-114831587D01*
X105383318Y-114907996D01*
X105383948Y-114971881D01*
X105359528Y-115087125D01*
X105321953Y-115164164D01*
X105246174Y-115254359D01*
X105195444Y-115293194D01*
X105119035Y-115319503D01*
X105029471Y-115307609D01*
X104901071Y-115244984D01*
X105652641Y-115007565D02*
X105690846Y-114994410D01*
X105754730Y-114993780D01*
X105883129Y-115056405D01*
X105921964Y-115107134D01*
X105935119Y-115145339D01*
X105935749Y-115209224D01*
X105910699Y-115260583D01*
X105847445Y-115325098D01*
X105388988Y-115482957D01*
X105722826Y-115645781D01*
X106448086Y-115331952D02*
X106345366Y-115281853D01*
X106281482Y-115282483D01*
X106243277Y-115295638D01*
X106154343Y-115347627D01*
X106078563Y-115437822D01*
X105978364Y-115643260D01*
X105978994Y-115707145D01*
X105992149Y-115745350D01*
X106030984Y-115796079D01*
X106133703Y-115846179D01*
X106197588Y-115845549D01*
X106235792Y-115832394D01*
X106286522Y-115793559D01*
X106349147Y-115665160D01*
X106348516Y-115601275D01*
X106335362Y-115563071D01*
X106296527Y-115512341D01*
X106193807Y-115462242D01*
X106129923Y-115462872D01*
X106091718Y-115476027D01*
X106040989Y-115514861D01*
X106549365Y-112541585D02*
X106876149Y-112038383D01*
X106995959Y-112116188D01*
X107052284Y-112186834D01*
X107069086Y-112265880D01*
X107061926Y-112329365D01*
X107023643Y-112440774D01*
X106976960Y-112512660D01*
X106890753Y-112592947D01*
X106835669Y-112625310D01*
X106756623Y-112642112D01*
X106669176Y-112619391D01*
X106549365Y-112541585D01*
X107324267Y-112397529D02*
X107363790Y-112389128D01*
X107427275Y-112396289D01*
X107547085Y-112474094D01*
X107579448Y-112529178D01*
X107587849Y-112568701D01*
X107580689Y-112632187D01*
X107549567Y-112680111D01*
X107478921Y-112736436D01*
X107004644Y-112837246D01*
X107316150Y-113039541D01*
X108098212Y-112832000D02*
X107858592Y-112676389D01*
X107679018Y-112900448D01*
X107718542Y-112892047D01*
X107782027Y-112899207D01*
X107901837Y-112977013D01*
X107934200Y-113032097D01*
X107942601Y-113071620D01*
X107935440Y-113135105D01*
X107857635Y-113254915D01*
X107802551Y-113287278D01*
X107763027Y-113295679D01*
X107699542Y-113288519D01*
X107579732Y-113210713D01*
X107547369Y-113155629D01*
X107538968Y-113116106D01*
X108529472Y-110071337D02*
X108915145Y-109611710D01*
X109024580Y-109703537D01*
X109071876Y-109780520D01*
X109078919Y-109861025D01*
X109064075Y-109923164D01*
X109012501Y-110029078D01*
X108957405Y-110094739D01*
X108862056Y-110163921D01*
X108803438Y-110189330D01*
X108722934Y-110196373D01*
X108638907Y-110163164D01*
X108529472Y-110071337D01*
X109316154Y-110022792D02*
X109356406Y-110019270D01*
X109418546Y-110034114D01*
X109527981Y-110125941D01*
X109553389Y-110184558D01*
X109556911Y-110224811D01*
X109542067Y-110286950D01*
X109505336Y-110330724D01*
X109428353Y-110378020D01*
X108945325Y-110420279D01*
X109229856Y-110659029D01*
X109880937Y-110683187D02*
X109623822Y-110989605D01*
X109918425Y-110416265D02*
X109533509Y-110652743D01*
X109818040Y-110891492D01*
X110830258Y-107875304D02*
X111276145Y-107473825D01*
X111371735Y-107579989D01*
X111407857Y-107662805D01*
X111403627Y-107743506D01*
X111380280Y-107802975D01*
X111314467Y-107900680D01*
X111250769Y-107958034D01*
X111146720Y-108013273D01*
X111085137Y-108030277D01*
X111004435Y-108026047D01*
X110925848Y-107981467D01*
X110830258Y-107875304D01*
X111616040Y-107936715D02*
X111656391Y-107938830D01*
X111715860Y-107962178D01*
X111811450Y-108068341D01*
X111828453Y-108129925D01*
X111826338Y-108170275D01*
X111802991Y-108229744D01*
X111760526Y-108267980D01*
X111677709Y-108304101D01*
X111193501Y-108278725D01*
X111442035Y-108554750D01*
X112021748Y-108301901D02*
X112270282Y-108577926D01*
X111966594Y-108582241D01*
X112023948Y-108645939D01*
X112040952Y-108707523D01*
X112038837Y-108747874D01*
X112015490Y-108807342D01*
X111909326Y-108902932D01*
X111847743Y-108919936D01*
X111807392Y-108917821D01*
X111747923Y-108894474D01*
X111633215Y-108767077D01*
X111616212Y-108705494D01*
X111618326Y-108665143D01*
X113372175Y-105988790D02*
X113863666Y-105644644D01*
X113945606Y-105761666D01*
X113971365Y-105848267D01*
X113957332Y-105927851D01*
X113926911Y-105984031D01*
X113849682Y-106072987D01*
X113779469Y-106122151D01*
X113669463Y-106164298D01*
X113606267Y-106173670D01*
X113526682Y-106159637D01*
X113454114Y-106105811D01*
X113372175Y-105988790D01*
X114144615Y-106145507D02*
X114184408Y-106152523D01*
X114240588Y-106182944D01*
X114322527Y-106299966D01*
X114331899Y-106363162D01*
X114324882Y-106402954D01*
X114294461Y-106459135D01*
X114247653Y-106491910D01*
X114161052Y-106517670D01*
X113683545Y-106433472D01*
X113896588Y-106737729D01*
X114472373Y-106613593D02*
X114512166Y-106620610D01*
X114568346Y-106651031D01*
X114650285Y-106768052D01*
X114659657Y-106831249D01*
X114652640Y-106871041D01*
X114622219Y-106927221D01*
X114575411Y-106959997D01*
X114488810Y-106985757D01*
X114011303Y-106901559D01*
X114224346Y-107205816D01*
X116135348Y-104441855D02*
X116665116Y-104160172D01*
X116732184Y-104286308D01*
X116747197Y-104375402D01*
X116723570Y-104452683D01*
X116686529Y-104504737D01*
X116599034Y-104583618D01*
X116523353Y-104623859D01*
X116409031Y-104652286D01*
X116345164Y-104653885D01*
X116267883Y-104630258D01*
X116202415Y-104567990D01*
X116135348Y-104441855D01*
X116882932Y-104691541D02*
X116921572Y-104703354D01*
X116973626Y-104740395D01*
X117040694Y-104866530D01*
X117042293Y-104930398D01*
X117030480Y-104969038D01*
X116993439Y-105021092D01*
X116942985Y-105047919D01*
X116853890Y-105062933D01*
X116390204Y-104921170D01*
X116564579Y-105249121D01*
X116832848Y-105753663D02*
X116671887Y-105450938D01*
X116752367Y-105602301D02*
X117282136Y-105320618D01*
X117179628Y-105310404D01*
X117102347Y-105286777D01*
X117050293Y-105249736D01*
X119091194Y-103270036D02*
X119655010Y-103064824D01*
X119703870Y-103199066D01*
X119706337Y-103289383D01*
X119672185Y-103362624D01*
X119628260Y-103409016D01*
X119530638Y-103474953D01*
X119450093Y-103504269D01*
X119332928Y-103516508D01*
X119269459Y-103509204D01*
X119196218Y-103475051D01*
X119140054Y-103404278D01*
X119091194Y-103270036D01*
X119796753Y-103621335D02*
X119833373Y-103638412D01*
X119879766Y-103682337D01*
X119928626Y-103816578D01*
X119921321Y-103880047D01*
X119904245Y-103916667D01*
X119860320Y-103963060D01*
X119806624Y-103982604D01*
X119716306Y-103985071D01*
X119276862Y-103780155D01*
X119403898Y-104129184D01*
X120094750Y-104273000D02*
X120114294Y-104326697D01*
X120106989Y-104390166D01*
X120089913Y-104426786D01*
X120045988Y-104473179D01*
X119948367Y-104539115D01*
X119814125Y-104587975D01*
X119696960Y-104600215D01*
X119633491Y-104592910D01*
X119596871Y-104575834D01*
X119550478Y-104531909D01*
X119530934Y-104478213D01*
X119538239Y-104414744D01*
X119555315Y-104378123D01*
X119599240Y-104331731D01*
X119696861Y-104265795D01*
X119831103Y-104216935D01*
X119948268Y-104204695D01*
X120011737Y-104211999D01*
X120048357Y-104229076D01*
X120094750Y-104273000D01*
X122155648Y-102474966D02*
X122740270Y-102339996D01*
X122772406Y-102479192D01*
X122763848Y-102569136D01*
X122721024Y-102637669D01*
X122671773Y-102678362D01*
X122566844Y-102731910D01*
X122483326Y-102751192D01*
X122365542Y-102749061D01*
X122303437Y-102734076D01*
X122234904Y-102691252D01*
X122187784Y-102614162D01*
X122155648Y-102474966D01*
X122361317Y-103365819D02*
X122284191Y-103031749D01*
X122322754Y-103198784D02*
X122907376Y-103063814D01*
X122811004Y-103027417D01*
X122742472Y-102984593D01*
X122701778Y-102935342D01*
X122425589Y-103644211D02*
X122451298Y-103755567D01*
X122491991Y-103804818D01*
X122526257Y-103826230D01*
X122622629Y-103862627D01*
X122740413Y-103864757D01*
X122963126Y-103813340D01*
X123012377Y-103772647D01*
X123033789Y-103738380D01*
X123048774Y-103676275D01*
X123023065Y-103564918D01*
X122982372Y-103515667D01*
X122948106Y-103494255D01*
X122886000Y-103479270D01*
X122746804Y-103511406D01*
X122697553Y-103552100D01*
X122676141Y-103586366D01*
X122661156Y-103648471D01*
X122686865Y-103759828D01*
X122727559Y-103809079D01*
X122761825Y-103830491D01*
X122823930Y-103845476D01*
X125297492Y-102077493D02*
X125894206Y-102014776D01*
X125909138Y-102156851D01*
X125889683Y-102245082D01*
X125838826Y-102307885D01*
X125784983Y-102342273D01*
X125674310Y-102382634D01*
X125589065Y-102391593D01*
X125472419Y-102375125D01*
X125412602Y-102352683D01*
X125349800Y-102301826D01*
X125312425Y-102219568D01*
X125297492Y-102077493D01*
X125393061Y-102986770D02*
X125357223Y-102645791D01*
X125375142Y-102816281D02*
X125971855Y-102753564D01*
X125880637Y-102705694D01*
X125817835Y-102654837D01*
X125783447Y-102600994D01*
X125769879Y-103291911D02*
X125792320Y-103232095D01*
X125817749Y-103200693D01*
X125871592Y-103166305D01*
X125900007Y-103163319D01*
X125959823Y-103185761D01*
X125991225Y-103211189D01*
X126025613Y-103265032D01*
X126037559Y-103378692D01*
X126015117Y-103438508D01*
X125989689Y-103469910D01*
X125935845Y-103504298D01*
X125907430Y-103507284D01*
X125847614Y-103484842D01*
X125816213Y-103459414D01*
X125781825Y-103405571D01*
X125769879Y-103291911D01*
X125735491Y-103238068D01*
X125704089Y-103212639D01*
X125644273Y-103190198D01*
X125530613Y-103202144D01*
X125476770Y-103236532D01*
X125451341Y-103267933D01*
X125428900Y-103327749D01*
X125440846Y-103441409D01*
X125475234Y-103495252D01*
X125506635Y-103520681D01*
X125566451Y-103543123D01*
X125680111Y-103531176D01*
X125733954Y-103496788D01*
X125759383Y-103465387D01*
X125781825Y-103405571D01*
X128969123Y-103575432D02*
X128369488Y-103554492D01*
X128374474Y-103411722D01*
X128406020Y-103327057D01*
X128465122Y-103271943D01*
X128523227Y-103245384D01*
X128638440Y-103220818D01*
X128724102Y-103223809D01*
X128837321Y-103256352D01*
X128893432Y-103286900D01*
X128948546Y-103346003D01*
X128974109Y-103432662D01*
X128969123Y-103575432D01*
X129001031Y-102661703D02*
X128989066Y-103004351D01*
X128995048Y-102833027D02*
X128395414Y-102812088D01*
X128479082Y-102872187D01*
X128534195Y-102931289D01*
X128560755Y-102989394D01*
X128408376Y-102440885D02*
X128422336Y-102041129D01*
X129012997Y-102319055D01*
X131924708Y-104038090D02*
X131332095Y-103944229D01*
X131354442Y-103803131D01*
X131396071Y-103722941D01*
X131461449Y-103675441D01*
X131522358Y-103656161D01*
X131639706Y-103645819D01*
X131724365Y-103659228D01*
X131832774Y-103705326D01*
X131884744Y-103742484D01*
X131932244Y-103807863D01*
X131947055Y-103896991D01*
X131924708Y-104038090D01*
X132067733Y-103135060D02*
X132014099Y-103473696D01*
X132040916Y-103304378D02*
X131448303Y-103210518D01*
X131524023Y-103280366D01*
X131571523Y-103345744D01*
X131590804Y-103406653D01*
X131555572Y-102533246D02*
X131537694Y-102646124D01*
X131556975Y-102707033D01*
X131580725Y-102739723D01*
X131656445Y-102809571D01*
X131764854Y-102855668D01*
X131990611Y-102891425D01*
X132051520Y-102872144D01*
X132084209Y-102848394D01*
X132121368Y-102796424D01*
X132139246Y-102683546D01*
X132119966Y-102622637D01*
X132096216Y-102589948D01*
X132044246Y-102552789D01*
X131903148Y-102530441D01*
X131842239Y-102549722D01*
X131809549Y-102573472D01*
X131772391Y-102625442D01*
X131754512Y-102738320D01*
X131773793Y-102799229D01*
X131797543Y-102831918D01*
X131849513Y-102869077D01*
X134779431Y-104895169D02*
X134205648Y-104719746D01*
X134247416Y-104583131D01*
X134299799Y-104509515D01*
X134371152Y-104471576D01*
X134434152Y-104460960D01*
X134551797Y-104467051D01*
X134633766Y-104492112D01*
X134734705Y-104552849D01*
X134780997Y-104596878D01*
X134818936Y-104668231D01*
X134821199Y-104758554D01*
X134779431Y-104895169D01*
X135046743Y-104020833D02*
X134946501Y-104348709D01*
X134996622Y-104184771D02*
X134422839Y-104009348D01*
X134488101Y-104089054D01*
X134526040Y-104160407D01*
X134536656Y-104223407D01*
X134631676Y-103326273D02*
X134548141Y-103599503D01*
X134813017Y-103710361D01*
X134794048Y-103674684D01*
X134783432Y-103611685D01*
X134825199Y-103475070D01*
X134869229Y-103428777D01*
X134904906Y-103409808D01*
X134967905Y-103399192D01*
X135104520Y-103440959D01*
X135150813Y-103484989D01*
X135169782Y-103520666D01*
X135180398Y-103583665D01*
X135138631Y-103720280D01*
X135094601Y-103766573D01*
X135058924Y-103785542D01*
X137520473Y-106090865D02*
X136972346Y-105846823D01*
X137030451Y-105716316D01*
X137091416Y-105649633D01*
X137166860Y-105620673D01*
X137230684Y-105617814D01*
X137346710Y-105638196D01*
X137425014Y-105673060D01*
X137517798Y-105745645D01*
X137558380Y-105794988D01*
X137587340Y-105870433D01*
X137578578Y-105960358D01*
X137520473Y-106090865D01*
X137892347Y-105255623D02*
X137752894Y-105568839D01*
X137822620Y-105412231D02*
X137274493Y-105168189D01*
X137329555Y-105255255D01*
X137358515Y-105330699D01*
X137361375Y-105394523D01*
X137736107Y-104623105D02*
X138101525Y-104785800D01*
X137469192Y-104660643D02*
X137802606Y-104965465D01*
X137953680Y-104626148D01*
X140086303Y-107628898D02*
X139572003Y-107319875D01*
X139645580Y-107197423D01*
X139714216Y-107138667D01*
X139792628Y-107119116D01*
X139856324Y-107124057D01*
X139969002Y-107158428D01*
X140042473Y-107202574D01*
X140125720Y-107285926D01*
X140159985Y-107339847D01*
X140179536Y-107418259D01*
X140159880Y-107506446D01*
X140086303Y-107628898D01*
X140557195Y-106845202D02*
X140380611Y-107139088D01*
X140468903Y-106992145D02*
X139954603Y-106683122D01*
X139998643Y-106776250D01*
X140018193Y-106854661D01*
X140013253Y-106918358D01*
X140145902Y-106364746D02*
X140337202Y-106046370D01*
X140430119Y-106335526D01*
X140474265Y-106262055D01*
X140528186Y-106227789D01*
X140567392Y-106218014D01*
X140631088Y-106222954D01*
X140753541Y-106296531D01*
X140787806Y-106350452D01*
X140797581Y-106389658D01*
X140792641Y-106453354D01*
X140704349Y-106600297D01*
X140650428Y-106634563D01*
X140611222Y-106644338D01*
X142410695Y-109494326D02*
X141944408Y-109116734D01*
X142034311Y-109005713D01*
X142110457Y-108957081D01*
X142190826Y-108948634D01*
X142253215Y-108962391D01*
X142360012Y-109012109D01*
X142426625Y-109066051D01*
X142497461Y-109160178D01*
X142523889Y-109218343D01*
X142532336Y-109298712D01*
X142500598Y-109383306D01*
X142410695Y-109494326D01*
X142986074Y-108783793D02*
X142770307Y-109050243D01*
X142878190Y-108917018D02*
X142411903Y-108539426D01*
X142442554Y-108637776D01*
X142451001Y-108718145D01*
X142437244Y-108780534D01*
X142708039Y-108264528D02*
X142703816Y-108224344D01*
X142717573Y-108161955D01*
X142807476Y-108050934D01*
X142865641Y-108024506D01*
X142905826Y-108020283D01*
X142968215Y-108034040D01*
X143012623Y-108070001D01*
X143061255Y-108146147D01*
X143111938Y-108628364D01*
X143345686Y-108339710D01*
X144502209Y-111631985D02*
X144085414Y-111200381D01*
X144188177Y-111101144D01*
X144269682Y-111062155D01*
X144350482Y-111063565D01*
X144410729Y-111084823D01*
X144510671Y-111147186D01*
X144570214Y-111208843D01*
X144629051Y-111310901D01*
X144648193Y-111371854D01*
X144646782Y-111452653D01*
X144604972Y-111532748D01*
X144502209Y-111631985D01*
X145159891Y-110996869D02*
X144913261Y-111235037D01*
X145036576Y-111115953D02*
X144619781Y-110684349D01*
X144638218Y-110785702D01*
X144636808Y-110866502D01*
X144615550Y-110926749D01*
X145570943Y-110599921D02*
X145324312Y-110838090D01*
X145447627Y-110719006D02*
X145030832Y-110287402D01*
X145049269Y-110388754D01*
X145047859Y-110469554D01*
X145026601Y-110529801D01*
X146304610Y-114019641D02*
X145943521Y-113540460D01*
X146057612Y-113454486D01*
X146143261Y-113425720D01*
X146223287Y-113436967D01*
X146280495Y-113465409D01*
X146372092Y-113539487D01*
X146423676Y-113607941D01*
X146469636Y-113716409D01*
X146481208Y-113779240D01*
X146469961Y-113859265D01*
X146418701Y-113933668D01*
X146304610Y-114019641D01*
X147034791Y-113469410D02*
X146760973Y-113675747D01*
X146897882Y-113572579D02*
X146536793Y-113093397D01*
X146542741Y-113196241D01*
X146531494Y-113276267D01*
X146503053Y-113333475D01*
X146970338Y-112766698D02*
X147015975Y-112732308D01*
X147078806Y-112720737D01*
X147118819Y-112726360D01*
X147176026Y-112754802D01*
X147267623Y-112828880D01*
X147353597Y-112942971D01*
X147399557Y-113051438D01*
X147411129Y-113114269D01*
X147405505Y-113154282D01*
X147377064Y-113211490D01*
X147331427Y-113245879D01*
X147268596Y-113257450D01*
X147228583Y-113251827D01*
X147171376Y-113223385D01*
X147079779Y-113149307D01*
X146993805Y-113035217D01*
X146947845Y-112926749D01*
X146936273Y-112863918D01*
X146941897Y-112823905D01*
X146970338Y-112766698D01*
X148008486Y-116483403D02*
X147717600Y-115958631D01*
X147842546Y-115889372D01*
X147931365Y-115872806D01*
X148009047Y-115895081D01*
X148061739Y-115931208D01*
X148142135Y-116017313D01*
X148183690Y-116092280D01*
X148214108Y-116206088D01*
X148216822Y-116269918D01*
X148194547Y-116347600D01*
X148133432Y-116414144D01*
X148008486Y-116483403D01*
X148558247Y-116178665D02*
X148658204Y-116123258D01*
X148694330Y-116070566D01*
X148705468Y-116031725D01*
X148713891Y-115929054D01*
X148683473Y-115815246D01*
X148572659Y-115615333D01*
X148519967Y-115579206D01*
X148481126Y-115568069D01*
X148417296Y-115570783D01*
X148317340Y-115626190D01*
X148281213Y-115678883D01*
X148270076Y-115717723D01*
X148272790Y-115781553D01*
X148342048Y-115906499D01*
X148394741Y-115942626D01*
X148433582Y-115953763D01*
X148497412Y-115951049D01*
X148597368Y-115895642D01*
X148633495Y-115842949D01*
X148644632Y-115804109D01*
X148641918Y-115740279D01*
X149160358Y-119281366D02*
X148935594Y-118725056D01*
X149068049Y-118671540D01*
X149158225Y-118665922D01*
X149232613Y-118697498D01*
X149280510Y-118739777D01*
X149349814Y-118835038D01*
X149381923Y-118914511D01*
X149398244Y-119031178D01*
X149393159Y-119094863D01*
X149361583Y-119169251D01*
X149292813Y-119227851D01*
X149160358Y-119281366D01*
X149667705Y-118706601D02*
X149604020Y-118701516D01*
X149566826Y-118685728D01*
X149518929Y-118643450D01*
X149508226Y-118616959D01*
X149513311Y-118553274D01*
X149529099Y-118516080D01*
X149571378Y-118468182D01*
X149677342Y-118425370D01*
X149741027Y-118430455D01*
X149778221Y-118446243D01*
X149826118Y-118488522D01*
X149836821Y-118515013D01*
X149831736Y-118578698D01*
X149815948Y-118615892D01*
X149773669Y-118663789D01*
X149667705Y-118706601D01*
X149625426Y-118754498D01*
X149609638Y-118791692D01*
X149604553Y-118855377D01*
X149647366Y-118961341D01*
X149695263Y-119003620D01*
X149732457Y-119019408D01*
X149796142Y-119024493D01*
X149902106Y-118981681D01*
X149944384Y-118933784D01*
X149960172Y-118896590D01*
X149965257Y-118832905D01*
X149922445Y-118726941D01*
X149874548Y-118684662D01*
X149837354Y-118668874D01*
X149773669Y-118663789D01*
X149945301Y-122203932D02*
X149790010Y-121624377D01*
X149927999Y-121587403D01*
X150018188Y-121592816D01*
X150088173Y-121633222D01*
X150130561Y-121681023D01*
X150187738Y-121784020D01*
X150209922Y-121866813D01*
X150211904Y-121984600D01*
X150199096Y-122047190D01*
X150158689Y-122117176D01*
X150083291Y-122166958D01*
X149945301Y-122203932D01*
X150314370Y-121483875D02*
X150700740Y-121380347D01*
X150607650Y-122026456D01*
X150324109Y-125200655D02*
X150250988Y-124605127D01*
X150392780Y-124587717D01*
X150481337Y-124605630D01*
X150545018Y-124655382D01*
X150580341Y-124708617D01*
X150622627Y-124818569D01*
X150633073Y-124903645D01*
X150618642Y-125020560D01*
X150597248Y-125080759D01*
X150547495Y-125144440D01*
X150465901Y-125183245D01*
X150324109Y-125200655D01*
X151101741Y-124500667D02*
X150988308Y-124514595D01*
X150935073Y-124549918D01*
X150910196Y-124581758D01*
X150863925Y-124673798D01*
X150849495Y-124790713D01*
X150877350Y-125017581D01*
X150912673Y-125070816D01*
X150944513Y-125095693D01*
X151004712Y-125117087D01*
X151118146Y-125103159D01*
X151171381Y-125067837D01*
X151196258Y-125035996D01*
X151217652Y-124975797D01*
X151200242Y-124834005D01*
X151164920Y-124780770D01*
X151133079Y-124755894D01*
X151072880Y-124734499D01*
X150959446Y-124748427D01*
X150906212Y-124783749D01*
X150881335Y-124815590D01*
X150859941Y-124875789D01*
X150342142Y-128226428D02*
X150342142Y-127626428D01*
X150485000Y-127626428D01*
X150570714Y-127655000D01*
X150627857Y-127712142D01*
X150656428Y-127769285D01*
X150685000Y-127883571D01*
X150685000Y-127969285D01*
X150656428Y-128083571D01*
X150627857Y-128140714D01*
X150570714Y-128197857D01*
X150485000Y-128226428D01*
X150342142Y-128226428D01*
X151227857Y-127626428D02*
X150942142Y-127626428D01*
X150913571Y-127912142D01*
X150942142Y-127883571D01*
X150999285Y-127855000D01*
X151142142Y-127855000D01*
X151199285Y-127883571D01*
X151227857Y-127912142D01*
X151256428Y-127969285D01*
X151256428Y-128112142D01*
X151227857Y-128169285D01*
X151199285Y-128197857D01*
X151142142Y-128226428D01*
X150999285Y-128226428D01*
X150942142Y-128197857D01*
X150913571Y-128169285D01*
M02*
