M48
; DRILL file {KiCad 5.1.5-52549c5~84~ubuntu18.04.1} date Do 13 Feb 2020 00:00:56 CET
; FORMAT={-:-/ absolute / inch / decimal}
; #@! TF.CreationDate,2020-02-13T00:00:56+01:00
; #@! TF.GenerationSoftware,Kicad,Pcbnew,5.1.5-52549c5~84~ubuntu18.04.1
FMAT,2
INCH
T1C0.0079
T2C0.0118
T3C0.0236
T4C0.0197
T5C0.0866
%
G90
G05
T1
X5.2291Y-4.3565
X5.2665Y-4.3339
X5.2665Y-4.3792
X5.3039Y-4.3565
T2
X4.0515Y-5.099
X4.0565Y-4.5215
X4.0715Y-4.6415
X4.0915Y-4.5215
X4.1215Y-4.5315
X4.1265Y-4.1415
X4.1265Y-4.744
X4.1815Y-5.109
X4.2115Y-4.7815
X4.2115Y-5.5915
X4.234Y-4.8615
X4.2515Y-5.2415
X4.264Y-4.9565
X4.264Y-5.0215
X4.264Y-5.149
X4.2715Y-4.8615
X4.2815Y-4.2065
X4.2915Y-4.1515
X4.2915Y-4.2615
X4.2915Y-5.3315
X4.3015Y-4.8815
X4.3015Y-5.6815
X4.3215Y-4.0115
X4.3315Y-5.4215
X4.3915Y-4.7215
X4.3915Y-5.7715
X4.4015Y-4.6615
X4.4015Y-5.3415
X4.4015Y-5.4215
X4.404Y-5.1215
X4.419Y-4.944
X4.4215Y-4.2365
X4.4215Y-4.7515
X4.4215Y-4.984
X4.4313Y-4.6413
X4.4315Y-4.6915
X4.4415Y-4.1115
X4.4415Y-5.4115
X4.4515Y-4.6115
X4.4515Y-5.089
X4.4915Y-5.8315
X4.5215Y-4.0915
X4.5365Y-4.9265
X4.5706Y-4.5524
X4.6015Y-4.1015
X4.6015Y-5.8915
X4.6115Y-5.2415
X4.6115Y-5.2815
X4.619Y-5.209
X4.6315Y-5.3115
X4.6515Y-4.8515
X4.6665Y-4.6965
X4.704Y-4.939
X4.7215Y-5.9415
X4.7415Y-4.7715
X4.7515Y-4.1515
X4.7615Y-4.2015
X4.7715Y-5.2215
X4.7965Y-4.6015
X4.8415Y-5.1215
X4.8415Y-5.3115
X4.8415Y-5.4015
X4.8515Y-5.9615
X4.8615Y-4.5315
X4.8715Y-4.0815
X4.8715Y-4.2415
X4.8815Y-5.4215
X4.9065Y-4.4365
X4.9115Y-4.2415
X4.9315Y-5.3115
X4.9415Y-5.4215
X4.9615Y-5.1315
X4.9715Y-5.9715
X5.0115Y-4.2415
X5.0115Y-5.2715
X5.0515Y-4.7215
X5.0515Y-5.4415
X5.0815Y-5.3315
X5.0915Y-4.5915
X5.0915Y-4.7215
X5.0915Y-4.9615
X5.0915Y-4.9615
X5.0915Y-5.0315
X5.0915Y-5.9715
X5.1115Y-4.3015
X5.1615Y-4.9315
X5.1615Y-5.0315
X5.1915Y-4.2615
X5.1915Y-5.4515
X5.1915Y-5.5215
X5.1915Y-5.5615
X5.2115Y-4.8615
X5.2215Y-5.4915
X5.2215Y-5.9515
X5.2315Y-4.6565
X5.2315Y-5.3415
X5.2315Y-5.4315
X5.2515Y-5.3815
X5.2715Y-4.6915
X5.2715Y-4.9415
X5.2815Y-5.1715
X5.3115Y-4.6015
X5.3215Y-4.9515
X5.3215Y-5.0715
X5.3215Y-5.2715
X5.3233Y-5.2098
X5.3315Y-4.6915
X5.3415Y-4.4115
X5.3415Y-5.3015
X5.3415Y-5.9115
X5.3515Y-4.2915
X5.3515Y-4.5015
X5.3515Y-5.1715
X5.3615Y-4.9415
X5.3615Y-5.0215
X5.3815Y-4.2415
X5.3815Y-5.0515
X5.3815Y-5.7115
X5.3915Y-4.8615
X5.3915Y-5.1115
X5.3915Y-5.2315
X5.4215Y-5.5015
X5.4365Y-4.9315
X5.4515Y-4.8215
X5.4515Y-5.2815
X5.4515Y-5.8515
X5.4615Y-4.6015
X5.4615Y-4.7915
X5.4715Y-4.7315
X5.4715Y-4.7615
X5.4815Y-4.9165
X5.4815Y-5.5215
X5.4815Y-5.6715
X5.4911Y-4.6311
X5.4915Y-4.7015
X5.5115Y-5.0615
X5.5115Y-5.0915
X5.5115Y-5.2115
X5.5215Y-4.6015
X5.5215Y-5.2915
X5.5315Y-4.6815
X5.5615Y-5.1715
X5.5715Y-5.6015
X5.6015Y-4.4915
X5.6215Y-5.4015
X5.6265Y-4.9415
X5.6315Y-5.5115
X5.6415Y-4.2815
X5.6415Y-4.4315
X5.6715Y-4.5515
X5.6915Y-5.4315
X5.7215Y-4.5415
X5.7415Y-4.7915
X5.7415Y-5.2215
X5.7415Y-5.3315
X5.7615Y-4.5315
X5.7615Y-4.8915
X5.7815Y-4.5915
X5.7815Y-4.7115
T4
X4.1525Y-4.0327
X4.1525Y-4.3004
T5
X5.6724Y-4.9915
X4.5615Y-4.9915
T3
G00X4.0009Y-3.9965
M15
G01X4.0521Y-3.9965
M16
G05
G00X4.0009Y-4.3366
M15
G01X4.0521Y-4.3366
M16
G05
G00X4.186Y-4.0201
M15
G01X4.186Y-3.9965
M16
G05
G00X4.186Y-4.3366
M15
G01X4.186Y-4.313
M16
G05
G00X4.186Y-3.9965
M15
G01X4.2254Y-3.9965
M16
G05
G00X4.186Y-4.3366
M15
G01X4.2254Y-4.3366
M16
G05
T0
M30
