M48
; DRILL file {KiCad 5.1.5-52549c5~84~ubuntu18.04.1} date Do 20 Feb 2020 23:32:21 CET
; FORMAT={3:3/ absolute / metric / suppress leading zeros}
; #@! TF.CreationDate,2020-02-20T23:32:21+01:00
; #@! TF.GenerationSoftware,Kicad,Pcbnew,5.1.5-52549c5~84~ubuntu18.04.1
FMAT,2
METRIC,TZ
T1C0.200
T2C0.300
T3C0.600
T4C0.500
T5C2.200
%
G90
G05
T1
X132820Y-110656
X133770Y-110081
X133770Y-111231
X134720Y-110656
T2
X102909Y-129516
X102909Y-130341
X103036Y-114847
X103417Y-117895
X103925Y-114847
X104687Y-115101
X104814Y-105195
X104814Y-120498
X106910Y-125578
X106973Y-121451
X106973Y-128055
X106973Y-142025
X107544Y-123483
X107989Y-133135
X108497Y-123483
X108497Y-129769
X108751Y-106846
X109005Y-105449
X109005Y-108243
X109005Y-135421
X109259Y-123991
X109259Y-131103
X109259Y-144311
X109767Y-101893
X110021Y-137707
X111545Y-119927
X111545Y-146597
X111799Y-118403
X111799Y-135675
X111799Y-137707
X111863Y-130087
X112243Y-125578
X112307Y-107608
X112307Y-120689
X112307Y-126594
X112555Y-117889
X112561Y-119165
X112815Y-104433
X112815Y-137453
X113069Y-117133
X113069Y-129261
X114085Y-148121
X114847Y-103925
X115228Y-125134
X116094Y-115632
X116879Y-104179
X116879Y-149645
X117133Y-133135
X117133Y-134151
X117323Y-132309
X117641Y-134913
X118149Y-123229
X118403Y-117387
X118530Y-119292
X119482Y-125451
X119927Y-150915
X120689Y-105449
X120943Y-106719
X121197Y-132627
X121705Y-119927
X121705Y-121197
X121705Y-136945
X121832Y-116879
X122721Y-137453
X122721Y-139231
X122975Y-130087
X122975Y-134913
X123229Y-151423
X123737Y-103671
X123737Y-107735
X123991Y-137707
X124626Y-112688
X124753Y-107735
X125261Y-115355
X125261Y-117641
X125261Y-118911
X125261Y-134913
X125515Y-137707
X126023Y-130341
X126277Y-151677
X126531Y-118911
X127293Y-107735
X127293Y-133897
X127801Y-120181
X128309Y-138215
X129071Y-135421
X129325Y-120181
X129325Y-126023
X129325Y-126023
X129325Y-127801
X129325Y-151677
X129833Y-109259
X131103Y-125261
X131103Y-127801
X131865Y-108243
X131865Y-138469
X131865Y-140247
X131865Y-141263
X132373Y-123483
X132627Y-139485
X132627Y-151169
X132881Y-118276
X132881Y-135675
X132881Y-137961
X133389Y-136691
X133511Y-117255
X133897Y-119165
X133897Y-125515
X134151Y-131357
X134913Y-116879
X135167Y-125769
X135167Y-128817
X135167Y-133897
X135211Y-132329
X135421Y-109513
X135421Y-119165
X135675Y-108751
X135675Y-112053
X135675Y-134659
X135675Y-150153
X135929Y-114339
X135929Y-131357
X136183Y-125515
X136183Y-127547
X136691Y-107735
X136691Y-128309
X136691Y-145073
X136945Y-123483
X136945Y-129833
X136945Y-132881
X137707Y-139739
X138088Y-125261
X138469Y-122467
X138469Y-134151
X138469Y-148629
X138723Y-116879
X138723Y-121705
X138977Y-120181
X138977Y-120943
X139231Y-124880
X139231Y-140247
X139231Y-144057
X139474Y-117630
X139485Y-119419
X139993Y-128563
X139993Y-129325
X139993Y-132373
X140247Y-116879
X140247Y-134405
X140501Y-118911
X141263Y-131357
X141517Y-142279
X142279Y-114085
X142787Y-137199
X142914Y-125515
X143041Y-139993
X143295Y-108751
X143295Y-112561
X144057Y-115609
X144565Y-137961
X145327Y-115355
X145835Y-121705
X145835Y-132627
X145835Y-135421
X146343Y-115101
X146343Y-124245
X146343Y-129325
X146851Y-116625
X146851Y-119673
T4
X105474Y-102430
X105474Y-109230
T5
X115863Y-126785
X144080Y-126785
T3
G00X101624Y-101510
M15
G01X102924Y-101510
M16
G05
G00X101624Y-110150
M15
G01X102924Y-110150
M16
G05
G00X106324Y-102110
M15
G01X106324Y-101510
M16
G05
G00X106324Y-110150
M15
G01X106324Y-109550
M16
G05
G00X106324Y-101510
M15
G01X107324Y-101510
M16
G05
G00X106324Y-110150
M15
G01X107324Y-110150
M16
G05
T0
M30
