G04 #@! TF.GenerationSoftware,KiCad,Pcbnew,5.1.5-52549c5~84~ubuntu18.04.1*
G04 #@! TF.CreationDate,2020-02-20T23:27:41+01:00*
G04 #@! TF.ProjectId,chase,63686173-652e-46b6-9963-61645f706362,rev?*
G04 #@! TF.SameCoordinates,Original*
G04 #@! TF.FileFunction,Soldermask,Bot*
G04 #@! TF.FilePolarity,Negative*
%FSLAX46Y46*%
G04 Gerber Fmt 4.6, Leading zero omitted, Abs format (unit mm)*
G04 Created by KiCad (PCBNEW 5.1.5-52549c5~84~ubuntu18.04.1) date 2020-02-20 23:27:41*
%MOMM*%
%LPD*%
G04 APERTURE LIST*
%ADD10C,0.100000*%
G04 APERTURE END LIST*
D10*
G36*
X136860500Y-142629000D02*
G01*
X135283500Y-142629000D01*
X135283500Y-136227000D01*
X136860500Y-136227000D01*
X136860500Y-142629000D01*
G37*
G36*
X130984500Y-142629000D02*
G01*
X129407500Y-142629000D01*
X129407500Y-136227000D01*
X130984500Y-136227000D01*
X130984500Y-142629000D01*
G37*
G36*
X138750938Y-136832716D02*
G01*
X138771557Y-136838971D01*
X138790553Y-136849124D01*
X138807208Y-136862792D01*
X138820876Y-136879447D01*
X138831029Y-136898443D01*
X138837284Y-136919062D01*
X138840000Y-136946640D01*
X138840000Y-137405360D01*
X138837284Y-137432938D01*
X138831029Y-137453557D01*
X138820876Y-137472553D01*
X138807208Y-137489208D01*
X138790553Y-137502876D01*
X138771557Y-137513029D01*
X138750938Y-137519284D01*
X138723360Y-137522000D01*
X138214640Y-137522000D01*
X138187062Y-137519284D01*
X138166443Y-137513029D01*
X138147447Y-137502876D01*
X138130792Y-137489208D01*
X138117124Y-137472553D01*
X138106971Y-137453557D01*
X138100716Y-137432938D01*
X138098000Y-137405360D01*
X138098000Y-136946640D01*
X138100716Y-136919062D01*
X138106971Y-136898443D01*
X138117124Y-136879447D01*
X138130792Y-136862792D01*
X138147447Y-136849124D01*
X138166443Y-136838971D01*
X138187062Y-136832716D01*
X138214640Y-136830000D01*
X138723360Y-136830000D01*
X138750938Y-136832716D01*
G37*
G36*
X138750938Y-135862716D02*
G01*
X138771557Y-135868971D01*
X138790553Y-135879124D01*
X138807208Y-135892792D01*
X138820876Y-135909447D01*
X138831029Y-135928443D01*
X138837284Y-135949062D01*
X138840000Y-135976640D01*
X138840000Y-136435360D01*
X138837284Y-136462938D01*
X138831029Y-136483557D01*
X138820876Y-136502553D01*
X138807208Y-136519208D01*
X138790553Y-136532876D01*
X138771557Y-136543029D01*
X138750938Y-136549284D01*
X138723360Y-136552000D01*
X138214640Y-136552000D01*
X138187062Y-136549284D01*
X138166443Y-136543029D01*
X138147447Y-136532876D01*
X138130792Y-136519208D01*
X138117124Y-136502553D01*
X138106971Y-136483557D01*
X138100716Y-136462938D01*
X138098000Y-136435360D01*
X138098000Y-135976640D01*
X138100716Y-135949062D01*
X138106971Y-135928443D01*
X138117124Y-135909447D01*
X138130792Y-135892792D01*
X138147447Y-135879124D01*
X138166443Y-135868971D01*
X138187062Y-135862716D01*
X138214640Y-135860000D01*
X138723360Y-135860000D01*
X138750938Y-135862716D01*
G37*
G36*
X114456500Y-136453000D02*
G01*
X112879500Y-136453000D01*
X112879500Y-130051000D01*
X114456500Y-130051000D01*
X114456500Y-136453000D01*
G37*
G36*
X120332500Y-136453000D02*
G01*
X118755500Y-136453000D01*
X118755500Y-130051000D01*
X120332500Y-130051000D01*
X120332500Y-136453000D01*
G37*
G36*
X134248221Y-134319674D02*
G01*
X134348495Y-134361209D01*
X134348496Y-134361210D01*
X134438742Y-134421510D01*
X134515490Y-134498258D01*
X134515491Y-134498260D01*
X134575791Y-134588505D01*
X134617326Y-134688779D01*
X134638500Y-134795230D01*
X134638500Y-134903770D01*
X134617326Y-135010221D01*
X134575791Y-135110495D01*
X134552902Y-135144751D01*
X134515490Y-135200742D01*
X134438742Y-135277490D01*
X134428999Y-135284000D01*
X134348495Y-135337791D01*
X134248221Y-135379326D01*
X134141770Y-135400500D01*
X134033230Y-135400500D01*
X133926779Y-135379326D01*
X133826505Y-135337791D01*
X133746001Y-135284000D01*
X133736258Y-135277490D01*
X133659510Y-135200742D01*
X133622098Y-135144751D01*
X133599209Y-135110495D01*
X133557674Y-135010221D01*
X133536500Y-134903770D01*
X133536500Y-134795230D01*
X133557674Y-134688779D01*
X133599209Y-134588505D01*
X133659509Y-134498260D01*
X133659510Y-134498258D01*
X133736258Y-134421510D01*
X133826504Y-134361210D01*
X133826505Y-134361209D01*
X133926779Y-134319674D01*
X134033230Y-134298500D01*
X134141770Y-134298500D01*
X134248221Y-134319674D01*
G37*
G36*
X127064938Y-134544716D02*
G01*
X127085557Y-134550971D01*
X127104553Y-134561124D01*
X127121208Y-134574792D01*
X127134876Y-134591447D01*
X127145029Y-134610443D01*
X127151284Y-134631062D01*
X127154000Y-134658640D01*
X127154000Y-135167360D01*
X127151284Y-135194938D01*
X127145029Y-135215557D01*
X127134876Y-135234553D01*
X127121208Y-135251208D01*
X127104553Y-135264876D01*
X127085557Y-135275029D01*
X127064938Y-135281284D01*
X127037360Y-135284000D01*
X126578640Y-135284000D01*
X126551062Y-135281284D01*
X126530443Y-135275029D01*
X126511447Y-135264876D01*
X126494792Y-135251208D01*
X126481124Y-135234553D01*
X126470971Y-135215557D01*
X126464716Y-135194938D01*
X126462000Y-135167360D01*
X126462000Y-134658640D01*
X126464716Y-134631062D01*
X126470971Y-134610443D01*
X126481124Y-134591447D01*
X126494792Y-134574792D01*
X126511447Y-134561124D01*
X126530443Y-134550971D01*
X126551062Y-134544716D01*
X126578640Y-134542000D01*
X127037360Y-134542000D01*
X127064938Y-134544716D01*
G37*
G36*
X128034938Y-134544716D02*
G01*
X128055557Y-134550971D01*
X128074553Y-134561124D01*
X128091208Y-134574792D01*
X128104876Y-134591447D01*
X128115029Y-134610443D01*
X128121284Y-134631062D01*
X128124000Y-134658640D01*
X128124000Y-135167360D01*
X128121284Y-135194938D01*
X128115029Y-135215557D01*
X128104876Y-135234553D01*
X128091208Y-135251208D01*
X128074553Y-135264876D01*
X128055557Y-135275029D01*
X128034938Y-135281284D01*
X128007360Y-135284000D01*
X127548640Y-135284000D01*
X127521062Y-135281284D01*
X127500443Y-135275029D01*
X127481447Y-135264876D01*
X127464792Y-135251208D01*
X127451124Y-135234553D01*
X127440971Y-135215557D01*
X127434716Y-135194938D01*
X127432000Y-135167360D01*
X127432000Y-134658640D01*
X127434716Y-134631062D01*
X127440971Y-134610443D01*
X127451124Y-134591447D01*
X127464792Y-134574792D01*
X127481447Y-134561124D01*
X127500443Y-134550971D01*
X127521062Y-134544716D01*
X127548640Y-134542000D01*
X128007360Y-134542000D01*
X128034938Y-134544716D01*
G37*
G36*
X128619000Y-133782000D02*
G01*
X127867000Y-133782000D01*
X127867000Y-131980000D01*
X128619000Y-131980000D01*
X128619000Y-133782000D01*
G37*
G36*
X126719000Y-133782000D02*
G01*
X125967000Y-133782000D01*
X125967000Y-131980000D01*
X126719000Y-131980000D01*
X126719000Y-133782000D01*
G37*
G36*
X123389721Y-132478174D02*
G01*
X123489995Y-132519709D01*
X123489996Y-132519710D01*
X123580242Y-132580010D01*
X123656990Y-132656758D01*
X123656991Y-132656760D01*
X123717291Y-132747005D01*
X123758826Y-132847279D01*
X123780000Y-132953730D01*
X123780000Y-133062270D01*
X123758826Y-133168721D01*
X123717291Y-133268995D01*
X123695906Y-133301000D01*
X123656990Y-133359242D01*
X123580242Y-133435990D01*
X123534812Y-133466345D01*
X123489995Y-133496291D01*
X123389721Y-133537826D01*
X123283270Y-133559000D01*
X123174730Y-133559000D01*
X123068279Y-133537826D01*
X122968005Y-133496291D01*
X122923188Y-133466345D01*
X122877758Y-133435990D01*
X122801010Y-133359242D01*
X122762094Y-133301000D01*
X122740709Y-133268995D01*
X122699174Y-133168721D01*
X122678000Y-133062270D01*
X122678000Y-132953730D01*
X122699174Y-132847279D01*
X122740709Y-132747005D01*
X122801009Y-132656760D01*
X122801010Y-132656758D01*
X122877758Y-132580010D01*
X122968004Y-132519710D01*
X122968005Y-132519709D01*
X123068279Y-132478174D01*
X123174730Y-132457000D01*
X123283270Y-132457000D01*
X123389721Y-132478174D01*
G37*
G36*
X130622938Y-131752716D02*
G01*
X130643557Y-131758971D01*
X130662553Y-131769124D01*
X130679208Y-131782792D01*
X130692876Y-131799447D01*
X130703029Y-131818443D01*
X130709284Y-131839062D01*
X130712000Y-131866640D01*
X130712000Y-132325360D01*
X130709284Y-132352938D01*
X130703029Y-132373557D01*
X130692876Y-132392553D01*
X130679208Y-132409208D01*
X130662553Y-132422876D01*
X130643557Y-132433029D01*
X130622938Y-132439284D01*
X130595360Y-132442000D01*
X130086640Y-132442000D01*
X130059062Y-132439284D01*
X130038443Y-132433029D01*
X130019447Y-132422876D01*
X130002792Y-132409208D01*
X129989124Y-132392553D01*
X129978971Y-132373557D01*
X129972716Y-132352938D01*
X129970000Y-132325360D01*
X129970000Y-131866640D01*
X129972716Y-131839062D01*
X129978971Y-131818443D01*
X129989124Y-131799447D01*
X130002792Y-131782792D01*
X130019447Y-131769124D01*
X130038443Y-131758971D01*
X130059062Y-131752716D01*
X130086640Y-131750000D01*
X130595360Y-131750000D01*
X130622938Y-131752716D01*
G37*
G36*
X139147500Y-132272000D02*
G01*
X137570500Y-132272000D01*
X137570500Y-125870000D01*
X139147500Y-125870000D01*
X139147500Y-132272000D01*
G37*
G36*
X133271500Y-132272000D02*
G01*
X131694500Y-132272000D01*
X131694500Y-125870000D01*
X133271500Y-125870000D01*
X133271500Y-132272000D01*
G37*
G36*
X144535221Y-130446174D02*
G01*
X144635495Y-130487709D01*
X144635496Y-130487710D01*
X144725742Y-130548010D01*
X144802490Y-130624758D01*
X144802491Y-130624760D01*
X144862791Y-130715005D01*
X144904326Y-130815279D01*
X144925500Y-130921730D01*
X144925500Y-131030270D01*
X144904326Y-131136721D01*
X144862791Y-131236995D01*
X144862790Y-131236996D01*
X144802490Y-131327242D01*
X144725742Y-131403990D01*
X144699792Y-131421329D01*
X144635495Y-131464291D01*
X144535221Y-131505826D01*
X144428770Y-131527000D01*
X144320230Y-131527000D01*
X144213779Y-131505826D01*
X144113505Y-131464291D01*
X144049208Y-131421329D01*
X144023258Y-131403990D01*
X143946510Y-131327242D01*
X143886210Y-131236996D01*
X143886209Y-131236995D01*
X143844674Y-131136721D01*
X143823500Y-131030270D01*
X143823500Y-130921730D01*
X143844674Y-130815279D01*
X143886209Y-130715005D01*
X143946509Y-130624760D01*
X143946510Y-130624758D01*
X144023258Y-130548010D01*
X144113504Y-130487710D01*
X144113505Y-130487709D01*
X144213779Y-130446174D01*
X144320230Y-130425000D01*
X144428770Y-130425000D01*
X144535221Y-130446174D01*
G37*
G36*
X130622938Y-130782716D02*
G01*
X130643557Y-130788971D01*
X130662553Y-130799124D01*
X130679208Y-130812792D01*
X130692876Y-130829447D01*
X130703029Y-130848443D01*
X130709284Y-130869062D01*
X130712000Y-130896640D01*
X130712000Y-131355360D01*
X130709284Y-131382938D01*
X130703029Y-131403557D01*
X130692876Y-131422553D01*
X130679208Y-131439208D01*
X130662553Y-131452876D01*
X130643557Y-131463029D01*
X130622938Y-131469284D01*
X130595360Y-131472000D01*
X130086640Y-131472000D01*
X130059062Y-131469284D01*
X130038443Y-131463029D01*
X130019447Y-131452876D01*
X130002792Y-131439208D01*
X129989124Y-131422553D01*
X129978971Y-131403557D01*
X129972716Y-131382938D01*
X129970000Y-131355360D01*
X129970000Y-130896640D01*
X129972716Y-130869062D01*
X129978971Y-130848443D01*
X129989124Y-130829447D01*
X130002792Y-130812792D01*
X130019447Y-130799124D01*
X130038443Y-130788971D01*
X130059062Y-130782716D01*
X130086640Y-130780000D01*
X130595360Y-130780000D01*
X130622938Y-130782716D01*
G37*
G36*
X122240938Y-130736716D02*
G01*
X122261557Y-130742971D01*
X122280553Y-130753124D01*
X122297208Y-130766792D01*
X122310876Y-130783447D01*
X122321029Y-130802443D01*
X122327284Y-130823062D01*
X122330000Y-130850640D01*
X122330000Y-131309360D01*
X122327284Y-131336938D01*
X122321029Y-131357557D01*
X122310876Y-131376553D01*
X122297208Y-131393208D01*
X122280553Y-131406876D01*
X122261557Y-131417029D01*
X122240938Y-131423284D01*
X122213360Y-131426000D01*
X121704640Y-131426000D01*
X121677062Y-131423284D01*
X121656443Y-131417029D01*
X121637447Y-131406876D01*
X121620792Y-131393208D01*
X121607124Y-131376553D01*
X121596971Y-131357557D01*
X121590716Y-131336938D01*
X121588000Y-131309360D01*
X121588000Y-130850640D01*
X121590716Y-130823062D01*
X121596971Y-130802443D01*
X121607124Y-130783447D01*
X121620792Y-130766792D01*
X121637447Y-130753124D01*
X121656443Y-130742971D01*
X121677062Y-130736716D01*
X121704640Y-130734000D01*
X122213360Y-130734000D01*
X122240938Y-130736716D01*
G37*
G36*
X122240938Y-129766716D02*
G01*
X122261557Y-129772971D01*
X122280553Y-129783124D01*
X122297208Y-129796792D01*
X122310876Y-129813447D01*
X122321029Y-129832443D01*
X122327284Y-129853062D01*
X122330000Y-129880640D01*
X122330000Y-130339360D01*
X122327284Y-130366938D01*
X122321029Y-130387557D01*
X122310876Y-130406553D01*
X122297208Y-130423208D01*
X122280553Y-130436876D01*
X122261557Y-130447029D01*
X122240938Y-130453284D01*
X122213360Y-130456000D01*
X121704640Y-130456000D01*
X121677062Y-130453284D01*
X121656443Y-130447029D01*
X121637447Y-130436876D01*
X121620792Y-130423208D01*
X121607124Y-130406553D01*
X121596971Y-130387557D01*
X121590716Y-130366938D01*
X121588000Y-130339360D01*
X121588000Y-129880640D01*
X121590716Y-129853062D01*
X121596971Y-129832443D01*
X121607124Y-129813447D01*
X121620792Y-129796792D01*
X121637447Y-129783124D01*
X121656443Y-129772971D01*
X121677062Y-129766716D01*
X121704640Y-129764000D01*
X122213360Y-129764000D01*
X122240938Y-129766716D01*
G37*
G36*
X107408000Y-130098000D02*
G01*
X104506000Y-130098000D01*
X104506000Y-128696000D01*
X107408000Y-128696000D01*
X107408000Y-130098000D01*
G37*
G36*
X129358721Y-128795174D02*
G01*
X129458995Y-128836709D01*
X129458996Y-128836710D01*
X129549242Y-128897010D01*
X129625990Y-128973758D01*
X129625991Y-128973760D01*
X129686291Y-129064005D01*
X129727826Y-129164279D01*
X129749000Y-129270730D01*
X129749000Y-129379270D01*
X129727826Y-129485721D01*
X129686291Y-129585995D01*
X129686290Y-129585996D01*
X129625990Y-129676242D01*
X129549242Y-129752990D01*
X129519338Y-129772971D01*
X129458995Y-129813291D01*
X129358721Y-129854826D01*
X129252270Y-129876000D01*
X129143730Y-129876000D01*
X129037279Y-129854826D01*
X128937005Y-129813291D01*
X128876662Y-129772971D01*
X128846758Y-129752990D01*
X128770010Y-129676242D01*
X128709710Y-129585996D01*
X128709709Y-129585995D01*
X128668174Y-129485721D01*
X128647000Y-129379270D01*
X128647000Y-129270730D01*
X128668174Y-129164279D01*
X128709709Y-129064005D01*
X128770009Y-128973760D01*
X128770010Y-128973758D01*
X128846758Y-128897010D01*
X128937004Y-128836710D01*
X128937005Y-128836709D01*
X129037279Y-128795174D01*
X129143730Y-128774000D01*
X129252270Y-128774000D01*
X129358721Y-128795174D01*
G37*
G36*
X144304049Y-125656116D02*
G01*
X144415234Y-125678232D01*
X144624703Y-125764997D01*
X144813220Y-125890960D01*
X144973540Y-126051280D01*
X145099503Y-126239797D01*
X145186268Y-126449266D01*
X145230500Y-126671636D01*
X145230500Y-126898364D01*
X145186268Y-127120734D01*
X145099503Y-127330203D01*
X144973540Y-127518720D01*
X144813220Y-127679040D01*
X144624703Y-127805003D01*
X144415234Y-127891768D01*
X144304049Y-127913884D01*
X144192865Y-127936000D01*
X143966135Y-127936000D01*
X143854951Y-127913884D01*
X143743766Y-127891768D01*
X143534297Y-127805003D01*
X143345780Y-127679040D01*
X143185460Y-127518720D01*
X143059497Y-127330203D01*
X142972732Y-127120734D01*
X142928500Y-126898364D01*
X142928500Y-126671636D01*
X142972732Y-126449266D01*
X143059497Y-126239797D01*
X143185460Y-126051280D01*
X143345780Y-125890960D01*
X143534297Y-125764997D01*
X143743766Y-125678232D01*
X143854951Y-125656116D01*
X143966135Y-125634000D01*
X144192865Y-125634000D01*
X144304049Y-125656116D01*
G37*
G36*
X116087549Y-125656116D02*
G01*
X116198734Y-125678232D01*
X116408203Y-125764997D01*
X116596720Y-125890960D01*
X116757040Y-126051280D01*
X116883003Y-126239797D01*
X116969768Y-126449266D01*
X117014000Y-126671636D01*
X117014000Y-126898364D01*
X116969768Y-127120734D01*
X116883003Y-127330203D01*
X116757040Y-127518720D01*
X116596720Y-127679040D01*
X116408203Y-127805003D01*
X116198734Y-127891768D01*
X116087549Y-127913884D01*
X115976365Y-127936000D01*
X115749635Y-127936000D01*
X115638451Y-127913884D01*
X115527266Y-127891768D01*
X115317797Y-127805003D01*
X115129280Y-127679040D01*
X114968960Y-127518720D01*
X114842997Y-127330203D01*
X114756232Y-127120734D01*
X114712000Y-126898364D01*
X114712000Y-126671636D01*
X114756232Y-126449266D01*
X114842997Y-126239797D01*
X114968960Y-126051280D01*
X115129280Y-125890960D01*
X115317797Y-125764997D01*
X115527266Y-125678232D01*
X115638451Y-125656116D01*
X115749635Y-125634000D01*
X115976365Y-125634000D01*
X116087549Y-125656116D01*
G37*
G36*
X121288000Y-127562000D02*
G01*
X120186000Y-127562000D01*
X120186000Y-126710000D01*
X121288000Y-126710000D01*
X121288000Y-127562000D01*
G37*
G36*
X127288000Y-127562000D02*
G01*
X126186000Y-127562000D01*
X126186000Y-126710000D01*
X127288000Y-126710000D01*
X127288000Y-127562000D01*
G37*
G36*
X103758000Y-127298000D02*
G01*
X101856000Y-127298000D01*
X101856000Y-124996000D01*
X103758000Y-124996000D01*
X103758000Y-127298000D01*
G37*
G36*
X110058000Y-127298000D02*
G01*
X108156000Y-127298000D01*
X108156000Y-124996000D01*
X110058000Y-124996000D01*
X110058000Y-127298000D01*
G37*
G36*
X140788721Y-124477174D02*
G01*
X140888995Y-124518709D01*
X140888996Y-124518710D01*
X140979242Y-124579010D01*
X141055990Y-124655758D01*
X141055991Y-124655760D01*
X141116291Y-124746005D01*
X141157826Y-124846279D01*
X141179000Y-124952730D01*
X141179000Y-125061270D01*
X141157826Y-125167721D01*
X141116291Y-125267995D01*
X141116290Y-125267996D01*
X141055990Y-125358242D01*
X140979242Y-125434990D01*
X140933812Y-125465345D01*
X140888995Y-125495291D01*
X140788721Y-125536826D01*
X140682270Y-125558000D01*
X140573730Y-125558000D01*
X140467279Y-125536826D01*
X140367005Y-125495291D01*
X140322188Y-125465345D01*
X140276758Y-125434990D01*
X140200010Y-125358242D01*
X140139710Y-125267996D01*
X140139709Y-125267995D01*
X140098174Y-125167721D01*
X140077000Y-125061270D01*
X140077000Y-124952730D01*
X140098174Y-124846279D01*
X140139709Y-124746005D01*
X140200009Y-124655760D01*
X140200010Y-124655758D01*
X140276758Y-124579010D01*
X140367004Y-124518710D01*
X140367005Y-124518709D01*
X140467279Y-124477174D01*
X140573730Y-124456000D01*
X140682270Y-124456000D01*
X140788721Y-124477174D01*
G37*
G36*
X127288000Y-123812000D02*
G01*
X126186000Y-123812000D01*
X126186000Y-122960000D01*
X127288000Y-122960000D01*
X127288000Y-123812000D01*
G37*
G36*
X121288000Y-123812000D02*
G01*
X120186000Y-123812000D01*
X120186000Y-122960000D01*
X121288000Y-122960000D01*
X121288000Y-123812000D01*
G37*
G36*
X112213721Y-122699174D02*
G01*
X112313995Y-122740709D01*
X112313996Y-122740710D01*
X112404242Y-122801010D01*
X112480990Y-122877758D01*
X112480991Y-122877760D01*
X112541291Y-122968005D01*
X112582826Y-123068279D01*
X112604000Y-123174730D01*
X112604000Y-123283270D01*
X112582826Y-123389721D01*
X112541291Y-123489995D01*
X112541290Y-123489996D01*
X112480990Y-123580242D01*
X112404242Y-123656990D01*
X112358812Y-123687345D01*
X112313995Y-123717291D01*
X112213721Y-123758826D01*
X112107270Y-123780000D01*
X111998730Y-123780000D01*
X111892279Y-123758826D01*
X111792005Y-123717291D01*
X111747188Y-123687345D01*
X111701758Y-123656990D01*
X111625010Y-123580242D01*
X111564710Y-123489996D01*
X111564709Y-123489995D01*
X111523174Y-123389721D01*
X111502000Y-123283270D01*
X111502000Y-123174730D01*
X111523174Y-123068279D01*
X111564709Y-122968005D01*
X111625009Y-122877760D01*
X111625010Y-122877758D01*
X111701758Y-122801010D01*
X111792004Y-122740710D01*
X111792005Y-122740709D01*
X111892279Y-122699174D01*
X111998730Y-122678000D01*
X112107270Y-122678000D01*
X112213721Y-122699174D01*
G37*
G36*
X134940938Y-122354716D02*
G01*
X134961557Y-122360971D01*
X134980553Y-122371124D01*
X134997208Y-122384792D01*
X135010876Y-122401447D01*
X135021029Y-122420443D01*
X135027284Y-122441062D01*
X135030000Y-122468640D01*
X135030000Y-122927360D01*
X135027284Y-122954938D01*
X135021029Y-122975557D01*
X135010876Y-122994553D01*
X134997208Y-123011208D01*
X134980553Y-123024876D01*
X134961557Y-123035029D01*
X134940938Y-123041284D01*
X134913360Y-123044000D01*
X134404640Y-123044000D01*
X134377062Y-123041284D01*
X134356443Y-123035029D01*
X134337447Y-123024876D01*
X134320792Y-123011208D01*
X134307124Y-122994553D01*
X134296971Y-122975557D01*
X134290716Y-122954938D01*
X134288000Y-122927360D01*
X134288000Y-122468640D01*
X134290716Y-122441062D01*
X134296971Y-122420443D01*
X134307124Y-122401447D01*
X134320792Y-122384792D01*
X134337447Y-122371124D01*
X134356443Y-122360971D01*
X134377062Y-122354716D01*
X134404640Y-122352000D01*
X134913360Y-122352000D01*
X134940938Y-122354716D01*
G37*
G36*
X137589500Y-122874000D02*
G01*
X136012500Y-122874000D01*
X136012500Y-116472000D01*
X137589500Y-116472000D01*
X137589500Y-122874000D01*
G37*
G36*
X143465500Y-122874000D02*
G01*
X141888500Y-122874000D01*
X141888500Y-116472000D01*
X143465500Y-116472000D01*
X143465500Y-122874000D01*
G37*
G36*
X130874938Y-121844716D02*
G01*
X130895557Y-121850971D01*
X130914553Y-121861124D01*
X130931208Y-121874792D01*
X130944876Y-121891447D01*
X130955029Y-121910443D01*
X130961284Y-121931062D01*
X130964000Y-121958640D01*
X130964000Y-122467360D01*
X130961284Y-122494938D01*
X130955029Y-122515557D01*
X130944876Y-122534553D01*
X130931208Y-122551208D01*
X130914553Y-122564876D01*
X130895557Y-122575029D01*
X130874938Y-122581284D01*
X130847360Y-122584000D01*
X130388640Y-122584000D01*
X130361062Y-122581284D01*
X130340443Y-122575029D01*
X130321447Y-122564876D01*
X130304792Y-122551208D01*
X130291124Y-122534553D01*
X130280971Y-122515557D01*
X130274716Y-122494938D01*
X130272000Y-122467360D01*
X130272000Y-121958640D01*
X130274716Y-121931062D01*
X130280971Y-121910443D01*
X130291124Y-121891447D01*
X130304792Y-121874792D01*
X130321447Y-121861124D01*
X130340443Y-121850971D01*
X130361062Y-121844716D01*
X130388640Y-121842000D01*
X130847360Y-121842000D01*
X130874938Y-121844716D01*
G37*
G36*
X131844938Y-121844716D02*
G01*
X131865557Y-121850971D01*
X131884553Y-121861124D01*
X131901208Y-121874792D01*
X131914876Y-121891447D01*
X131925029Y-121910443D01*
X131931284Y-121931062D01*
X131934000Y-121958640D01*
X131934000Y-122467360D01*
X131931284Y-122494938D01*
X131925029Y-122515557D01*
X131914876Y-122534553D01*
X131901208Y-122551208D01*
X131884553Y-122564876D01*
X131865557Y-122575029D01*
X131844938Y-122581284D01*
X131817360Y-122584000D01*
X131358640Y-122584000D01*
X131331062Y-122581284D01*
X131310443Y-122575029D01*
X131291447Y-122564876D01*
X131274792Y-122551208D01*
X131261124Y-122534553D01*
X131250971Y-122515557D01*
X131244716Y-122494938D01*
X131242000Y-122467360D01*
X131242000Y-121958640D01*
X131244716Y-121931062D01*
X131250971Y-121910443D01*
X131261124Y-121891447D01*
X131274792Y-121874792D01*
X131291447Y-121861124D01*
X131310443Y-121850971D01*
X131331062Y-121844716D01*
X131358640Y-121842000D01*
X131817360Y-121842000D01*
X131844938Y-121844716D01*
G37*
G36*
X134940938Y-121384716D02*
G01*
X134961557Y-121390971D01*
X134980553Y-121401124D01*
X134997208Y-121414792D01*
X135010876Y-121431447D01*
X135021029Y-121450443D01*
X135027284Y-121471062D01*
X135030000Y-121498640D01*
X135030000Y-121957360D01*
X135027284Y-121984938D01*
X135021029Y-122005557D01*
X135010876Y-122024553D01*
X134997208Y-122041208D01*
X134980553Y-122054876D01*
X134961557Y-122065029D01*
X134940938Y-122071284D01*
X134913360Y-122074000D01*
X134404640Y-122074000D01*
X134377062Y-122071284D01*
X134356443Y-122065029D01*
X134337447Y-122054876D01*
X134320792Y-122041208D01*
X134307124Y-122024553D01*
X134296971Y-122005557D01*
X134290716Y-121984938D01*
X134288000Y-121957360D01*
X134288000Y-121498640D01*
X134290716Y-121471062D01*
X134296971Y-121450443D01*
X134307124Y-121431447D01*
X134320792Y-121414792D01*
X134337447Y-121401124D01*
X134356443Y-121390971D01*
X134377062Y-121384716D01*
X134404640Y-121382000D01*
X134913360Y-121382000D01*
X134940938Y-121384716D01*
G37*
G36*
X109649500Y-121858000D02*
G01*
X108072500Y-121858000D01*
X108072500Y-115456000D01*
X109649500Y-115456000D01*
X109649500Y-121858000D01*
G37*
G36*
X115525500Y-121858000D02*
G01*
X113948500Y-121858000D01*
X113948500Y-115456000D01*
X115525500Y-115456000D01*
X115525500Y-121858000D01*
G37*
G36*
X119050000Y-120618000D02*
G01*
X117248000Y-120618000D01*
X117248000Y-119866000D01*
X119050000Y-119866000D01*
X119050000Y-120618000D01*
G37*
G36*
X124662928Y-119832764D02*
G01*
X124684009Y-119839160D01*
X124703445Y-119849548D01*
X124720476Y-119863524D01*
X124734452Y-119880555D01*
X124744840Y-119899991D01*
X124751236Y-119921072D01*
X124754000Y-119949140D01*
X124754000Y-120412860D01*
X124751236Y-120440928D01*
X124744840Y-120462009D01*
X124734452Y-120481445D01*
X124720476Y-120498476D01*
X124703445Y-120512452D01*
X124684009Y-120522840D01*
X124662928Y-120529236D01*
X124634860Y-120532000D01*
X123171140Y-120532000D01*
X123143072Y-120529236D01*
X123121991Y-120522840D01*
X123102555Y-120512452D01*
X123085524Y-120498476D01*
X123071548Y-120481445D01*
X123061160Y-120462009D01*
X123054764Y-120440928D01*
X123052000Y-120412860D01*
X123052000Y-119949140D01*
X123054764Y-119921072D01*
X123061160Y-119899991D01*
X123071548Y-119880555D01*
X123085524Y-119863524D01*
X123102555Y-119849548D01*
X123121991Y-119839160D01*
X123143072Y-119832764D01*
X123171140Y-119830000D01*
X124634860Y-119830000D01*
X124662928Y-119832764D01*
G37*
G36*
X131862928Y-119832764D02*
G01*
X131884009Y-119839160D01*
X131903445Y-119849548D01*
X131920476Y-119863524D01*
X131934452Y-119880555D01*
X131944840Y-119899991D01*
X131951236Y-119921072D01*
X131954000Y-119949140D01*
X131954000Y-120412860D01*
X131951236Y-120440928D01*
X131944840Y-120462009D01*
X131934452Y-120481445D01*
X131920476Y-120498476D01*
X131903445Y-120512452D01*
X131884009Y-120522840D01*
X131862928Y-120529236D01*
X131834860Y-120532000D01*
X130371140Y-120532000D01*
X130343072Y-120529236D01*
X130321991Y-120522840D01*
X130302555Y-120512452D01*
X130285524Y-120498476D01*
X130271548Y-120481445D01*
X130261160Y-120462009D01*
X130254764Y-120440928D01*
X130252000Y-120412860D01*
X130252000Y-119949140D01*
X130254764Y-119921072D01*
X130261160Y-119899991D01*
X130271548Y-119880555D01*
X130285524Y-119863524D01*
X130302555Y-119849548D01*
X130321991Y-119839160D01*
X130343072Y-119832764D01*
X130371140Y-119830000D01*
X131834860Y-119830000D01*
X131862928Y-119832764D01*
G37*
G36*
X122065938Y-118669716D02*
G01*
X122086557Y-118675971D01*
X122105553Y-118686124D01*
X122122208Y-118699792D01*
X122135876Y-118716447D01*
X122146029Y-118735443D01*
X122152284Y-118756062D01*
X122155000Y-118783640D01*
X122155000Y-119292360D01*
X122152284Y-119319938D01*
X122146029Y-119340557D01*
X122135876Y-119359553D01*
X122122208Y-119376208D01*
X122105553Y-119389876D01*
X122086557Y-119400029D01*
X122065938Y-119406284D01*
X122038360Y-119409000D01*
X121579640Y-119409000D01*
X121552062Y-119406284D01*
X121531443Y-119400029D01*
X121512447Y-119389876D01*
X121495792Y-119376208D01*
X121482124Y-119359553D01*
X121471971Y-119340557D01*
X121465716Y-119319938D01*
X121463000Y-119292360D01*
X121463000Y-118783640D01*
X121465716Y-118756062D01*
X121471971Y-118735443D01*
X121482124Y-118716447D01*
X121495792Y-118699792D01*
X121512447Y-118686124D01*
X121531443Y-118675971D01*
X121552062Y-118669716D01*
X121579640Y-118667000D01*
X122038360Y-118667000D01*
X122065938Y-118669716D01*
G37*
G36*
X121095938Y-118669716D02*
G01*
X121116557Y-118675971D01*
X121135553Y-118686124D01*
X121152208Y-118699792D01*
X121165876Y-118716447D01*
X121176029Y-118735443D01*
X121182284Y-118756062D01*
X121185000Y-118783640D01*
X121185000Y-119292360D01*
X121182284Y-119319938D01*
X121176029Y-119340557D01*
X121165876Y-119359553D01*
X121152208Y-119376208D01*
X121135553Y-119389876D01*
X121116557Y-119400029D01*
X121095938Y-119406284D01*
X121068360Y-119409000D01*
X120609640Y-119409000D01*
X120582062Y-119406284D01*
X120561443Y-119400029D01*
X120542447Y-119389876D01*
X120525792Y-119376208D01*
X120512124Y-119359553D01*
X120501971Y-119340557D01*
X120495716Y-119319938D01*
X120493000Y-119292360D01*
X120493000Y-118783640D01*
X120495716Y-118756062D01*
X120501971Y-118735443D01*
X120512124Y-118716447D01*
X120525792Y-118699792D01*
X120542447Y-118686124D01*
X120561443Y-118675971D01*
X120582062Y-118669716D01*
X120609640Y-118667000D01*
X121068360Y-118667000D01*
X121095938Y-118669716D01*
G37*
G36*
X131862928Y-118562764D02*
G01*
X131884009Y-118569160D01*
X131903445Y-118579548D01*
X131920476Y-118593524D01*
X131934452Y-118610555D01*
X131944840Y-118629991D01*
X131951236Y-118651072D01*
X131954000Y-118679140D01*
X131954000Y-119142860D01*
X131951236Y-119170928D01*
X131944840Y-119192009D01*
X131934452Y-119211445D01*
X131920476Y-119228476D01*
X131903445Y-119242452D01*
X131884009Y-119252840D01*
X131862928Y-119259236D01*
X131834860Y-119262000D01*
X130371140Y-119262000D01*
X130343072Y-119259236D01*
X130321991Y-119252840D01*
X130302555Y-119242452D01*
X130285524Y-119228476D01*
X130271548Y-119211445D01*
X130261160Y-119192009D01*
X130254764Y-119170928D01*
X130252000Y-119142860D01*
X130252000Y-118679140D01*
X130254764Y-118651072D01*
X130261160Y-118629991D01*
X130271548Y-118610555D01*
X130285524Y-118593524D01*
X130302555Y-118579548D01*
X130321991Y-118569160D01*
X130343072Y-118562764D01*
X130371140Y-118560000D01*
X131834860Y-118560000D01*
X131862928Y-118562764D01*
G37*
G36*
X124662928Y-118562764D02*
G01*
X124684009Y-118569160D01*
X124703445Y-118579548D01*
X124720476Y-118593524D01*
X124734452Y-118610555D01*
X124744840Y-118629991D01*
X124751236Y-118651072D01*
X124754000Y-118679140D01*
X124754000Y-119142860D01*
X124751236Y-119170928D01*
X124744840Y-119192009D01*
X124734452Y-119211445D01*
X124720476Y-119228476D01*
X124703445Y-119242452D01*
X124684009Y-119252840D01*
X124662928Y-119259236D01*
X124634860Y-119262000D01*
X123171140Y-119262000D01*
X123143072Y-119259236D01*
X123121991Y-119252840D01*
X123102555Y-119242452D01*
X123085524Y-119228476D01*
X123071548Y-119211445D01*
X123061160Y-119192009D01*
X123054764Y-119170928D01*
X123052000Y-119142860D01*
X123052000Y-118679140D01*
X123054764Y-118651072D01*
X123061160Y-118629991D01*
X123071548Y-118610555D01*
X123085524Y-118593524D01*
X123102555Y-118579548D01*
X123121991Y-118569160D01*
X123143072Y-118562764D01*
X123171140Y-118560000D01*
X124634860Y-118560000D01*
X124662928Y-118562764D01*
G37*
G36*
X119050000Y-118718000D02*
G01*
X117248000Y-118718000D01*
X117248000Y-117966000D01*
X119050000Y-117966000D01*
X119050000Y-118718000D01*
G37*
G36*
X121095938Y-117399716D02*
G01*
X121116557Y-117405971D01*
X121135553Y-117416124D01*
X121152208Y-117429792D01*
X121165876Y-117446447D01*
X121176029Y-117465443D01*
X121182284Y-117486062D01*
X121185000Y-117513640D01*
X121185000Y-118022360D01*
X121182284Y-118049938D01*
X121176029Y-118070557D01*
X121165876Y-118089553D01*
X121152208Y-118106208D01*
X121135553Y-118119876D01*
X121116557Y-118130029D01*
X121095938Y-118136284D01*
X121068360Y-118139000D01*
X120609640Y-118139000D01*
X120582062Y-118136284D01*
X120561443Y-118130029D01*
X120542447Y-118119876D01*
X120525792Y-118106208D01*
X120512124Y-118089553D01*
X120501971Y-118070557D01*
X120495716Y-118049938D01*
X120493000Y-118022360D01*
X120493000Y-117513640D01*
X120495716Y-117486062D01*
X120501971Y-117465443D01*
X120512124Y-117446447D01*
X120525792Y-117429792D01*
X120542447Y-117416124D01*
X120561443Y-117405971D01*
X120582062Y-117399716D01*
X120609640Y-117397000D01*
X121068360Y-117397000D01*
X121095938Y-117399716D01*
G37*
G36*
X122065938Y-117399716D02*
G01*
X122086557Y-117405971D01*
X122105553Y-117416124D01*
X122122208Y-117429792D01*
X122135876Y-117446447D01*
X122146029Y-117465443D01*
X122152284Y-117486062D01*
X122155000Y-117513640D01*
X122155000Y-118022360D01*
X122152284Y-118049938D01*
X122146029Y-118070557D01*
X122135876Y-118089553D01*
X122122208Y-118106208D01*
X122105553Y-118119876D01*
X122086557Y-118130029D01*
X122065938Y-118136284D01*
X122038360Y-118139000D01*
X121579640Y-118139000D01*
X121552062Y-118136284D01*
X121531443Y-118130029D01*
X121512447Y-118119876D01*
X121495792Y-118106208D01*
X121482124Y-118089553D01*
X121471971Y-118070557D01*
X121465716Y-118049938D01*
X121463000Y-118022360D01*
X121463000Y-117513640D01*
X121465716Y-117486062D01*
X121471971Y-117465443D01*
X121482124Y-117446447D01*
X121495792Y-117429792D01*
X121512447Y-117416124D01*
X121531443Y-117405971D01*
X121552062Y-117399716D01*
X121579640Y-117397000D01*
X122038360Y-117397000D01*
X122065938Y-117399716D01*
G37*
G36*
X131862928Y-117292764D02*
G01*
X131884009Y-117299160D01*
X131903445Y-117309548D01*
X131920476Y-117323524D01*
X131934452Y-117340555D01*
X131944840Y-117359991D01*
X131951236Y-117381072D01*
X131954000Y-117409140D01*
X131954000Y-117872860D01*
X131951236Y-117900928D01*
X131944840Y-117922009D01*
X131934452Y-117941445D01*
X131920476Y-117958476D01*
X131903445Y-117972452D01*
X131884009Y-117982840D01*
X131862928Y-117989236D01*
X131834860Y-117992000D01*
X130371140Y-117992000D01*
X130343072Y-117989236D01*
X130321991Y-117982840D01*
X130302555Y-117972452D01*
X130285524Y-117958476D01*
X130271548Y-117941445D01*
X130261160Y-117922009D01*
X130254764Y-117900928D01*
X130252000Y-117872860D01*
X130252000Y-117409140D01*
X130254764Y-117381072D01*
X130261160Y-117359991D01*
X130271548Y-117340555D01*
X130285524Y-117323524D01*
X130302555Y-117309548D01*
X130321991Y-117299160D01*
X130343072Y-117292764D01*
X130371140Y-117290000D01*
X131834860Y-117290000D01*
X131862928Y-117292764D01*
G37*
G36*
X124662928Y-117292764D02*
G01*
X124684009Y-117299160D01*
X124703445Y-117309548D01*
X124720476Y-117323524D01*
X124734452Y-117340555D01*
X124744840Y-117359991D01*
X124751236Y-117381072D01*
X124754000Y-117409140D01*
X124754000Y-117872860D01*
X124751236Y-117900928D01*
X124744840Y-117922009D01*
X124734452Y-117941445D01*
X124720476Y-117958476D01*
X124703445Y-117972452D01*
X124684009Y-117982840D01*
X124662928Y-117989236D01*
X124634860Y-117992000D01*
X123171140Y-117992000D01*
X123143072Y-117989236D01*
X123121991Y-117982840D01*
X123102555Y-117972452D01*
X123085524Y-117958476D01*
X123071548Y-117941445D01*
X123061160Y-117922009D01*
X123054764Y-117900928D01*
X123052000Y-117872860D01*
X123052000Y-117409140D01*
X123054764Y-117381072D01*
X123061160Y-117359991D01*
X123071548Y-117340555D01*
X123085524Y-117323524D01*
X123102555Y-117309548D01*
X123121991Y-117299160D01*
X123143072Y-117292764D01*
X123171140Y-117290000D01*
X124634860Y-117290000D01*
X124662928Y-117292764D01*
G37*
G36*
X117414938Y-116258716D02*
G01*
X117435557Y-116264971D01*
X117454553Y-116275124D01*
X117471208Y-116288792D01*
X117484876Y-116305447D01*
X117495029Y-116324443D01*
X117501284Y-116345062D01*
X117504000Y-116372640D01*
X117504000Y-116831360D01*
X117501284Y-116858938D01*
X117495029Y-116879557D01*
X117484876Y-116898553D01*
X117471208Y-116915208D01*
X117454553Y-116928876D01*
X117435557Y-116939029D01*
X117414938Y-116945284D01*
X117387360Y-116948000D01*
X116878640Y-116948000D01*
X116851062Y-116945284D01*
X116830443Y-116939029D01*
X116811447Y-116928876D01*
X116794792Y-116915208D01*
X116781124Y-116898553D01*
X116770971Y-116879557D01*
X116764716Y-116858938D01*
X116762000Y-116831360D01*
X116762000Y-116372640D01*
X116764716Y-116345062D01*
X116770971Y-116324443D01*
X116781124Y-116305447D01*
X116794792Y-116288792D01*
X116811447Y-116275124D01*
X116830443Y-116264971D01*
X116851062Y-116258716D01*
X116878640Y-116256000D01*
X117387360Y-116256000D01*
X117414938Y-116258716D01*
G37*
G36*
X124662928Y-116022764D02*
G01*
X124684009Y-116029160D01*
X124703445Y-116039548D01*
X124720476Y-116053524D01*
X124734452Y-116070555D01*
X124744840Y-116089991D01*
X124751236Y-116111072D01*
X124754000Y-116139140D01*
X124754000Y-116602860D01*
X124751236Y-116630928D01*
X124744840Y-116652009D01*
X124734452Y-116671445D01*
X124720476Y-116688476D01*
X124703445Y-116702452D01*
X124684009Y-116712840D01*
X124662928Y-116719236D01*
X124634860Y-116722000D01*
X123171140Y-116722000D01*
X123143072Y-116719236D01*
X123121991Y-116712840D01*
X123102555Y-116702452D01*
X123085524Y-116688476D01*
X123071548Y-116671445D01*
X123061160Y-116652009D01*
X123054764Y-116630928D01*
X123052000Y-116602860D01*
X123052000Y-116139140D01*
X123054764Y-116111072D01*
X123061160Y-116089991D01*
X123071548Y-116070555D01*
X123085524Y-116053524D01*
X123102555Y-116039548D01*
X123121991Y-116029160D01*
X123143072Y-116022764D01*
X123171140Y-116020000D01*
X124634860Y-116020000D01*
X124662928Y-116022764D01*
G37*
G36*
X131862928Y-116022764D02*
G01*
X131884009Y-116029160D01*
X131903445Y-116039548D01*
X131920476Y-116053524D01*
X131934452Y-116070555D01*
X131944840Y-116089991D01*
X131951236Y-116111072D01*
X131954000Y-116139140D01*
X131954000Y-116602860D01*
X131951236Y-116630928D01*
X131944840Y-116652009D01*
X131934452Y-116671445D01*
X131920476Y-116688476D01*
X131903445Y-116702452D01*
X131884009Y-116712840D01*
X131862928Y-116719236D01*
X131834860Y-116722000D01*
X130371140Y-116722000D01*
X130343072Y-116719236D01*
X130321991Y-116712840D01*
X130302555Y-116702452D01*
X130285524Y-116688476D01*
X130271548Y-116671445D01*
X130261160Y-116652009D01*
X130254764Y-116630928D01*
X130252000Y-116602860D01*
X130252000Y-116139140D01*
X130254764Y-116111072D01*
X130261160Y-116089991D01*
X130271548Y-116070555D01*
X130285524Y-116053524D01*
X130302555Y-116039548D01*
X130321991Y-116029160D01*
X130343072Y-116022764D01*
X130371140Y-116020000D01*
X131834860Y-116020000D01*
X131862928Y-116022764D01*
G37*
G36*
X117414938Y-115288716D02*
G01*
X117435557Y-115294971D01*
X117454553Y-115305124D01*
X117471208Y-115318792D01*
X117484876Y-115335447D01*
X117495029Y-115354443D01*
X117501284Y-115375062D01*
X117504000Y-115402640D01*
X117504000Y-115861360D01*
X117501284Y-115888938D01*
X117495029Y-115909557D01*
X117484876Y-115928553D01*
X117471208Y-115945208D01*
X117454553Y-115958876D01*
X117435557Y-115969029D01*
X117414938Y-115975284D01*
X117387360Y-115978000D01*
X116878640Y-115978000D01*
X116851062Y-115975284D01*
X116830443Y-115969029D01*
X116811447Y-115958876D01*
X116794792Y-115945208D01*
X116781124Y-115928553D01*
X116770971Y-115909557D01*
X116764716Y-115888938D01*
X116762000Y-115861360D01*
X116762000Y-115402640D01*
X116764716Y-115375062D01*
X116770971Y-115354443D01*
X116781124Y-115335447D01*
X116794792Y-115318792D01*
X116811447Y-115305124D01*
X116830443Y-115294971D01*
X116851062Y-115288716D01*
X116878640Y-115286000D01*
X117387360Y-115286000D01*
X117414938Y-115288716D01*
G37*
G36*
X136693938Y-113081716D02*
G01*
X136714557Y-113087971D01*
X136733553Y-113098124D01*
X136750208Y-113111792D01*
X136763876Y-113128447D01*
X136774029Y-113147443D01*
X136780284Y-113168062D01*
X136783000Y-113195640D01*
X136783000Y-113704360D01*
X136780284Y-113731938D01*
X136774029Y-113752557D01*
X136763876Y-113771553D01*
X136750208Y-113788208D01*
X136733553Y-113801876D01*
X136714557Y-113812029D01*
X136693938Y-113818284D01*
X136666360Y-113821000D01*
X136207640Y-113821000D01*
X136180062Y-113818284D01*
X136159443Y-113812029D01*
X136140447Y-113801876D01*
X136123792Y-113788208D01*
X136110124Y-113771553D01*
X136099971Y-113752557D01*
X136093716Y-113731938D01*
X136091000Y-113704360D01*
X136091000Y-113195640D01*
X136093716Y-113168062D01*
X136099971Y-113147443D01*
X136110124Y-113128447D01*
X136123792Y-113111792D01*
X136140447Y-113098124D01*
X136159443Y-113087971D01*
X136180062Y-113081716D01*
X136207640Y-113079000D01*
X136666360Y-113079000D01*
X136693938Y-113081716D01*
G37*
G36*
X134384938Y-113081716D02*
G01*
X134405557Y-113087971D01*
X134424553Y-113098124D01*
X134441208Y-113111792D01*
X134454876Y-113128447D01*
X134465029Y-113147443D01*
X134471284Y-113168062D01*
X134474000Y-113195640D01*
X134474000Y-113704360D01*
X134471284Y-113731938D01*
X134465029Y-113752557D01*
X134454876Y-113771553D01*
X134441208Y-113788208D01*
X134424553Y-113801876D01*
X134405557Y-113812029D01*
X134384938Y-113818284D01*
X134357360Y-113821000D01*
X133898640Y-113821000D01*
X133871062Y-113818284D01*
X133850443Y-113812029D01*
X133831447Y-113801876D01*
X133814792Y-113788208D01*
X133801124Y-113771553D01*
X133790971Y-113752557D01*
X133784716Y-113731938D01*
X133782000Y-113704360D01*
X133782000Y-113195640D01*
X133784716Y-113168062D01*
X133790971Y-113147443D01*
X133801124Y-113128447D01*
X133814792Y-113111792D01*
X133831447Y-113098124D01*
X133850443Y-113087971D01*
X133871062Y-113081716D01*
X133898640Y-113079000D01*
X134357360Y-113079000D01*
X134384938Y-113081716D01*
G37*
G36*
X133414938Y-113081716D02*
G01*
X133435557Y-113087971D01*
X133454553Y-113098124D01*
X133471208Y-113111792D01*
X133484876Y-113128447D01*
X133495029Y-113147443D01*
X133501284Y-113168062D01*
X133504000Y-113195640D01*
X133504000Y-113704360D01*
X133501284Y-113731938D01*
X133495029Y-113752557D01*
X133484876Y-113771553D01*
X133471208Y-113788208D01*
X133454553Y-113801876D01*
X133435557Y-113812029D01*
X133414938Y-113818284D01*
X133387360Y-113821000D01*
X132928640Y-113821000D01*
X132901062Y-113818284D01*
X132880443Y-113812029D01*
X132861447Y-113801876D01*
X132844792Y-113788208D01*
X132831124Y-113771553D01*
X132820971Y-113752557D01*
X132814716Y-113731938D01*
X132812000Y-113704360D01*
X132812000Y-113195640D01*
X132814716Y-113168062D01*
X132820971Y-113147443D01*
X132831124Y-113128447D01*
X132844792Y-113111792D01*
X132861447Y-113098124D01*
X132880443Y-113087971D01*
X132901062Y-113081716D01*
X132928640Y-113079000D01*
X133387360Y-113079000D01*
X133414938Y-113081716D01*
G37*
G36*
X135723938Y-113081716D02*
G01*
X135744557Y-113087971D01*
X135763553Y-113098124D01*
X135780208Y-113111792D01*
X135793876Y-113128447D01*
X135804029Y-113147443D01*
X135810284Y-113168062D01*
X135813000Y-113195640D01*
X135813000Y-113704360D01*
X135810284Y-113731938D01*
X135804029Y-113752557D01*
X135793876Y-113771553D01*
X135780208Y-113788208D01*
X135763553Y-113801876D01*
X135744557Y-113812029D01*
X135723938Y-113818284D01*
X135696360Y-113821000D01*
X135237640Y-113821000D01*
X135210062Y-113818284D01*
X135189443Y-113812029D01*
X135170447Y-113801876D01*
X135153792Y-113788208D01*
X135140124Y-113771553D01*
X135129971Y-113752557D01*
X135123716Y-113731938D01*
X135121000Y-113704360D01*
X135121000Y-113195640D01*
X135123716Y-113168062D01*
X135129971Y-113147443D01*
X135140124Y-113128447D01*
X135153792Y-113111792D01*
X135170447Y-113098124D01*
X135189443Y-113087971D01*
X135210062Y-113081716D01*
X135237640Y-113079000D01*
X135696360Y-113079000D01*
X135723938Y-113081716D01*
G37*
G36*
X105738000Y-113597000D02*
G01*
X105036000Y-113597000D01*
X105036000Y-112795000D01*
X105738000Y-112795000D01*
X105738000Y-113597000D01*
G37*
G36*
X104338000Y-113597000D02*
G01*
X103636000Y-113597000D01*
X103636000Y-112795000D01*
X104338000Y-112795000D01*
X104338000Y-113597000D01*
G37*
G36*
X129514591Y-112293085D02*
G01*
X129548569Y-112303393D01*
X129579890Y-112320134D01*
X129607339Y-112342661D01*
X129629866Y-112370110D01*
X129646607Y-112401431D01*
X129656915Y-112435409D01*
X129661000Y-112476890D01*
X129661000Y-113153110D01*
X129656915Y-113194591D01*
X129646607Y-113228569D01*
X129629866Y-113259890D01*
X129607339Y-113287339D01*
X129579890Y-113309866D01*
X129548569Y-113326607D01*
X129514591Y-113336915D01*
X129473110Y-113341000D01*
X128871890Y-113341000D01*
X128830409Y-113336915D01*
X128796431Y-113326607D01*
X128765110Y-113309866D01*
X128737661Y-113287339D01*
X128715134Y-113259890D01*
X128698393Y-113228569D01*
X128688085Y-113194591D01*
X128684000Y-113153110D01*
X128684000Y-112476890D01*
X128688085Y-112435409D01*
X128698393Y-112401431D01*
X128715134Y-112370110D01*
X128737661Y-112342661D01*
X128765110Y-112320134D01*
X128796431Y-112303393D01*
X128830409Y-112293085D01*
X128871890Y-112289000D01*
X129473110Y-112289000D01*
X129514591Y-112293085D01*
G37*
G36*
X131089591Y-112293085D02*
G01*
X131123569Y-112303393D01*
X131154890Y-112320134D01*
X131182339Y-112342661D01*
X131204866Y-112370110D01*
X131221607Y-112401431D01*
X131231915Y-112435409D01*
X131236000Y-112476890D01*
X131236000Y-113153110D01*
X131231915Y-113194591D01*
X131221607Y-113228569D01*
X131204866Y-113259890D01*
X131182339Y-113287339D01*
X131154890Y-113309866D01*
X131123569Y-113326607D01*
X131089591Y-113336915D01*
X131048110Y-113341000D01*
X130446890Y-113341000D01*
X130405409Y-113336915D01*
X130371431Y-113326607D01*
X130340110Y-113309866D01*
X130312661Y-113287339D01*
X130290134Y-113259890D01*
X130273393Y-113228569D01*
X130263085Y-113194591D01*
X130259000Y-113153110D01*
X130259000Y-112476890D01*
X130263085Y-112435409D01*
X130273393Y-112401431D01*
X130290134Y-112370110D01*
X130312661Y-112342661D01*
X130340110Y-112320134D01*
X130371431Y-112303393D01*
X130405409Y-112293085D01*
X130446890Y-112289000D01*
X131048110Y-112289000D01*
X131089591Y-112293085D01*
G37*
G36*
X126212591Y-112293085D02*
G01*
X126246569Y-112303393D01*
X126277890Y-112320134D01*
X126305339Y-112342661D01*
X126327866Y-112370110D01*
X126344607Y-112401431D01*
X126354915Y-112435409D01*
X126359000Y-112476890D01*
X126359000Y-113153110D01*
X126354915Y-113194591D01*
X126344607Y-113228569D01*
X126327866Y-113259890D01*
X126305339Y-113287339D01*
X126277890Y-113309866D01*
X126246569Y-113326607D01*
X126212591Y-113336915D01*
X126171110Y-113341000D01*
X125569890Y-113341000D01*
X125528409Y-113336915D01*
X125494431Y-113326607D01*
X125463110Y-113309866D01*
X125435661Y-113287339D01*
X125413134Y-113259890D01*
X125396393Y-113228569D01*
X125386085Y-113194591D01*
X125382000Y-113153110D01*
X125382000Y-112476890D01*
X125386085Y-112435409D01*
X125396393Y-112401431D01*
X125413134Y-112370110D01*
X125435661Y-112342661D01*
X125463110Y-112320134D01*
X125494431Y-112303393D01*
X125528409Y-112293085D01*
X125569890Y-112289000D01*
X126171110Y-112289000D01*
X126212591Y-112293085D01*
G37*
G36*
X127787591Y-112293085D02*
G01*
X127821569Y-112303393D01*
X127852890Y-112320134D01*
X127880339Y-112342661D01*
X127902866Y-112370110D01*
X127919607Y-112401431D01*
X127929915Y-112435409D01*
X127934000Y-112476890D01*
X127934000Y-113153110D01*
X127929915Y-113194591D01*
X127919607Y-113228569D01*
X127902866Y-113259890D01*
X127880339Y-113287339D01*
X127852890Y-113309866D01*
X127821569Y-113326607D01*
X127787591Y-113336915D01*
X127746110Y-113341000D01*
X127144890Y-113341000D01*
X127103409Y-113336915D01*
X127069431Y-113326607D01*
X127038110Y-113309866D01*
X127010661Y-113287339D01*
X126988134Y-113259890D01*
X126971393Y-113228569D01*
X126961085Y-113194591D01*
X126957000Y-113153110D01*
X126957000Y-112476890D01*
X126961085Y-112435409D01*
X126971393Y-112401431D01*
X126988134Y-112370110D01*
X127010661Y-112342661D01*
X127038110Y-112320134D01*
X127069431Y-112303393D01*
X127103409Y-112293085D01*
X127144890Y-112289000D01*
X127746110Y-112289000D01*
X127787591Y-112293085D01*
G37*
G36*
X121769798Y-111132247D02*
G01*
X121805367Y-111143037D01*
X121838139Y-111160554D01*
X121866869Y-111184131D01*
X121890446Y-111212861D01*
X121907963Y-111245633D01*
X121918753Y-111281202D01*
X121923000Y-111324325D01*
X121923000Y-112433675D01*
X121918753Y-112476798D01*
X121907963Y-112512367D01*
X121890446Y-112545139D01*
X121866869Y-112573869D01*
X121838139Y-112597446D01*
X121805367Y-112614963D01*
X121769798Y-112625753D01*
X121726675Y-112630000D01*
X120667325Y-112630000D01*
X120624202Y-112625753D01*
X120588633Y-112614963D01*
X120555861Y-112597446D01*
X120527131Y-112573869D01*
X120503554Y-112545139D01*
X120486037Y-112512367D01*
X120475247Y-112476798D01*
X120471000Y-112433675D01*
X120471000Y-111324325D01*
X120475247Y-111281202D01*
X120486037Y-111245633D01*
X120503554Y-111212861D01*
X120527131Y-111184131D01*
X120555861Y-111160554D01*
X120588633Y-111143037D01*
X120624202Y-111132247D01*
X120667325Y-111128000D01*
X121726675Y-111128000D01*
X121769798Y-111132247D01*
G37*
G36*
X111524938Y-111684716D02*
G01*
X111545557Y-111690971D01*
X111564553Y-111701124D01*
X111581208Y-111714792D01*
X111594876Y-111731447D01*
X111605029Y-111750443D01*
X111611284Y-111771062D01*
X111614000Y-111798640D01*
X111614000Y-112307360D01*
X111611284Y-112334938D01*
X111605029Y-112355557D01*
X111594876Y-112374553D01*
X111581208Y-112391208D01*
X111564553Y-112404876D01*
X111545557Y-112415029D01*
X111524938Y-112421284D01*
X111497360Y-112424000D01*
X111038640Y-112424000D01*
X111011062Y-112421284D01*
X110990443Y-112415029D01*
X110971447Y-112404876D01*
X110954792Y-112391208D01*
X110941124Y-112374553D01*
X110930971Y-112355557D01*
X110924716Y-112334938D01*
X110922000Y-112307360D01*
X110922000Y-111798640D01*
X110924716Y-111771062D01*
X110930971Y-111750443D01*
X110941124Y-111731447D01*
X110954792Y-111714792D01*
X110971447Y-111701124D01*
X110990443Y-111690971D01*
X111011062Y-111684716D01*
X111038640Y-111682000D01*
X111497360Y-111682000D01*
X111524938Y-111684716D01*
G37*
G36*
X110554938Y-111684716D02*
G01*
X110575557Y-111690971D01*
X110594553Y-111701124D01*
X110611208Y-111714792D01*
X110624876Y-111731447D01*
X110635029Y-111750443D01*
X110641284Y-111771062D01*
X110644000Y-111798640D01*
X110644000Y-112307360D01*
X110641284Y-112334938D01*
X110635029Y-112355557D01*
X110624876Y-112374553D01*
X110611208Y-112391208D01*
X110594553Y-112404876D01*
X110575557Y-112415029D01*
X110554938Y-112421284D01*
X110527360Y-112424000D01*
X110068640Y-112424000D01*
X110041062Y-112421284D01*
X110020443Y-112415029D01*
X110001447Y-112404876D01*
X109984792Y-112391208D01*
X109971124Y-112374553D01*
X109960971Y-112355557D01*
X109954716Y-112334938D01*
X109952000Y-112307360D01*
X109952000Y-111798640D01*
X109954716Y-111771062D01*
X109960971Y-111750443D01*
X109971124Y-111731447D01*
X109984792Y-111714792D01*
X110001447Y-111701124D01*
X110020443Y-111690971D01*
X110041062Y-111684716D01*
X110068640Y-111682000D01*
X110527360Y-111682000D01*
X110554938Y-111684716D01*
G37*
G36*
X134941000Y-109682749D02*
G01*
X134943402Y-109707135D01*
X134950515Y-109730584D01*
X134962066Y-109752195D01*
X134977611Y-109771137D01*
X134989482Y-109779942D01*
X134988957Y-109780582D01*
X135006237Y-109794763D01*
X135012610Y-109802528D01*
X135017348Y-109811392D01*
X135020263Y-109821001D01*
X135021852Y-109837140D01*
X135021852Y-110104149D01*
X135024254Y-110128535D01*
X135031367Y-110151984D01*
X135042918Y-110173595D01*
X135058463Y-110192537D01*
X135077405Y-110208082D01*
X135099016Y-110219633D01*
X135122465Y-110226746D01*
X135146851Y-110229148D01*
X135463860Y-110229148D01*
X135479999Y-110230737D01*
X135489608Y-110233652D01*
X135498472Y-110238390D01*
X135506237Y-110244763D01*
X135512610Y-110252528D01*
X135517348Y-110261392D01*
X135520263Y-110271001D01*
X135521852Y-110287140D01*
X135521852Y-110524860D01*
X135520263Y-110540999D01*
X135517348Y-110550608D01*
X135512610Y-110559472D01*
X135498469Y-110576703D01*
X135484856Y-110597078D01*
X135475479Y-110619717D01*
X135470699Y-110643750D01*
X135470699Y-110668254D01*
X135475480Y-110692287D01*
X135484858Y-110714926D01*
X135498469Y-110735297D01*
X135512610Y-110752528D01*
X135517348Y-110761392D01*
X135520263Y-110771001D01*
X135521852Y-110787140D01*
X135521852Y-111024860D01*
X135520263Y-111040999D01*
X135517348Y-111050608D01*
X135512610Y-111059472D01*
X135506237Y-111067237D01*
X135498472Y-111073610D01*
X135489608Y-111078348D01*
X135479999Y-111081263D01*
X135463860Y-111082852D01*
X135146851Y-111082852D01*
X135122465Y-111085254D01*
X135099016Y-111092367D01*
X135077405Y-111103918D01*
X135058463Y-111119463D01*
X135042918Y-111138405D01*
X135031367Y-111160016D01*
X135024254Y-111183465D01*
X135021852Y-111207851D01*
X135021852Y-111474860D01*
X135020263Y-111490999D01*
X135017348Y-111500608D01*
X135012610Y-111509472D01*
X135006237Y-111517237D01*
X134990925Y-111529803D01*
X134986693Y-111532631D01*
X134969368Y-111549960D01*
X134955755Y-111570335D01*
X134946380Y-111592974D01*
X134941000Y-111629251D01*
X134941000Y-112407000D01*
X132599000Y-112407000D01*
X132599000Y-111629251D01*
X132596598Y-111604865D01*
X132589485Y-111581416D01*
X132577934Y-111559805D01*
X132562389Y-111540863D01*
X132550518Y-111532058D01*
X132551043Y-111531418D01*
X132533763Y-111517237D01*
X132527390Y-111509472D01*
X132522652Y-111500608D01*
X132519737Y-111490999D01*
X132518148Y-111474860D01*
X132518148Y-111207851D01*
X132515746Y-111183465D01*
X132508633Y-111160016D01*
X132497082Y-111138405D01*
X132481537Y-111119463D01*
X132462595Y-111103918D01*
X132440984Y-111092367D01*
X132417535Y-111085254D01*
X132393149Y-111082852D01*
X132076140Y-111082852D01*
X132060001Y-111081263D01*
X132050392Y-111078348D01*
X132041528Y-111073610D01*
X132033763Y-111067237D01*
X132027390Y-111059472D01*
X132022652Y-111050608D01*
X132019737Y-111040999D01*
X132018148Y-111024860D01*
X132018148Y-110787140D01*
X132019737Y-110771001D01*
X132022652Y-110761392D01*
X132027390Y-110752528D01*
X132041531Y-110735297D01*
X132055144Y-110714922D01*
X132064521Y-110692283D01*
X132069301Y-110668250D01*
X132069301Y-110643746D01*
X132064520Y-110619713D01*
X132055142Y-110597074D01*
X132041531Y-110576703D01*
X132027390Y-110559472D01*
X132022652Y-110550608D01*
X132019737Y-110540999D01*
X132018148Y-110524860D01*
X132018148Y-110287140D01*
X132019737Y-110271001D01*
X132022652Y-110261392D01*
X132027390Y-110252528D01*
X132033763Y-110244763D01*
X132041528Y-110238390D01*
X132050392Y-110233652D01*
X132060001Y-110230737D01*
X132076140Y-110229148D01*
X132393149Y-110229148D01*
X132417535Y-110226746D01*
X132440984Y-110219633D01*
X132462595Y-110208082D01*
X132481537Y-110192537D01*
X132497082Y-110173595D01*
X132508633Y-110151984D01*
X132515746Y-110128535D01*
X132518148Y-110104149D01*
X132518148Y-109837140D01*
X132519737Y-109821001D01*
X132522652Y-109811392D01*
X132527390Y-109802528D01*
X132533763Y-109794763D01*
X132549075Y-109782197D01*
X132553307Y-109779369D01*
X132570632Y-109762040D01*
X132584245Y-109741665D01*
X132593620Y-109719026D01*
X132599000Y-109682749D01*
X132599000Y-108905000D01*
X134941000Y-108905000D01*
X134941000Y-109682749D01*
G37*
G36*
X109421000Y-112327000D02*
G01*
X108719000Y-112327000D01*
X108719000Y-111525000D01*
X109421000Y-111525000D01*
X109421000Y-112327000D01*
G37*
G36*
X108021000Y-112327000D02*
G01*
X107319000Y-112327000D01*
X107319000Y-111525000D01*
X108021000Y-111525000D01*
X108021000Y-112327000D01*
G37*
G36*
X118382938Y-110795716D02*
G01*
X118403557Y-110801971D01*
X118422553Y-110812124D01*
X118439208Y-110825792D01*
X118452876Y-110842447D01*
X118463029Y-110861443D01*
X118469284Y-110882062D01*
X118472000Y-110909640D01*
X118472000Y-111418360D01*
X118469284Y-111445938D01*
X118463029Y-111466557D01*
X118452876Y-111485553D01*
X118439208Y-111502208D01*
X118422553Y-111515876D01*
X118403557Y-111526029D01*
X118382938Y-111532284D01*
X118355360Y-111535000D01*
X117896640Y-111535000D01*
X117869062Y-111532284D01*
X117848443Y-111526029D01*
X117829447Y-111515876D01*
X117812792Y-111502208D01*
X117799124Y-111485553D01*
X117788971Y-111466557D01*
X117782716Y-111445938D01*
X117780000Y-111418360D01*
X117780000Y-110909640D01*
X117782716Y-110882062D01*
X117788971Y-110861443D01*
X117799124Y-110842447D01*
X117812792Y-110825792D01*
X117829447Y-110812124D01*
X117848443Y-110801971D01*
X117869062Y-110795716D01*
X117896640Y-110793000D01*
X118355360Y-110793000D01*
X118382938Y-110795716D01*
G37*
G36*
X117412938Y-110795716D02*
G01*
X117433557Y-110801971D01*
X117452553Y-110812124D01*
X117469208Y-110825792D01*
X117482876Y-110842447D01*
X117493029Y-110861443D01*
X117499284Y-110882062D01*
X117502000Y-110909640D01*
X117502000Y-111418360D01*
X117499284Y-111445938D01*
X117493029Y-111466557D01*
X117482876Y-111485553D01*
X117469208Y-111502208D01*
X117452553Y-111515876D01*
X117433557Y-111526029D01*
X117412938Y-111532284D01*
X117385360Y-111535000D01*
X116926640Y-111535000D01*
X116899062Y-111532284D01*
X116878443Y-111526029D01*
X116859447Y-111515876D01*
X116842792Y-111502208D01*
X116829124Y-111485553D01*
X116818971Y-111466557D01*
X116812716Y-111445938D01*
X116810000Y-111418360D01*
X116810000Y-110909640D01*
X116812716Y-110882062D01*
X116818971Y-110861443D01*
X116829124Y-110842447D01*
X116842792Y-110825792D01*
X116859447Y-110812124D01*
X116878443Y-110801971D01*
X116899062Y-110795716D01*
X116926640Y-110793000D01*
X117385360Y-110793000D01*
X117412938Y-110795716D01*
G37*
G36*
X141962798Y-109989247D02*
G01*
X141998367Y-110000037D01*
X142031139Y-110017554D01*
X142059869Y-110041131D01*
X142083446Y-110069861D01*
X142100963Y-110102633D01*
X142111753Y-110138202D01*
X142116000Y-110181325D01*
X142116000Y-111290675D01*
X142111753Y-111333798D01*
X142100963Y-111369367D01*
X142083446Y-111402139D01*
X142059869Y-111430869D01*
X142031139Y-111454446D01*
X141998367Y-111471963D01*
X141962798Y-111482753D01*
X141919675Y-111487000D01*
X140860325Y-111487000D01*
X140817202Y-111482753D01*
X140781633Y-111471963D01*
X140748861Y-111454446D01*
X140720131Y-111430869D01*
X140696554Y-111402139D01*
X140679037Y-111369367D01*
X140668247Y-111333798D01*
X140664000Y-111290675D01*
X140664000Y-110181325D01*
X140668247Y-110138202D01*
X140679037Y-110102633D01*
X140696554Y-110069861D01*
X140720131Y-110041131D01*
X140748861Y-110017554D01*
X140781633Y-110000037D01*
X140817202Y-109989247D01*
X140860325Y-109985000D01*
X141919675Y-109985000D01*
X141962798Y-109989247D01*
G37*
G36*
X128942591Y-110324085D02*
G01*
X128976569Y-110334393D01*
X129007890Y-110351134D01*
X129035339Y-110373661D01*
X129057866Y-110401110D01*
X129074607Y-110432431D01*
X129084915Y-110466409D01*
X129089000Y-110507890D01*
X129089000Y-111109110D01*
X129084915Y-111150591D01*
X129074607Y-111184569D01*
X129057866Y-111215890D01*
X129035339Y-111243339D01*
X129007890Y-111265866D01*
X128976569Y-111282607D01*
X128942591Y-111292915D01*
X128901110Y-111297000D01*
X128224890Y-111297000D01*
X128183409Y-111292915D01*
X128149431Y-111282607D01*
X128118110Y-111265866D01*
X128090661Y-111243339D01*
X128068134Y-111215890D01*
X128051393Y-111184569D01*
X128041085Y-111150591D01*
X128037000Y-111109110D01*
X128037000Y-110507890D01*
X128041085Y-110466409D01*
X128051393Y-110432431D01*
X128068134Y-110401110D01*
X128090661Y-110373661D01*
X128118110Y-110351134D01*
X128149431Y-110334393D01*
X128183409Y-110324085D01*
X128224890Y-110320000D01*
X128901110Y-110320000D01*
X128942591Y-110324085D01*
G37*
G36*
X111946000Y-111072000D02*
G01*
X111144000Y-111072000D01*
X111144000Y-110370000D01*
X111946000Y-110370000D01*
X111946000Y-111072000D01*
G37*
G36*
X110302938Y-110162716D02*
G01*
X110323557Y-110168971D01*
X110342553Y-110179124D01*
X110359208Y-110192792D01*
X110372876Y-110209447D01*
X110383029Y-110228443D01*
X110389284Y-110249062D01*
X110392000Y-110276640D01*
X110392000Y-110735360D01*
X110389284Y-110762938D01*
X110383029Y-110783557D01*
X110372876Y-110802553D01*
X110359208Y-110819208D01*
X110342553Y-110832876D01*
X110323557Y-110843029D01*
X110302938Y-110849284D01*
X110275360Y-110852000D01*
X109766640Y-110852000D01*
X109739062Y-110849284D01*
X109718443Y-110843029D01*
X109699447Y-110832876D01*
X109682792Y-110819208D01*
X109669124Y-110802553D01*
X109658971Y-110783557D01*
X109652716Y-110762938D01*
X109650000Y-110735360D01*
X109650000Y-110276640D01*
X109652716Y-110249062D01*
X109658971Y-110228443D01*
X109669124Y-110209447D01*
X109682792Y-110192792D01*
X109699447Y-110179124D01*
X109718443Y-110168971D01*
X109739062Y-110162716D01*
X109766640Y-110160000D01*
X110275360Y-110160000D01*
X110302938Y-110162716D01*
G37*
G36*
X107975000Y-108656000D02*
G01*
X106799999Y-108656000D01*
X106775613Y-108658402D01*
X106752164Y-108665515D01*
X106730553Y-108677066D01*
X106711611Y-108692611D01*
X106696066Y-108711553D01*
X106684515Y-108733164D01*
X106677402Y-108756613D01*
X106675000Y-108780999D01*
X106675000Y-108906331D01*
X106653976Y-108908402D01*
X106630527Y-108915515D01*
X106608916Y-108927066D01*
X106589974Y-108942611D01*
X106574429Y-108961553D01*
X106562878Y-108983164D01*
X106555765Y-109006613D01*
X106553363Y-109030999D01*
X106555765Y-109055385D01*
X106562878Y-109078834D01*
X106574429Y-109100445D01*
X106599063Y-109127624D01*
X106603684Y-109131416D01*
X106603687Y-109131418D01*
X106679975Y-109194025D01*
X106742582Y-109270313D01*
X106789103Y-109357348D01*
X106817751Y-109451787D01*
X106825000Y-109525388D01*
X106825000Y-109525398D01*
X106825602Y-109531510D01*
X106825738Y-109531497D01*
X106827402Y-109548387D01*
X106834515Y-109571836D01*
X106846066Y-109593447D01*
X106861611Y-109612389D01*
X106880553Y-109627934D01*
X106902164Y-109639485D01*
X106925613Y-109646598D01*
X106949999Y-109649000D01*
X107348612Y-109649000D01*
X107422213Y-109656249D01*
X107516652Y-109684897D01*
X107603687Y-109731418D01*
X107679975Y-109794025D01*
X107742582Y-109870313D01*
X107789103Y-109957348D01*
X107817751Y-110051787D01*
X107827424Y-110150000D01*
X107817751Y-110248213D01*
X107789103Y-110342652D01*
X107742582Y-110429687D01*
X107679975Y-110505975D01*
X107603687Y-110568582D01*
X107516652Y-110615103D01*
X107422213Y-110643751D01*
X107348612Y-110651000D01*
X106354743Y-110651000D01*
X106342508Y-110651601D01*
X106324000Y-110653424D01*
X106299389Y-110651000D01*
X106299388Y-110651000D01*
X106225787Y-110643751D01*
X106131348Y-110615103D01*
X106044313Y-110568582D01*
X105968025Y-110505975D01*
X105905418Y-110429687D01*
X105858897Y-110342652D01*
X105830249Y-110248213D01*
X105820576Y-110150000D01*
X105822399Y-110131492D01*
X105823000Y-110119257D01*
X105823000Y-109592671D01*
X105820598Y-109568285D01*
X105813485Y-109544836D01*
X105801934Y-109523225D01*
X105786389Y-109504283D01*
X105767447Y-109488738D01*
X105745836Y-109477187D01*
X105722387Y-109470074D01*
X105698001Y-109467672D01*
X105673615Y-109470074D01*
X105650166Y-109477187D01*
X105628557Y-109488738D01*
X105624910Y-109491174D01*
X105616576Y-109496743D01*
X105561797Y-109519433D01*
X105503647Y-109531000D01*
X105444353Y-109531000D01*
X105386203Y-109519433D01*
X105331425Y-109496743D01*
X105331424Y-109496743D01*
X105331423Y-109496742D01*
X105282124Y-109463802D01*
X105240198Y-109421876D01*
X105207258Y-109372577D01*
X105189311Y-109329249D01*
X105184567Y-109317797D01*
X105173000Y-109259647D01*
X105173000Y-109200353D01*
X105184567Y-109142203D01*
X105207257Y-109087425D01*
X105213735Y-109077730D01*
X105240198Y-109038124D01*
X105247323Y-109030999D01*
X105727670Y-109030999D01*
X105730072Y-109055385D01*
X105737185Y-109078834D01*
X105766860Y-109150475D01*
X105778411Y-109172086D01*
X105793957Y-109191028D01*
X105812899Y-109206573D01*
X105834509Y-109218124D01*
X105857958Y-109225237D01*
X105882344Y-109227639D01*
X105906731Y-109225237D01*
X105930179Y-109218124D01*
X105951790Y-109206573D01*
X105961643Y-109199265D01*
X105968019Y-109194032D01*
X105968025Y-109194025D01*
X106044313Y-109131418D01*
X106044316Y-109131416D01*
X106048937Y-109127624D01*
X106066264Y-109110297D01*
X106079878Y-109089923D01*
X106089255Y-109067284D01*
X106094035Y-109043250D01*
X106094035Y-109018746D01*
X106089254Y-108994713D01*
X106079877Y-108972074D01*
X106066263Y-108951700D01*
X106048936Y-108934373D01*
X106028562Y-108920759D01*
X106005923Y-108911382D01*
X105969638Y-108906000D01*
X105852669Y-108906000D01*
X105828283Y-108908402D01*
X105804834Y-108915515D01*
X105783223Y-108927066D01*
X105764281Y-108942611D01*
X105748736Y-108961553D01*
X105737185Y-108983164D01*
X105730072Y-109006613D01*
X105727670Y-109030999D01*
X105247323Y-109030999D01*
X105282124Y-108996198D01*
X105331423Y-108963258D01*
X105335539Y-108961553D01*
X105386203Y-108940567D01*
X105444353Y-108929000D01*
X105498001Y-108929000D01*
X105522387Y-108926598D01*
X105545836Y-108919485D01*
X105567447Y-108907934D01*
X105586389Y-108892389D01*
X105601934Y-108873447D01*
X105613485Y-108851836D01*
X105620598Y-108828387D01*
X105623000Y-108804001D01*
X105623000Y-103004000D01*
X106798001Y-103004000D01*
X106822387Y-103001598D01*
X106845836Y-102994485D01*
X106867447Y-102982934D01*
X106886389Y-102967389D01*
X106901934Y-102948447D01*
X106913485Y-102926836D01*
X106920598Y-102903387D01*
X106923000Y-102879001D01*
X106923000Y-102754000D01*
X107975000Y-102754000D01*
X107975000Y-108656000D01*
G37*
G36*
X103022213Y-109656249D02*
G01*
X103116652Y-109684897D01*
X103203687Y-109731418D01*
X103279975Y-109794025D01*
X103342582Y-109870313D01*
X103389103Y-109957348D01*
X103417751Y-110051787D01*
X103427424Y-110150000D01*
X103417751Y-110248213D01*
X103389103Y-110342652D01*
X103342582Y-110429687D01*
X103279975Y-110505975D01*
X103203687Y-110568582D01*
X103116652Y-110615103D01*
X103022213Y-110643751D01*
X102948612Y-110651000D01*
X101599388Y-110651000D01*
X101525787Y-110643751D01*
X101431348Y-110615103D01*
X101344313Y-110568582D01*
X101268025Y-110505975D01*
X101205418Y-110429687D01*
X101158897Y-110342652D01*
X101130249Y-110248213D01*
X101120576Y-110150000D01*
X101130249Y-110051787D01*
X101158897Y-109957348D01*
X101205418Y-109870313D01*
X101268025Y-109794025D01*
X101344313Y-109731418D01*
X101431348Y-109684897D01*
X101525787Y-109656249D01*
X101599388Y-109649000D01*
X102948612Y-109649000D01*
X103022213Y-109656249D01*
G37*
G36*
X126691721Y-109491174D02*
G01*
X126791995Y-109532709D01*
X126832824Y-109559990D01*
X126882242Y-109593010D01*
X126958990Y-109669758D01*
X126960488Y-109672000D01*
X127019291Y-109760005D01*
X127060826Y-109860279D01*
X127082000Y-109966730D01*
X127082000Y-110075270D01*
X127060826Y-110181721D01*
X127019291Y-110281995D01*
X127019290Y-110281996D01*
X126958990Y-110372242D01*
X126882242Y-110448990D01*
X126860584Y-110463461D01*
X126791995Y-110509291D01*
X126691721Y-110550826D01*
X126585270Y-110572000D01*
X126476730Y-110572000D01*
X126370279Y-110550826D01*
X126270005Y-110509291D01*
X126201416Y-110463461D01*
X126179758Y-110448990D01*
X126103010Y-110372242D01*
X126042710Y-110281996D01*
X126042709Y-110281995D01*
X126001174Y-110181721D01*
X125980000Y-110075270D01*
X125980000Y-109966730D01*
X126001174Y-109860279D01*
X126042709Y-109760005D01*
X126101512Y-109672000D01*
X126103010Y-109669758D01*
X126179758Y-109593010D01*
X126229176Y-109559990D01*
X126270005Y-109532709D01*
X126370279Y-109491174D01*
X126476730Y-109470000D01*
X126585270Y-109470000D01*
X126691721Y-109491174D01*
G37*
G36*
X139102591Y-109562085D02*
G01*
X139136569Y-109572393D01*
X139167890Y-109589134D01*
X139195339Y-109611661D01*
X139217866Y-109639110D01*
X139234607Y-109670431D01*
X139244915Y-109704409D01*
X139249000Y-109745890D01*
X139249000Y-110347110D01*
X139244915Y-110388591D01*
X139234607Y-110422569D01*
X139217866Y-110453890D01*
X139195339Y-110481339D01*
X139167890Y-110503866D01*
X139136569Y-110520607D01*
X139102591Y-110530915D01*
X139061110Y-110535000D01*
X138384890Y-110535000D01*
X138343409Y-110530915D01*
X138309431Y-110520607D01*
X138278110Y-110503866D01*
X138250661Y-110481339D01*
X138228134Y-110453890D01*
X138211393Y-110422569D01*
X138201085Y-110388591D01*
X138197000Y-110347110D01*
X138197000Y-109745890D01*
X138201085Y-109704409D01*
X138211393Y-109670431D01*
X138228134Y-109639110D01*
X138250661Y-109611661D01*
X138278110Y-109589134D01*
X138309431Y-109572393D01*
X138343409Y-109562085D01*
X138384890Y-109558000D01*
X139061110Y-109558000D01*
X139102591Y-109562085D01*
G37*
G36*
X137324591Y-109562085D02*
G01*
X137358569Y-109572393D01*
X137389890Y-109589134D01*
X137417339Y-109611661D01*
X137439866Y-109639110D01*
X137456607Y-109670431D01*
X137466915Y-109704409D01*
X137471000Y-109745890D01*
X137471000Y-110347110D01*
X137466915Y-110388591D01*
X137456607Y-110422569D01*
X137439866Y-110453890D01*
X137417339Y-110481339D01*
X137389890Y-110503866D01*
X137358569Y-110520607D01*
X137324591Y-110530915D01*
X137283110Y-110535000D01*
X136606890Y-110535000D01*
X136565409Y-110530915D01*
X136531431Y-110520607D01*
X136500110Y-110503866D01*
X136472661Y-110481339D01*
X136450134Y-110453890D01*
X136433393Y-110422569D01*
X136423085Y-110388591D01*
X136419000Y-110347110D01*
X136419000Y-109745890D01*
X136423085Y-109704409D01*
X136433393Y-109670431D01*
X136450134Y-109639110D01*
X136472661Y-109611661D01*
X136500110Y-109589134D01*
X136531431Y-109572393D01*
X136565409Y-109562085D01*
X136606890Y-109558000D01*
X137283110Y-109558000D01*
X137324591Y-109562085D01*
G37*
G36*
X117412938Y-109525716D02*
G01*
X117433557Y-109531971D01*
X117452553Y-109542124D01*
X117469208Y-109555792D01*
X117482876Y-109572447D01*
X117493029Y-109591443D01*
X117499284Y-109612062D01*
X117502000Y-109639640D01*
X117502000Y-110148360D01*
X117499284Y-110175938D01*
X117493029Y-110196557D01*
X117482876Y-110215553D01*
X117469208Y-110232208D01*
X117452553Y-110245876D01*
X117433557Y-110256029D01*
X117412938Y-110262284D01*
X117385360Y-110265000D01*
X116926640Y-110265000D01*
X116899062Y-110262284D01*
X116878443Y-110256029D01*
X116859447Y-110245876D01*
X116842792Y-110232208D01*
X116829124Y-110215553D01*
X116818971Y-110196557D01*
X116812716Y-110175938D01*
X116810000Y-110148360D01*
X116810000Y-109639640D01*
X116812716Y-109612062D01*
X116818971Y-109591443D01*
X116829124Y-109572447D01*
X116842792Y-109555792D01*
X116859447Y-109542124D01*
X116878443Y-109531971D01*
X116899062Y-109525716D01*
X116926640Y-109523000D01*
X117385360Y-109523000D01*
X117412938Y-109525716D01*
G37*
G36*
X118382938Y-109525716D02*
G01*
X118403557Y-109531971D01*
X118422553Y-109542124D01*
X118439208Y-109555792D01*
X118452876Y-109572447D01*
X118463029Y-109591443D01*
X118469284Y-109612062D01*
X118472000Y-109639640D01*
X118472000Y-110148360D01*
X118469284Y-110175938D01*
X118463029Y-110196557D01*
X118452876Y-110215553D01*
X118439208Y-110232208D01*
X118422553Y-110245876D01*
X118403557Y-110256029D01*
X118382938Y-110262284D01*
X118355360Y-110265000D01*
X117896640Y-110265000D01*
X117869062Y-110262284D01*
X117848443Y-110256029D01*
X117829447Y-110245876D01*
X117812792Y-110232208D01*
X117799124Y-110215553D01*
X117788971Y-110196557D01*
X117782716Y-110175938D01*
X117780000Y-110148360D01*
X117780000Y-109639640D01*
X117782716Y-109612062D01*
X117788971Y-109591443D01*
X117799124Y-109572447D01*
X117812792Y-109555792D01*
X117829447Y-109542124D01*
X117848443Y-109531971D01*
X117869062Y-109525716D01*
X117896640Y-109523000D01*
X118355360Y-109523000D01*
X118382938Y-109525716D01*
G37*
G36*
X121769798Y-108432247D02*
G01*
X121805367Y-108443037D01*
X121838139Y-108460554D01*
X121866869Y-108484131D01*
X121890446Y-108512861D01*
X121907963Y-108545633D01*
X121918753Y-108581202D01*
X121923000Y-108624325D01*
X121923000Y-109733675D01*
X121918753Y-109776798D01*
X121907963Y-109812367D01*
X121890446Y-109845139D01*
X121866869Y-109873869D01*
X121838139Y-109897446D01*
X121805367Y-109914963D01*
X121769798Y-109925753D01*
X121726675Y-109930000D01*
X120667325Y-109930000D01*
X120624202Y-109925753D01*
X120588633Y-109914963D01*
X120555861Y-109897446D01*
X120527131Y-109873869D01*
X120503554Y-109845139D01*
X120486037Y-109812367D01*
X120475247Y-109776798D01*
X120471000Y-109733675D01*
X120471000Y-108624325D01*
X120475247Y-108581202D01*
X120486037Y-108545633D01*
X120503554Y-108512861D01*
X120527131Y-108484131D01*
X120555861Y-108460554D01*
X120588633Y-108443037D01*
X120624202Y-108432247D01*
X120667325Y-108428000D01*
X121726675Y-108428000D01*
X121769798Y-108432247D01*
G37*
G36*
X110302938Y-109192716D02*
G01*
X110323557Y-109198971D01*
X110342553Y-109209124D01*
X110359208Y-109222792D01*
X110372876Y-109239447D01*
X110383029Y-109258443D01*
X110389284Y-109279062D01*
X110392000Y-109306640D01*
X110392000Y-109765360D01*
X110389284Y-109792938D01*
X110383029Y-109813557D01*
X110372876Y-109832553D01*
X110359208Y-109849208D01*
X110342553Y-109862876D01*
X110323557Y-109873029D01*
X110302938Y-109879284D01*
X110275360Y-109882000D01*
X109766640Y-109882000D01*
X109739062Y-109879284D01*
X109718443Y-109873029D01*
X109699447Y-109862876D01*
X109682792Y-109849208D01*
X109669124Y-109832553D01*
X109658971Y-109813557D01*
X109652716Y-109792938D01*
X109650000Y-109765360D01*
X109650000Y-109306640D01*
X109652716Y-109279062D01*
X109658971Y-109258443D01*
X109669124Y-109239447D01*
X109682792Y-109222792D01*
X109699447Y-109209124D01*
X109718443Y-109198971D01*
X109739062Y-109192716D01*
X109766640Y-109190000D01*
X110275360Y-109190000D01*
X110302938Y-109192716D01*
G37*
G36*
X128942591Y-108749085D02*
G01*
X128976569Y-108759393D01*
X129007890Y-108776134D01*
X129035339Y-108798661D01*
X129057866Y-108826110D01*
X129074607Y-108857431D01*
X129084915Y-108891409D01*
X129089000Y-108932890D01*
X129089000Y-109534110D01*
X129084915Y-109575591D01*
X129074607Y-109609569D01*
X129057866Y-109640890D01*
X129035339Y-109668339D01*
X129007890Y-109690866D01*
X128976569Y-109707607D01*
X128942591Y-109717915D01*
X128901110Y-109722000D01*
X128224890Y-109722000D01*
X128183409Y-109717915D01*
X128149431Y-109707607D01*
X128118110Y-109690866D01*
X128090661Y-109668339D01*
X128068134Y-109640890D01*
X128051393Y-109609569D01*
X128041085Y-109575591D01*
X128037000Y-109534110D01*
X128037000Y-108932890D01*
X128041085Y-108891409D01*
X128051393Y-108857431D01*
X128068134Y-108826110D01*
X128090661Y-108798661D01*
X128118110Y-108776134D01*
X128149431Y-108759393D01*
X128183409Y-108749085D01*
X128224890Y-108745000D01*
X128901110Y-108745000D01*
X128942591Y-108749085D01*
G37*
G36*
X115261721Y-108602174D02*
G01*
X115361995Y-108643709D01*
X115394630Y-108665515D01*
X115452242Y-108704010D01*
X115528990Y-108780758D01*
X115550928Y-108813591D01*
X115589291Y-108871005D01*
X115630826Y-108971279D01*
X115652000Y-109077730D01*
X115652000Y-109186270D01*
X115630826Y-109292721D01*
X115589291Y-109392995D01*
X115589290Y-109392996D01*
X115528990Y-109483242D01*
X115452242Y-109559990D01*
X115431767Y-109573671D01*
X115361995Y-109620291D01*
X115261721Y-109661826D01*
X115155270Y-109683000D01*
X115046730Y-109683000D01*
X114940279Y-109661826D01*
X114840005Y-109620291D01*
X114770233Y-109573671D01*
X114749758Y-109559990D01*
X114673010Y-109483242D01*
X114612710Y-109392996D01*
X114612709Y-109392995D01*
X114571174Y-109292721D01*
X114550000Y-109186270D01*
X114550000Y-109077730D01*
X114571174Y-108971279D01*
X114612709Y-108871005D01*
X114651072Y-108813591D01*
X114673010Y-108780758D01*
X114749758Y-108704010D01*
X114807370Y-108665515D01*
X114840005Y-108643709D01*
X114940279Y-108602174D01*
X115046730Y-108581000D01*
X115155270Y-108581000D01*
X115261721Y-108602174D01*
G37*
G36*
X111946000Y-109672000D02*
G01*
X111144000Y-109672000D01*
X111144000Y-108970000D01*
X111946000Y-108970000D01*
X111946000Y-109672000D01*
G37*
G36*
X139102591Y-107987085D02*
G01*
X139136569Y-107997393D01*
X139167890Y-108014134D01*
X139195339Y-108036661D01*
X139217866Y-108064110D01*
X139234607Y-108095431D01*
X139244915Y-108129409D01*
X139249000Y-108170890D01*
X139249000Y-108772110D01*
X139244915Y-108813591D01*
X139234607Y-108847569D01*
X139217866Y-108878890D01*
X139195339Y-108906339D01*
X139167890Y-108928866D01*
X139136569Y-108945607D01*
X139102591Y-108955915D01*
X139061110Y-108960000D01*
X138384890Y-108960000D01*
X138343409Y-108955915D01*
X138309431Y-108945607D01*
X138278110Y-108928866D01*
X138250661Y-108906339D01*
X138228134Y-108878890D01*
X138211393Y-108847569D01*
X138201085Y-108813591D01*
X138197000Y-108772110D01*
X138197000Y-108170890D01*
X138201085Y-108129409D01*
X138211393Y-108095431D01*
X138228134Y-108064110D01*
X138250661Y-108036661D01*
X138278110Y-108014134D01*
X138309431Y-107997393D01*
X138343409Y-107987085D01*
X138384890Y-107983000D01*
X139061110Y-107983000D01*
X139102591Y-107987085D01*
G37*
G36*
X137324591Y-107987085D02*
G01*
X137358569Y-107997393D01*
X137389890Y-108014134D01*
X137417339Y-108036661D01*
X137439866Y-108064110D01*
X137456607Y-108095431D01*
X137466915Y-108129409D01*
X137471000Y-108170890D01*
X137471000Y-108772110D01*
X137466915Y-108813591D01*
X137456607Y-108847569D01*
X137439866Y-108878890D01*
X137417339Y-108906339D01*
X137389890Y-108928866D01*
X137358569Y-108945607D01*
X137324591Y-108955915D01*
X137283110Y-108960000D01*
X136606890Y-108960000D01*
X136565409Y-108955915D01*
X136531431Y-108945607D01*
X136500110Y-108928866D01*
X136472661Y-108906339D01*
X136450134Y-108878890D01*
X136433393Y-108847569D01*
X136423085Y-108813591D01*
X136419000Y-108772110D01*
X136419000Y-108170890D01*
X136423085Y-108129409D01*
X136433393Y-108095431D01*
X136450134Y-108064110D01*
X136472661Y-108036661D01*
X136500110Y-108014134D01*
X136531431Y-107997393D01*
X136565409Y-107987085D01*
X136606890Y-107983000D01*
X137283110Y-107983000D01*
X137324591Y-107987085D01*
G37*
G36*
X141962798Y-107289247D02*
G01*
X141998367Y-107300037D01*
X142031139Y-107317554D01*
X142059869Y-107341131D01*
X142083446Y-107369861D01*
X142100963Y-107402633D01*
X142111753Y-107438202D01*
X142116000Y-107481325D01*
X142116000Y-108590675D01*
X142111753Y-108633798D01*
X142100963Y-108669367D01*
X142083446Y-108702139D01*
X142059869Y-108730869D01*
X142031139Y-108754446D01*
X141998367Y-108771963D01*
X141962798Y-108782753D01*
X141919675Y-108787000D01*
X140860325Y-108787000D01*
X140817202Y-108782753D01*
X140781633Y-108771963D01*
X140748861Y-108754446D01*
X140720131Y-108730869D01*
X140696554Y-108702139D01*
X140679037Y-108669367D01*
X140668247Y-108633798D01*
X140664000Y-108590675D01*
X140664000Y-107481325D01*
X140668247Y-107438202D01*
X140679037Y-107402633D01*
X140696554Y-107369861D01*
X140720131Y-107341131D01*
X140748861Y-107317554D01*
X140781633Y-107300037D01*
X140817202Y-107289247D01*
X140860325Y-107285000D01*
X141919675Y-107285000D01*
X141962798Y-107289247D01*
G37*
G36*
X113477938Y-107495716D02*
G01*
X113498557Y-107501971D01*
X113517553Y-107512124D01*
X113534208Y-107525792D01*
X113547876Y-107542447D01*
X113558029Y-107561443D01*
X113564284Y-107582062D01*
X113567000Y-107609640D01*
X113567000Y-108068360D01*
X113564284Y-108095938D01*
X113558029Y-108116557D01*
X113547876Y-108135553D01*
X113534208Y-108152208D01*
X113517553Y-108165876D01*
X113498557Y-108176029D01*
X113477938Y-108182284D01*
X113450360Y-108185000D01*
X112941640Y-108185000D01*
X112914062Y-108182284D01*
X112893443Y-108176029D01*
X112874447Y-108165876D01*
X112857792Y-108152208D01*
X112844124Y-108135553D01*
X112833971Y-108116557D01*
X112827716Y-108095938D01*
X112825000Y-108068360D01*
X112825000Y-107609640D01*
X112827716Y-107582062D01*
X112833971Y-107561443D01*
X112844124Y-107542447D01*
X112857792Y-107525792D01*
X112874447Y-107512124D01*
X112893443Y-107501971D01*
X112914062Y-107495716D01*
X112941640Y-107493000D01*
X113450360Y-107493000D01*
X113477938Y-107495716D01*
G37*
G36*
X110046938Y-107239716D02*
G01*
X110067557Y-107245971D01*
X110086553Y-107256124D01*
X110103208Y-107269792D01*
X110116876Y-107286447D01*
X110127029Y-107305443D01*
X110133284Y-107326062D01*
X110136000Y-107353640D01*
X110136000Y-107862360D01*
X110133284Y-107889938D01*
X110127029Y-107910557D01*
X110116876Y-107929553D01*
X110103208Y-107946208D01*
X110086553Y-107959876D01*
X110067557Y-107970029D01*
X110046938Y-107976284D01*
X110019360Y-107979000D01*
X109560640Y-107979000D01*
X109533062Y-107976284D01*
X109512443Y-107970029D01*
X109493447Y-107959876D01*
X109476792Y-107946208D01*
X109463124Y-107929553D01*
X109452971Y-107910557D01*
X109446716Y-107889938D01*
X109444000Y-107862360D01*
X109444000Y-107353640D01*
X109446716Y-107326062D01*
X109452971Y-107305443D01*
X109463124Y-107286447D01*
X109476792Y-107269792D01*
X109493447Y-107256124D01*
X109512443Y-107245971D01*
X109533062Y-107239716D01*
X109560640Y-107237000D01*
X110019360Y-107237000D01*
X110046938Y-107239716D01*
G37*
G36*
X111016938Y-107239716D02*
G01*
X111037557Y-107245971D01*
X111056553Y-107256124D01*
X111073208Y-107269792D01*
X111086876Y-107286447D01*
X111097029Y-107305443D01*
X111103284Y-107326062D01*
X111106000Y-107353640D01*
X111106000Y-107862360D01*
X111103284Y-107889938D01*
X111097029Y-107910557D01*
X111086876Y-107929553D01*
X111073208Y-107946208D01*
X111056553Y-107959876D01*
X111037557Y-107970029D01*
X111016938Y-107976284D01*
X110989360Y-107979000D01*
X110530640Y-107979000D01*
X110503062Y-107976284D01*
X110482443Y-107970029D01*
X110463447Y-107959876D01*
X110446792Y-107946208D01*
X110433124Y-107929553D01*
X110422971Y-107910557D01*
X110416716Y-107889938D01*
X110414000Y-107862360D01*
X110414000Y-107353640D01*
X110416716Y-107326062D01*
X110422971Y-107305443D01*
X110433124Y-107286447D01*
X110446792Y-107269792D01*
X110463447Y-107256124D01*
X110482443Y-107245971D01*
X110503062Y-107239716D01*
X110530640Y-107237000D01*
X110989360Y-107237000D01*
X111016938Y-107239716D01*
G37*
G36*
X119990700Y-107798700D02*
G01*
X118390100Y-107798700D01*
X118390100Y-105385300D01*
X119990700Y-105385300D01*
X119990700Y-107798700D01*
G37*
G36*
X115875900Y-107798700D02*
G01*
X114275300Y-107798700D01*
X114275300Y-105385300D01*
X115875900Y-105385300D01*
X115875900Y-107798700D01*
G37*
G36*
X132138875Y-103558324D02*
G01*
X132160384Y-103570063D01*
X132183770Y-103577381D01*
X132209225Y-103580000D01*
X133071000Y-103580000D01*
X133071000Y-104331458D01*
X133073402Y-104355844D01*
X133080515Y-104379293D01*
X133092066Y-104400904D01*
X133095071Y-104404520D01*
X133091225Y-104409325D01*
X133079939Y-104431076D01*
X133073113Y-104454610D01*
X133072698Y-104459100D01*
X133069633Y-104459402D01*
X133046184Y-104466515D01*
X133024573Y-104478066D01*
X133004558Y-104494698D01*
X132526538Y-104984543D01*
X132511225Y-105003673D01*
X132499939Y-105025423D01*
X132493113Y-105048957D01*
X132491000Y-105071844D01*
X132491000Y-106080156D01*
X132493402Y-106104542D01*
X132500515Y-106127991D01*
X132512066Y-106149602D01*
X132526538Y-106167457D01*
X133004558Y-106657302D01*
X133023309Y-106673078D01*
X133044777Y-106684892D01*
X133068137Y-106692291D01*
X133072800Y-106692779D01*
X133073402Y-106698890D01*
X133080515Y-106722339D01*
X133092066Y-106743950D01*
X133094914Y-106747464D01*
X133092922Y-106749832D01*
X133081108Y-106771300D01*
X133073709Y-106794660D01*
X133071000Y-106820542D01*
X133071000Y-107572000D01*
X132209225Y-107572000D01*
X132184839Y-107574402D01*
X132161390Y-107581515D01*
X132139779Y-107593066D01*
X132133504Y-107598262D01*
X132126312Y-107592464D01*
X132104602Y-107581102D01*
X132081091Y-107574194D01*
X132076910Y-107573801D01*
X132076598Y-107570634D01*
X132069485Y-107547185D01*
X132057934Y-107525574D01*
X132041614Y-107505864D01*
X132031287Y-107495716D01*
X131585702Y-107057841D01*
X131566628Y-107042464D01*
X131544918Y-107031102D01*
X131521407Y-107024194D01*
X131516938Y-107023773D01*
X131516598Y-107020323D01*
X131509485Y-106996874D01*
X131497934Y-106975263D01*
X131494958Y-106971669D01*
X131498536Y-106967231D01*
X131509898Y-106945521D01*
X131516806Y-106922011D01*
X131519000Y-106898695D01*
X131519000Y-104253305D01*
X131516598Y-104228919D01*
X131509485Y-104205470D01*
X131497934Y-104183859D01*
X131495070Y-104180339D01*
X131497324Y-104177641D01*
X131509063Y-104156132D01*
X131516381Y-104132746D01*
X131516854Y-104128152D01*
X131522478Y-104127598D01*
X131545927Y-104120485D01*
X131567538Y-104108934D01*
X131585702Y-104094160D01*
X132041614Y-103646136D01*
X132057324Y-103627330D01*
X132069063Y-103605821D01*
X132076381Y-103582435D01*
X132076825Y-103578124D01*
X132082162Y-103577598D01*
X132105611Y-103570485D01*
X132127222Y-103558934D01*
X132133496Y-103553831D01*
X132138875Y-103558324D01*
G37*
G36*
X135413688Y-103559536D02*
G01*
X135435398Y-103570898D01*
X135458909Y-103577806D01*
X135463090Y-103578199D01*
X135463402Y-103581366D01*
X135470515Y-103604815D01*
X135482066Y-103626426D01*
X135498386Y-103646136D01*
X135954298Y-104094159D01*
X135973372Y-104109536D01*
X135995082Y-104120898D01*
X136018593Y-104127806D01*
X136023062Y-104128227D01*
X136023402Y-104131677D01*
X136030515Y-104155126D01*
X136042066Y-104176737D01*
X136045042Y-104180331D01*
X136041464Y-104184769D01*
X136030102Y-104206479D01*
X136023194Y-104229989D01*
X136021000Y-104253305D01*
X136021000Y-106898695D01*
X136023402Y-106923081D01*
X136030515Y-106946530D01*
X136042066Y-106968141D01*
X136044930Y-106971661D01*
X136042676Y-106974359D01*
X136030937Y-106995868D01*
X136023619Y-107019254D01*
X136023146Y-107023848D01*
X136017522Y-107024402D01*
X135994073Y-107031515D01*
X135972462Y-107043066D01*
X135954298Y-107057840D01*
X135508713Y-107495716D01*
X135498386Y-107505864D01*
X135482676Y-107524670D01*
X135470937Y-107546179D01*
X135463619Y-107569565D01*
X135463175Y-107573876D01*
X135457838Y-107574402D01*
X135434389Y-107581515D01*
X135412778Y-107593066D01*
X135406504Y-107598169D01*
X135401125Y-107593676D01*
X135379616Y-107581937D01*
X135356230Y-107574619D01*
X135330775Y-107572000D01*
X134469000Y-107572000D01*
X134469000Y-106820542D01*
X134466598Y-106796156D01*
X134459485Y-106772707D01*
X134447934Y-106751096D01*
X134444929Y-106747480D01*
X134448775Y-106742675D01*
X134460061Y-106720924D01*
X134466887Y-106697390D01*
X134467302Y-106692900D01*
X134470367Y-106692598D01*
X134493816Y-106685485D01*
X134515427Y-106673934D01*
X134535442Y-106657302D01*
X135013462Y-106167457D01*
X135028775Y-106148327D01*
X135040061Y-106126577D01*
X135046887Y-106103043D01*
X135049000Y-106080156D01*
X135049000Y-105071844D01*
X135046598Y-105047458D01*
X135039485Y-105024009D01*
X135027934Y-105002398D01*
X135013462Y-104984543D01*
X134535442Y-104494698D01*
X134516691Y-104478922D01*
X134495223Y-104467108D01*
X134471863Y-104459709D01*
X134467200Y-104459221D01*
X134466598Y-104453110D01*
X134459485Y-104429661D01*
X134447934Y-104408050D01*
X134445086Y-104404536D01*
X134447078Y-104402168D01*
X134458892Y-104380700D01*
X134466291Y-104357340D01*
X134469000Y-104331458D01*
X134469000Y-103580000D01*
X135330775Y-103580000D01*
X135355161Y-103577598D01*
X135378610Y-103570485D01*
X135400221Y-103558934D01*
X135406496Y-103553738D01*
X135413688Y-103559536D01*
G37*
G36*
X113477938Y-106525716D02*
G01*
X113498557Y-106531971D01*
X113517553Y-106542124D01*
X113534208Y-106555792D01*
X113547876Y-106572447D01*
X113558029Y-106591443D01*
X113564284Y-106612062D01*
X113567000Y-106639640D01*
X113567000Y-107098360D01*
X113564284Y-107125938D01*
X113558029Y-107146557D01*
X113547876Y-107165553D01*
X113534208Y-107182208D01*
X113517553Y-107195876D01*
X113498557Y-107206029D01*
X113477938Y-107212284D01*
X113450360Y-107215000D01*
X112941640Y-107215000D01*
X112914062Y-107212284D01*
X112893443Y-107206029D01*
X112874447Y-107195876D01*
X112857792Y-107182208D01*
X112844124Y-107165553D01*
X112833971Y-107146557D01*
X112827716Y-107125938D01*
X112825000Y-107098360D01*
X112825000Y-106639640D01*
X112827716Y-106612062D01*
X112833971Y-106591443D01*
X112844124Y-106572447D01*
X112857792Y-106555792D01*
X112874447Y-106542124D01*
X112893443Y-106531971D01*
X112914062Y-106525716D01*
X112941640Y-106523000D01*
X113450360Y-106523000D01*
X113477938Y-106525716D01*
G37*
G36*
X123190242Y-105107404D02*
G01*
X123227337Y-105118657D01*
X123261515Y-105136925D01*
X123291481Y-105161519D01*
X123316075Y-105191485D01*
X123334343Y-105225663D01*
X123345596Y-105262758D01*
X123350000Y-105307474D01*
X123350000Y-106800526D01*
X123345596Y-106845242D01*
X123334343Y-106882337D01*
X123316075Y-106916515D01*
X123291481Y-106946481D01*
X123261515Y-106971075D01*
X123227337Y-106989343D01*
X123190242Y-107000596D01*
X123145526Y-107005000D01*
X122252474Y-107005000D01*
X122207758Y-107000596D01*
X122170663Y-106989343D01*
X122136485Y-106971075D01*
X122106519Y-106946481D01*
X122081925Y-106916515D01*
X122063657Y-106882337D01*
X122052404Y-106845242D01*
X122048000Y-106800526D01*
X122048000Y-105307474D01*
X122052404Y-105262758D01*
X122063657Y-105225663D01*
X122081925Y-105191485D01*
X122106519Y-105161519D01*
X122136485Y-105136925D01*
X122170663Y-105118657D01*
X122207758Y-105107404D01*
X122252474Y-105103000D01*
X123145526Y-105103000D01*
X123190242Y-105107404D01*
G37*
G36*
X126790242Y-105107404D02*
G01*
X126827337Y-105118657D01*
X126861515Y-105136925D01*
X126891481Y-105161519D01*
X126916075Y-105191485D01*
X126934343Y-105225663D01*
X126945596Y-105262758D01*
X126950000Y-105307474D01*
X126950000Y-106800526D01*
X126945596Y-106845242D01*
X126934343Y-106882337D01*
X126916075Y-106916515D01*
X126891481Y-106946481D01*
X126861515Y-106971075D01*
X126827337Y-106989343D01*
X126790242Y-107000596D01*
X126745526Y-107005000D01*
X125852474Y-107005000D01*
X125807758Y-107000596D01*
X125770663Y-106989343D01*
X125736485Y-106971075D01*
X125706519Y-106946481D01*
X125681925Y-106916515D01*
X125663657Y-106882337D01*
X125652404Y-106845242D01*
X125648000Y-106800526D01*
X125648000Y-105307474D01*
X125652404Y-105262758D01*
X125663657Y-105225663D01*
X125681925Y-105191485D01*
X125706519Y-105161519D01*
X125736485Y-105136925D01*
X125770663Y-105118657D01*
X125807758Y-105107404D01*
X125852474Y-105103000D01*
X126745526Y-105103000D01*
X126790242Y-105107404D01*
G37*
G36*
X111101798Y-105163247D02*
G01*
X111137367Y-105174037D01*
X111170139Y-105191554D01*
X111198869Y-105215131D01*
X111222446Y-105243861D01*
X111239963Y-105276633D01*
X111250753Y-105312202D01*
X111255000Y-105355325D01*
X111255000Y-106464675D01*
X111250753Y-106507798D01*
X111239963Y-106543367D01*
X111222446Y-106576139D01*
X111198869Y-106604869D01*
X111170139Y-106628446D01*
X111137367Y-106645963D01*
X111101798Y-106656753D01*
X111058675Y-106661000D01*
X109999325Y-106661000D01*
X109956202Y-106656753D01*
X109920633Y-106645963D01*
X109887861Y-106628446D01*
X109859131Y-106604869D01*
X109835554Y-106576139D01*
X109818037Y-106543367D01*
X109807247Y-106507798D01*
X109803000Y-106464675D01*
X109803000Y-105355325D01*
X109807247Y-105312202D01*
X109818037Y-105276633D01*
X109835554Y-105243861D01*
X109859131Y-105215131D01*
X109887861Y-105191554D01*
X109920633Y-105174037D01*
X109956202Y-105163247D01*
X109999325Y-105159000D01*
X111058675Y-105159000D01*
X111101798Y-105163247D01*
G37*
G36*
X130226000Y-106013000D02*
G01*
X128424000Y-106013000D01*
X128424000Y-105261000D01*
X130226000Y-105261000D01*
X130226000Y-106013000D01*
G37*
G36*
X120716938Y-104066716D02*
G01*
X120737557Y-104072971D01*
X120756553Y-104083124D01*
X120773208Y-104096792D01*
X120786876Y-104113447D01*
X120797029Y-104132443D01*
X120803284Y-104153062D01*
X120806000Y-104180640D01*
X120806000Y-104639360D01*
X120803284Y-104666938D01*
X120797029Y-104687557D01*
X120786876Y-104706553D01*
X120773208Y-104723208D01*
X120756553Y-104736876D01*
X120737557Y-104747029D01*
X120716938Y-104753284D01*
X120689360Y-104756000D01*
X120180640Y-104756000D01*
X120153062Y-104753284D01*
X120132443Y-104747029D01*
X120113447Y-104736876D01*
X120096792Y-104723208D01*
X120083124Y-104706553D01*
X120072971Y-104687557D01*
X120066716Y-104666938D01*
X120064000Y-104639360D01*
X120064000Y-104180640D01*
X120066716Y-104153062D01*
X120072971Y-104132443D01*
X120083124Y-104113447D01*
X120096792Y-104096792D01*
X120113447Y-104083124D01*
X120132443Y-104072971D01*
X120153062Y-104066716D01*
X120180640Y-104064000D01*
X120689360Y-104064000D01*
X120716938Y-104066716D01*
G37*
G36*
X119192938Y-104066716D02*
G01*
X119213557Y-104072971D01*
X119232553Y-104083124D01*
X119249208Y-104096792D01*
X119262876Y-104113447D01*
X119273029Y-104132443D01*
X119279284Y-104153062D01*
X119282000Y-104180640D01*
X119282000Y-104639360D01*
X119279284Y-104666938D01*
X119273029Y-104687557D01*
X119262876Y-104706553D01*
X119249208Y-104723208D01*
X119232553Y-104736876D01*
X119213557Y-104747029D01*
X119192938Y-104753284D01*
X119165360Y-104756000D01*
X118656640Y-104756000D01*
X118629062Y-104753284D01*
X118608443Y-104747029D01*
X118589447Y-104736876D01*
X118572792Y-104723208D01*
X118559124Y-104706553D01*
X118548971Y-104687557D01*
X118542716Y-104666938D01*
X118540000Y-104639360D01*
X118540000Y-104180640D01*
X118542716Y-104153062D01*
X118548971Y-104132443D01*
X118559124Y-104113447D01*
X118572792Y-104096792D01*
X118589447Y-104083124D01*
X118608443Y-104072971D01*
X118629062Y-104066716D01*
X118656640Y-104064000D01*
X119165360Y-104064000D01*
X119192938Y-104066716D01*
G37*
G36*
X130226000Y-104113000D02*
G01*
X128424000Y-104113000D01*
X128424000Y-103361000D01*
X130226000Y-103361000D01*
X130226000Y-104113000D01*
G37*
G36*
X111101798Y-102463247D02*
G01*
X111137367Y-102474037D01*
X111170139Y-102491554D01*
X111198869Y-102515131D01*
X111222446Y-102543861D01*
X111239963Y-102576633D01*
X111250753Y-102612202D01*
X111255000Y-102655325D01*
X111255000Y-103764675D01*
X111250753Y-103807798D01*
X111239963Y-103843367D01*
X111222446Y-103876139D01*
X111198869Y-103904869D01*
X111170139Y-103928446D01*
X111137367Y-103945963D01*
X111101798Y-103956753D01*
X111058675Y-103961000D01*
X109999325Y-103961000D01*
X109956202Y-103956753D01*
X109920633Y-103945963D01*
X109887861Y-103928446D01*
X109859131Y-103904869D01*
X109835554Y-103876139D01*
X109818037Y-103843367D01*
X109807247Y-103807798D01*
X109803000Y-103764675D01*
X109803000Y-102655325D01*
X109807247Y-102612202D01*
X109818037Y-102576633D01*
X109835554Y-102543861D01*
X109859131Y-102515131D01*
X109887861Y-102491554D01*
X109920633Y-102474037D01*
X109956202Y-102463247D01*
X109999325Y-102459000D01*
X111058675Y-102459000D01*
X111101798Y-102463247D01*
G37*
G36*
X120716938Y-103096716D02*
G01*
X120737557Y-103102971D01*
X120756553Y-103113124D01*
X120773208Y-103126792D01*
X120786876Y-103143447D01*
X120797029Y-103162443D01*
X120803284Y-103183062D01*
X120806000Y-103210640D01*
X120806000Y-103669360D01*
X120803284Y-103696938D01*
X120797029Y-103717557D01*
X120786876Y-103736553D01*
X120773208Y-103753208D01*
X120756553Y-103766876D01*
X120737557Y-103777029D01*
X120716938Y-103783284D01*
X120689360Y-103786000D01*
X120180640Y-103786000D01*
X120153062Y-103783284D01*
X120132443Y-103777029D01*
X120113447Y-103766876D01*
X120096792Y-103753208D01*
X120083124Y-103736553D01*
X120072971Y-103717557D01*
X120066716Y-103696938D01*
X120064000Y-103669360D01*
X120064000Y-103210640D01*
X120066716Y-103183062D01*
X120072971Y-103162443D01*
X120083124Y-103143447D01*
X120096792Y-103126792D01*
X120113447Y-103113124D01*
X120132443Y-103102971D01*
X120153062Y-103096716D01*
X120180640Y-103094000D01*
X120689360Y-103094000D01*
X120716938Y-103096716D01*
G37*
G36*
X119192938Y-103096716D02*
G01*
X119213557Y-103102971D01*
X119232553Y-103113124D01*
X119249208Y-103126792D01*
X119262876Y-103143447D01*
X119273029Y-103162443D01*
X119279284Y-103183062D01*
X119282000Y-103210640D01*
X119282000Y-103669360D01*
X119279284Y-103696938D01*
X119273029Y-103717557D01*
X119262876Y-103736553D01*
X119249208Y-103753208D01*
X119232553Y-103766876D01*
X119213557Y-103777029D01*
X119192938Y-103783284D01*
X119165360Y-103786000D01*
X118656640Y-103786000D01*
X118629062Y-103783284D01*
X118608443Y-103777029D01*
X118589447Y-103766876D01*
X118572792Y-103753208D01*
X118559124Y-103736553D01*
X118548971Y-103717557D01*
X118542716Y-103696938D01*
X118540000Y-103669360D01*
X118540000Y-103210640D01*
X118542716Y-103183062D01*
X118548971Y-103162443D01*
X118559124Y-103143447D01*
X118572792Y-103126792D01*
X118589447Y-103113124D01*
X118608443Y-103102971D01*
X118629062Y-103096716D01*
X118656640Y-103094000D01*
X119165360Y-103094000D01*
X119192938Y-103096716D01*
G37*
G36*
X113221938Y-102667716D02*
G01*
X113242557Y-102673971D01*
X113261553Y-102684124D01*
X113278208Y-102697792D01*
X113291876Y-102714447D01*
X113302029Y-102733443D01*
X113308284Y-102754062D01*
X113311000Y-102781640D01*
X113311000Y-103290360D01*
X113308284Y-103317938D01*
X113302029Y-103338557D01*
X113291876Y-103357553D01*
X113278208Y-103374208D01*
X113261553Y-103387876D01*
X113242557Y-103398029D01*
X113221938Y-103404284D01*
X113194360Y-103407000D01*
X112735640Y-103407000D01*
X112708062Y-103404284D01*
X112687443Y-103398029D01*
X112668447Y-103387876D01*
X112651792Y-103374208D01*
X112638124Y-103357553D01*
X112627971Y-103338557D01*
X112621716Y-103317938D01*
X112619000Y-103290360D01*
X112619000Y-102781640D01*
X112621716Y-102754062D01*
X112627971Y-102733443D01*
X112638124Y-102714447D01*
X112651792Y-102697792D01*
X112668447Y-102684124D01*
X112687443Y-102673971D01*
X112708062Y-102667716D01*
X112735640Y-102665000D01*
X113194360Y-102665000D01*
X113221938Y-102667716D01*
G37*
G36*
X114191938Y-102667716D02*
G01*
X114212557Y-102673971D01*
X114231553Y-102684124D01*
X114248208Y-102697792D01*
X114261876Y-102714447D01*
X114272029Y-102733443D01*
X114278284Y-102754062D01*
X114281000Y-102781640D01*
X114281000Y-103290360D01*
X114278284Y-103317938D01*
X114272029Y-103338557D01*
X114261876Y-103357553D01*
X114248208Y-103374208D01*
X114231553Y-103387876D01*
X114212557Y-103398029D01*
X114191938Y-103404284D01*
X114164360Y-103407000D01*
X113705640Y-103407000D01*
X113678062Y-103404284D01*
X113657443Y-103398029D01*
X113638447Y-103387876D01*
X113621792Y-103374208D01*
X113608124Y-103357553D01*
X113597971Y-103338557D01*
X113591716Y-103317938D01*
X113589000Y-103290360D01*
X113589000Y-102781640D01*
X113591716Y-102754062D01*
X113597971Y-102733443D01*
X113608124Y-102714447D01*
X113621792Y-102697792D01*
X113638447Y-102684124D01*
X113657443Y-102673971D01*
X113678062Y-102667716D01*
X113705640Y-102665000D01*
X114164360Y-102665000D01*
X114191938Y-102667716D01*
G37*
G36*
X115571438Y-102667716D02*
G01*
X115592057Y-102673971D01*
X115611053Y-102684124D01*
X115627708Y-102697792D01*
X115641376Y-102714447D01*
X115651529Y-102733443D01*
X115657784Y-102754062D01*
X115660500Y-102781640D01*
X115660500Y-103290360D01*
X115657784Y-103317938D01*
X115651529Y-103338557D01*
X115641376Y-103357553D01*
X115627708Y-103374208D01*
X115611053Y-103387876D01*
X115592057Y-103398029D01*
X115571438Y-103404284D01*
X115543860Y-103407000D01*
X115085140Y-103407000D01*
X115057562Y-103404284D01*
X115036943Y-103398029D01*
X115017947Y-103387876D01*
X115001292Y-103374208D01*
X114987624Y-103357553D01*
X114977471Y-103338557D01*
X114971216Y-103317938D01*
X114968500Y-103290360D01*
X114968500Y-102781640D01*
X114971216Y-102754062D01*
X114977471Y-102733443D01*
X114987624Y-102714447D01*
X115001292Y-102697792D01*
X115017947Y-102684124D01*
X115036943Y-102673971D01*
X115057562Y-102667716D01*
X115085140Y-102665000D01*
X115543860Y-102665000D01*
X115571438Y-102667716D01*
G37*
G36*
X116541438Y-102667716D02*
G01*
X116562057Y-102673971D01*
X116581053Y-102684124D01*
X116597708Y-102697792D01*
X116611376Y-102714447D01*
X116621529Y-102733443D01*
X116627784Y-102754062D01*
X116630500Y-102781640D01*
X116630500Y-103290360D01*
X116627784Y-103317938D01*
X116621529Y-103338557D01*
X116611376Y-103357553D01*
X116597708Y-103374208D01*
X116581053Y-103387876D01*
X116562057Y-103398029D01*
X116541438Y-103404284D01*
X116513860Y-103407000D01*
X116055140Y-103407000D01*
X116027562Y-103404284D01*
X116006943Y-103398029D01*
X115987947Y-103387876D01*
X115971292Y-103374208D01*
X115957624Y-103357553D01*
X115947471Y-103338557D01*
X115941216Y-103317938D01*
X115938500Y-103290360D01*
X115938500Y-102781640D01*
X115941216Y-102754062D01*
X115947471Y-102733443D01*
X115957624Y-102714447D01*
X115971292Y-102697792D01*
X115987947Y-102684124D01*
X116006943Y-102673971D01*
X116027562Y-102667716D01*
X116055140Y-102665000D01*
X116513860Y-102665000D01*
X116541438Y-102667716D01*
G37*
G36*
X124258928Y-101355764D02*
G01*
X124280009Y-101362160D01*
X124299445Y-101372548D01*
X124316476Y-101386524D01*
X124330452Y-101403555D01*
X124340840Y-101422991D01*
X124347236Y-101444072D01*
X124350000Y-101472140D01*
X124350000Y-102885860D01*
X124347236Y-102913928D01*
X124340840Y-102935009D01*
X124330452Y-102954445D01*
X124316476Y-102971476D01*
X124299445Y-102985452D01*
X124280009Y-102995840D01*
X124258928Y-103002236D01*
X124230860Y-103005000D01*
X123767140Y-103005000D01*
X123739072Y-103002236D01*
X123717991Y-102995840D01*
X123698555Y-102985452D01*
X123681524Y-102971476D01*
X123667548Y-102954445D01*
X123657160Y-102935009D01*
X123650764Y-102913928D01*
X123648000Y-102885860D01*
X123648000Y-101472140D01*
X123650764Y-101444072D01*
X123657160Y-101422991D01*
X123667548Y-101403555D01*
X123681524Y-101386524D01*
X123698555Y-101372548D01*
X123717991Y-101362160D01*
X123739072Y-101355764D01*
X123767140Y-101353000D01*
X124230860Y-101353000D01*
X124258928Y-101355764D01*
G37*
G36*
X125258928Y-101355764D02*
G01*
X125280009Y-101362160D01*
X125299445Y-101372548D01*
X125316476Y-101386524D01*
X125330452Y-101403555D01*
X125340840Y-101422991D01*
X125347236Y-101444072D01*
X125350000Y-101472140D01*
X125350000Y-102885860D01*
X125347236Y-102913928D01*
X125340840Y-102935009D01*
X125330452Y-102954445D01*
X125316476Y-102971476D01*
X125299445Y-102985452D01*
X125280009Y-102995840D01*
X125258928Y-103002236D01*
X125230860Y-103005000D01*
X124767140Y-103005000D01*
X124739072Y-103002236D01*
X124717991Y-102995840D01*
X124698555Y-102985452D01*
X124681524Y-102971476D01*
X124667548Y-102954445D01*
X124657160Y-102935009D01*
X124650764Y-102913928D01*
X124648000Y-102885860D01*
X124648000Y-101472140D01*
X124650764Y-101444072D01*
X124657160Y-101422991D01*
X124667548Y-101403555D01*
X124681524Y-101386524D01*
X124698555Y-101372548D01*
X124717991Y-101362160D01*
X124739072Y-101355764D01*
X124767140Y-101353000D01*
X125230860Y-101353000D01*
X125258928Y-101355764D01*
G37*
G36*
X106342509Y-101008399D02*
G01*
X106354742Y-101009000D01*
X107348612Y-101009000D01*
X107422213Y-101016249D01*
X107516652Y-101044897D01*
X107603687Y-101091418D01*
X107679975Y-101154025D01*
X107742582Y-101230313D01*
X107789103Y-101317348D01*
X107817751Y-101411787D01*
X107827424Y-101510000D01*
X107817751Y-101608213D01*
X107789103Y-101702652D01*
X107742582Y-101789687D01*
X107679975Y-101865975D01*
X107603687Y-101928582D01*
X107516652Y-101975103D01*
X107422213Y-102003751D01*
X107348612Y-102011000D01*
X106949999Y-102011000D01*
X106925613Y-102013402D01*
X106902164Y-102020515D01*
X106880553Y-102032066D01*
X106861611Y-102047611D01*
X106846066Y-102066553D01*
X106834515Y-102088164D01*
X106827402Y-102111613D01*
X106825738Y-102128503D01*
X106825602Y-102128490D01*
X106825000Y-102134602D01*
X106825000Y-102134612D01*
X106817751Y-102208213D01*
X106789103Y-102302652D01*
X106742582Y-102389687D01*
X106679975Y-102465975D01*
X106603687Y-102528582D01*
X106516652Y-102575103D01*
X106422213Y-102603751D01*
X106324000Y-102613424D01*
X106225788Y-102603751D01*
X106131349Y-102575103D01*
X106044314Y-102528582D01*
X105968026Y-102465975D01*
X105968020Y-102465967D01*
X105961643Y-102460734D01*
X105941269Y-102447120D01*
X105918630Y-102437743D01*
X105894597Y-102432962D01*
X105870093Y-102432962D01*
X105846060Y-102437742D01*
X105823421Y-102447119D01*
X105803046Y-102460733D01*
X105785719Y-102478060D01*
X105772105Y-102498434D01*
X105766860Y-102509524D01*
X105740743Y-102572575D01*
X105740742Y-102572577D01*
X105707802Y-102621876D01*
X105665876Y-102663802D01*
X105616577Y-102696742D01*
X105616576Y-102696743D01*
X105616575Y-102696743D01*
X105561797Y-102719433D01*
X105503647Y-102731000D01*
X105444353Y-102731000D01*
X105386203Y-102719433D01*
X105331425Y-102696743D01*
X105331424Y-102696743D01*
X105331423Y-102696742D01*
X105282124Y-102663802D01*
X105240198Y-102621876D01*
X105207258Y-102572577D01*
X105207257Y-102572575D01*
X105184567Y-102517797D01*
X105173000Y-102459647D01*
X105173000Y-102400353D01*
X105184567Y-102342203D01*
X105207257Y-102287425D01*
X105207258Y-102287423D01*
X105240198Y-102238124D01*
X105282124Y-102196198D01*
X105331423Y-102163258D01*
X105349626Y-102155718D01*
X105386203Y-102140567D01*
X105444353Y-102129000D01*
X105503647Y-102129000D01*
X105561797Y-102140567D01*
X105616576Y-102163257D01*
X105616577Y-102163258D01*
X105628557Y-102171262D01*
X105650164Y-102182812D01*
X105673613Y-102189926D01*
X105697999Y-102192328D01*
X105722386Y-102189926D01*
X105745835Y-102182814D01*
X105767445Y-102171263D01*
X105786388Y-102155718D01*
X105801933Y-102136776D01*
X105813484Y-102115166D01*
X105820598Y-102091717D01*
X105823000Y-102067329D01*
X105823000Y-101540743D01*
X105822398Y-101528500D01*
X105820576Y-101510000D01*
X105830249Y-101411787D01*
X105858897Y-101317348D01*
X105905418Y-101230313D01*
X105968025Y-101154025D01*
X106044313Y-101091418D01*
X106131348Y-101044897D01*
X106225787Y-101016249D01*
X106299388Y-101009000D01*
X106324000Y-101006576D01*
X106342509Y-101008399D01*
G37*
G36*
X113221938Y-101397716D02*
G01*
X113242557Y-101403971D01*
X113261553Y-101414124D01*
X113278208Y-101427792D01*
X113291876Y-101444447D01*
X113302029Y-101463443D01*
X113308284Y-101484062D01*
X113311000Y-101511640D01*
X113311000Y-102020360D01*
X113308284Y-102047938D01*
X113302029Y-102068557D01*
X113291876Y-102087553D01*
X113278208Y-102104208D01*
X113261553Y-102117876D01*
X113242557Y-102128029D01*
X113221938Y-102134284D01*
X113194360Y-102137000D01*
X112735640Y-102137000D01*
X112708062Y-102134284D01*
X112687443Y-102128029D01*
X112668447Y-102117876D01*
X112651792Y-102104208D01*
X112638124Y-102087553D01*
X112627971Y-102068557D01*
X112621716Y-102047938D01*
X112619000Y-102020360D01*
X112619000Y-101511640D01*
X112621716Y-101484062D01*
X112627971Y-101463443D01*
X112638124Y-101444447D01*
X112651792Y-101427792D01*
X112668447Y-101414124D01*
X112687443Y-101403971D01*
X112708062Y-101397716D01*
X112735640Y-101395000D01*
X113194360Y-101395000D01*
X113221938Y-101397716D01*
G37*
G36*
X114191938Y-101397716D02*
G01*
X114212557Y-101403971D01*
X114231553Y-101414124D01*
X114248208Y-101427792D01*
X114261876Y-101444447D01*
X114272029Y-101463443D01*
X114278284Y-101484062D01*
X114281000Y-101511640D01*
X114281000Y-102020360D01*
X114278284Y-102047938D01*
X114272029Y-102068557D01*
X114261876Y-102087553D01*
X114248208Y-102104208D01*
X114231553Y-102117876D01*
X114212557Y-102128029D01*
X114191938Y-102134284D01*
X114164360Y-102137000D01*
X113705640Y-102137000D01*
X113678062Y-102134284D01*
X113657443Y-102128029D01*
X113638447Y-102117876D01*
X113621792Y-102104208D01*
X113608124Y-102087553D01*
X113597971Y-102068557D01*
X113591716Y-102047938D01*
X113589000Y-102020360D01*
X113589000Y-101511640D01*
X113591716Y-101484062D01*
X113597971Y-101463443D01*
X113608124Y-101444447D01*
X113621792Y-101427792D01*
X113638447Y-101414124D01*
X113657443Y-101403971D01*
X113678062Y-101397716D01*
X113705640Y-101395000D01*
X114164360Y-101395000D01*
X114191938Y-101397716D01*
G37*
G36*
X115571438Y-101397716D02*
G01*
X115592057Y-101403971D01*
X115611053Y-101414124D01*
X115627708Y-101427792D01*
X115641376Y-101444447D01*
X115651529Y-101463443D01*
X115657784Y-101484062D01*
X115660500Y-101511640D01*
X115660500Y-102020360D01*
X115657784Y-102047938D01*
X115651529Y-102068557D01*
X115641376Y-102087553D01*
X115627708Y-102104208D01*
X115611053Y-102117876D01*
X115592057Y-102128029D01*
X115571438Y-102134284D01*
X115543860Y-102137000D01*
X115085140Y-102137000D01*
X115057562Y-102134284D01*
X115036943Y-102128029D01*
X115017947Y-102117876D01*
X115001292Y-102104208D01*
X114987624Y-102087553D01*
X114977471Y-102068557D01*
X114971216Y-102047938D01*
X114968500Y-102020360D01*
X114968500Y-101511640D01*
X114971216Y-101484062D01*
X114977471Y-101463443D01*
X114987624Y-101444447D01*
X115001292Y-101427792D01*
X115017947Y-101414124D01*
X115036943Y-101403971D01*
X115057562Y-101397716D01*
X115085140Y-101395000D01*
X115543860Y-101395000D01*
X115571438Y-101397716D01*
G37*
G36*
X116541438Y-101397716D02*
G01*
X116562057Y-101403971D01*
X116581053Y-101414124D01*
X116597708Y-101427792D01*
X116611376Y-101444447D01*
X116621529Y-101463443D01*
X116627784Y-101484062D01*
X116630500Y-101511640D01*
X116630500Y-102020360D01*
X116627784Y-102047938D01*
X116621529Y-102068557D01*
X116611376Y-102087553D01*
X116597708Y-102104208D01*
X116581053Y-102117876D01*
X116562057Y-102128029D01*
X116541438Y-102134284D01*
X116513860Y-102137000D01*
X116055140Y-102137000D01*
X116027562Y-102134284D01*
X116006943Y-102128029D01*
X115987947Y-102117876D01*
X115971292Y-102104208D01*
X115957624Y-102087553D01*
X115947471Y-102068557D01*
X115941216Y-102047938D01*
X115938500Y-102020360D01*
X115938500Y-101511640D01*
X115941216Y-101484062D01*
X115947471Y-101463443D01*
X115957624Y-101444447D01*
X115971292Y-101427792D01*
X115987947Y-101414124D01*
X116006943Y-101403971D01*
X116027562Y-101397716D01*
X116055140Y-101395000D01*
X116513860Y-101395000D01*
X116541438Y-101397716D01*
G37*
G36*
X103022213Y-101016249D02*
G01*
X103116652Y-101044897D01*
X103203687Y-101091418D01*
X103279975Y-101154025D01*
X103342582Y-101230313D01*
X103389103Y-101317348D01*
X103417751Y-101411787D01*
X103427424Y-101510000D01*
X103417751Y-101608213D01*
X103389103Y-101702652D01*
X103342582Y-101789687D01*
X103279975Y-101865975D01*
X103203687Y-101928582D01*
X103116652Y-101975103D01*
X103022213Y-102003751D01*
X102948612Y-102011000D01*
X101599388Y-102011000D01*
X101525787Y-102003751D01*
X101431348Y-101975103D01*
X101344313Y-101928582D01*
X101268025Y-101865975D01*
X101205418Y-101789687D01*
X101158897Y-101702652D01*
X101130249Y-101608213D01*
X101120576Y-101510000D01*
X101130249Y-101411787D01*
X101158897Y-101317348D01*
X101205418Y-101230313D01*
X101268025Y-101154025D01*
X101344313Y-101091418D01*
X101431348Y-101044897D01*
X101525787Y-101016249D01*
X101599388Y-101009000D01*
X102948612Y-101009000D01*
X103022213Y-101016249D01*
G37*
M02*
